<svg width="64" height="64" viewBox="0 0 64 64" fill="none" xmlns="http://www.w3.org/2000/svg">
<g clip-path="url(#clip0_355_6794)">
<path fill-rule="evenodd" clip-rule="evenodd" d="M26 48C28.8891 48 31.7499 47.431 34.419 46.3254C37.0882 45.2197 39.5135 43.5992 41.5564 41.5564C43.5992 39.5135 45.2197 37.0882 46.3254 34.419C47.431 31.7499 48 28.8891 48 26C48 23.1109 47.431 20.2501 46.3254 17.581C45.2197 14.9118 43.5992 12.4865 41.5564 10.4437C39.5135 8.40076 37.0882 6.78025 34.419 5.67465C31.7499 4.56905 28.8891 4 26 4C20.1652 4 14.5695 6.31785 10.4437 10.4437C6.31785 14.5695 4 20.1652 4 26C4 31.8348 6.31785 37.4305 10.4437 41.5564C14.5695 45.6822 20.1652 48 26 48ZM52 26C52 32.8956 49.2607 39.5088 44.3848 44.3848C39.5088 49.2607 32.8956 52 26 52C19.1044 52 12.4912 49.2607 7.61522 44.3848C2.73928 39.5088 0 32.8956 0 26C0 19.1044 2.73928 12.4912 7.61522 7.61522C12.4912 2.73928 19.1044 0 26 0C32.8956 0 39.5088 2.73928 44.3848 7.61522C49.2607 12.4912 52 19.1044 52 26Z" fill="#212529"/>
<path d="M41.376 46.968C41.496 47.128 41.624 47.28 41.768 47.428L57.168 62.828C57.918 63.5786 58.9355 64.0004 59.9966 64.0008C61.0577 64.0012 62.0754 63.58 62.826 62.83C63.5766 62.08 63.9984 61.0625 63.9988 60.0014C63.9992 58.9403 63.578 57.9226 62.828 57.172L47.428 41.772C47.285 41.6272 47.1312 41.4935 46.968 41.372C45.3989 43.5115 43.5133 45.3998 41.376 46.972V46.968Z" fill="#212529"/>
<path fill-rule="evenodd" clip-rule="evenodd" d="M12 26C12 25.4696 12.2107 24.9609 12.5858 24.5858C12.9609 24.2107 13.4696 24 14 24H38C38.5304 24 39.0391 24.2107 39.4142 24.5858C39.7893 24.9609 40 25.4696 40 26C40 26.5304 39.7893 27.0391 39.4142 27.4142C39.0391 27.7893 38.5304 28 38 28H14C13.4696 28 12.9609 27.7893 12.5858 27.4142C12.2107 27.0391 12 26.5304 12 26Z" fill="#212529"/>
</g>
<defs>
<clipPath id="clip0_355_6794">
<rect width="64" height="64" fill="white"/>
</clipPath>
</defs>
</svg>
