<svg width="64" height="64" viewBox="0 0 64 64" fill="none" xmlns="http://www.w3.org/2000/svg">
<path d="M10.712 47.576C11.1272 47.9928 11.4453 48.496 11.6438 49.0498C11.8422 49.6036 11.916 50.1944 11.86 50.78C11.5789 53.4903 11.0459 56.1685 10.268 58.78C15.848 57.488 19.256 55.992 20.804 55.208C21.682 54.7633 22.6932 54.6579 23.644 54.912C26.3697 55.6387 29.1791 56.0045 32 56C47.984 56 60 44.772 60 32C60 19.232 47.984 8 32 8C16.016 8 4 19.232 4 32C4 37.872 6.468 43.32 10.712 47.576ZM8.74 63.196C7.79227 63.3839 6.84147 63.5559 5.888 63.712C5.088 63.84 4.48 63.008 4.796 62.264C5.15117 61.4264 5.4767 60.5765 5.772 59.716L5.784 59.676C6.776 56.796 7.584 53.484 7.88 50.4C2.972 45.48 0 39.04 0 32C0 16.536 14.328 4 32 4C49.672 4 64 16.536 64 32C64 47.464 49.672 60 32 60C28.8306 60.0043 25.6743 59.5928 22.612 58.776C20.532 59.828 16.056 61.744 8.74 63.196Z" fill="#212529"/>
</svg>
