<svg width="64" height="64" viewBox="0 0 64 64" fill="none" xmlns="http://www.w3.org/2000/svg">
<g clip-path="url(#clip0_355_6729)">
<path d="M56 4C57.0609 4 58.0783 4.42143 58.8284 5.17157C59.5786 5.92172 60 6.93913 60 8V56C60 57.0609 59.5786 58.0783 58.8284 58.8284C58.0783 59.5786 57.0609 60 56 60H8C6.93913 60 5.92172 59.5786 5.17157 58.8284C4.42143 58.0783 4 57.0609 4 56V8C4 6.93913 4.42143 5.92172 5.17157 5.17157C5.92172 4.42143 6.93913 4 8 4H56ZM8 0C5.87827 0 3.84344 0.842855 2.34315 2.34315C0.842855 3.84344 0 5.87827 0 8V56C0 58.1217 0.842855 60.1566 2.34315 61.6569C3.84344 63.1571 5.87827 64 8 64H56C58.1217 64 60.1566 63.1571 61.6569 61.6569C63.1571 60.1566 64 58.1217 64 56V8C64 5.87827 63.1571 3.84344 61.6569 2.34315C60.1566 0.842855 58.1217 0 56 0H8Z" fill="#212529"/>
<path d="M35.72 26.352L26.56 27.5L26.232 29.02L28.032 29.352C29.208 29.632 29.44 30.056 29.184 31.228L26.232 45.1C25.456 48.688 26.652 50.376 29.464 50.376C31.644 50.376 34.176 49.368 35.324 47.984L35.676 46.32C34.876 47.024 33.708 47.304 32.932 47.304C31.832 47.304 31.432 46.532 31.716 45.172L35.72 26.352ZM36 18C36 19.0609 35.5786 20.0783 34.8284 20.8284C34.0783 21.5786 33.0609 22 32 22C30.9391 22 29.9217 21.5786 29.1716 20.8284C28.4214 20.0783 28 19.0609 28 18C28 16.9391 28.4214 15.9217 29.1716 15.1716C29.9217 14.4214 30.9391 14 32 14C33.0609 14 34.0783 14.4214 34.8284 15.1716C35.5786 15.9217 36 16.9391 36 18Z" fill="#212529"/>
</g>
<defs>
<clipPath id="clip0_355_6729">
<rect width="64" height="64" fill="white"/>
</clipPath>
</defs>
</svg>
