<svg width="64" height="64" viewBox="0 0 64 64" fill="none" xmlns="http://www.w3.org/2000/svg">
<g clip-path="url(#clip0_355_6812)">
<path d="M32 60C24.5739 60 17.452 57.05 12.201 51.799C6.94999 46.548 4 39.4261 4 32C4 24.5739 6.94999 17.452 12.201 12.201C17.452 6.94999 24.5739 4 32 4C39.4261 4 46.548 6.94999 51.799 12.201C57.05 17.452 60 24.5739 60 32C60 39.4261 57.05 46.548 51.799 51.799C46.548 57.05 39.4261 60 32 60ZM32 64C40.4869 64 48.6263 60.6286 54.6274 54.6274C60.6286 48.6263 64 40.4869 64 32C64 23.5131 60.6286 15.3737 54.6274 9.37258C48.6263 3.37142 40.4869 0 32 0C23.5131 0 15.3737 3.37142 9.37258 9.37258C3.37142 15.3737 0 23.5131 0 32C0 40.4869 3.37142 48.6263 9.37258 54.6274C15.3737 60.6286 23.5131 64 32 64Z" fill="#212529"/>
<path d="M20 25C20 23.6739 20.5268 22.4021 21.4645 21.4645C22.4021 20.5268 23.6739 20 25 20C26.3261 20 27.5979 20.5268 28.5355 21.4645C29.4732 22.4021 30 23.6739 30 25V39C30 40.3261 29.4732 41.5979 28.5355 42.5355C27.5979 43.4732 26.3261 44 25 44C23.6739 44 22.4021 43.4732 21.4645 42.5355C20.5268 41.5979 20 40.3261 20 39V25ZM34 25C34 23.6739 34.5268 22.4021 35.4645 21.4645C36.4021 20.5268 37.6739 20 39 20C40.3261 20 41.5979 20.5268 42.5355 21.4645C43.4732 22.4021 44 23.6739 44 25V39C44 40.3261 43.4732 41.5979 42.5355 42.5355C41.5979 43.4732 40.3261 44 39 44C37.6739 44 36.4021 43.4732 35.4645 42.5355C34.5268 41.5979 34 40.3261 34 39V25Z" fill="#212529"/>
</g>
<defs>
<clipPath id="clip0_355_6812">
<rect width="64" height="64" fill="white"/>
</clipPath>
</defs>
</svg>
