<svg width="64" height="64" viewBox="0 0 64 64" fill="none" xmlns="http://www.w3.org/2000/svg">
<g clip-path="url(#clip0_355_6784)">
<path d="M18.16 0.584C18.5348 0.210124 19.0426 0.000112476 19.572 0H44.428C44.9574 0.000112476 45.4652 0.210124 45.84 0.584L63.416 18.16C63.7899 18.5348 63.9999 19.0426 64 19.572V44.428C63.9999 44.9574 63.7899 45.4652 63.416 45.84L45.84 63.416C45.4652 63.7899 44.9574 63.9999 44.428 64H19.572C19.0426 63.9999 18.5348 63.7899 18.16 63.416L0.584 45.84C0.210124 45.4652 0.000112476 44.9574 0 44.428V19.572C0.000112476 19.0426 0.210124 18.5348 0.584 18.16L18.16 0.584ZM20.4 4L4 20.4V43.6L20.4 60H43.6L60 43.6V20.4L43.6 4H20.4Z" fill="#212529"/>
<path d="M18.584 18.584C18.7698 18.3977 18.9905 18.25 19.2335 18.1491C19.4764 18.0483 19.7369 17.9964 20 17.9964C20.2631 17.9964 20.5236 18.0483 20.7665 18.1491C21.0095 18.25 21.2302 18.3977 21.416 18.584L32 29.172L42.584 18.584C42.77 18.398 42.9907 18.2505 43.2337 18.1499C43.4766 18.0493 43.737 17.9975 44 17.9975C44.263 17.9975 44.5234 18.0493 44.7663 18.1499C45.0093 18.2505 45.23 18.398 45.416 18.584C45.602 18.77 45.7495 18.9907 45.8501 19.2337C45.9507 19.4766 46.0025 19.737 46.0025 20C46.0025 20.263 45.9507 20.5234 45.8501 20.7663C45.7495 21.0093 45.602 21.23 45.416 21.416L34.828 32L45.416 42.584C45.602 42.77 45.7495 42.9907 45.8501 43.2337C45.9507 43.4766 46.0025 43.737 46.0025 44C46.0025 44.263 45.9507 44.5234 45.8501 44.7663C45.7495 45.0093 45.602 45.23 45.416 45.416C45.23 45.602 45.0093 45.7495 44.7663 45.8501C44.5234 45.9507 44.263 46.0025 44 46.0025C43.737 46.0025 43.4766 45.9507 43.2337 45.8501C42.9907 45.7495 42.77 45.602 42.584 45.416L32 34.828L21.416 45.416C21.23 45.602 21.0093 45.7495 20.7663 45.8501C20.5234 45.9507 20.263 46.0025 20 46.0025C19.737 46.0025 19.4766 45.9507 19.2337 45.8501C18.9907 45.7495 18.77 45.602 18.584 45.416C18.398 45.23 18.2505 45.0093 18.1499 44.7663C18.0493 44.5234 17.9975 44.263 17.9975 44C17.9975 43.737 18.0493 43.4766 18.1499 43.2337C18.2505 42.9907 18.398 42.77 18.584 42.584L29.172 32L18.584 21.416C18.3977 21.2302 18.25 21.0095 18.1491 20.7665C18.0483 20.5236 17.9964 20.2631 17.9964 20C17.9964 19.7369 18.0483 19.4764 18.1491 19.2335C18.25 18.9905 18.3977 18.7698 18.584 18.584Z" fill="#212529"/>
</g>
<defs>
<clipPath id="clip0_355_6784">
<rect width="64" height="64" fill="white"/>
</clipPath>
</defs>
</svg>
