<svg width="64" height="64" viewBox="0 0 64 64" fill="none" xmlns="http://www.w3.org/2000/svg">
<g clip-path="url(#clip0_2006_2563)">
<path d="M23.716 7.02836C23.851 6.80301 23.9403 6.55328 23.9788 6.29342C24.0173 6.03357 24.0042 5.76867 23.9403 5.51387C23.8764 5.25907 23.763 5.01934 23.6064 4.80838C23.4499 4.59742 23.2533 4.41936 23.028 4.28436C22.8027 4.14936 22.5529 4.06007 22.2931 4.02158C22.0332 3.9831 21.7683 3.99617 21.5135 4.06006C21.2587 4.12395 21.019 4.23739 20.808 4.39393C20.5971 4.55046 20.419 4.74701 20.284 4.97236L8.868 24.0004H2C1.46957 24.0004 0.960859 24.2111 0.585786 24.5861C0.210714 24.9612 0 25.4699 0 26.0004L0 30.0004C0 30.5308 0.210714 31.0395 0.585786 31.4146C0.960859 31.7896 1.46957 32.0004 2 32.0004H4.492L11.868 57.8244C12.0474 58.4525 12.4269 59.0048 12.9489 59.3976C13.4709 59.7903 14.1068 60.002 14.76 60.0004H49.248C49.9005 60.0011 50.5355 59.7891 51.0567 59.3964C51.5779 59.0037 51.9568 58.4518 52.136 57.8244L59.508 32.0004H62C62.5304 32.0004 63.0391 31.7896 63.4142 31.4146C63.7893 31.0395 64 30.5308 64 30.0004V26.0004C64 25.4699 63.7893 24.9612 63.4142 24.5861C63.0391 24.2111 62.5304 24.0004 62 24.0004H55.132L43.72 4.97236C43.585 4.74701 43.4069 4.55046 43.196 4.39393C42.985 4.23739 42.7453 4.12395 42.4905 4.06006C42.2357 3.99617 41.9708 3.9831 41.7109 4.02158C41.4511 4.06007 41.2014 4.14936 40.976 4.28436C40.7507 4.41936 40.5541 4.59742 40.3976 4.80838C40.241 5.01934 40.1276 5.25907 40.0637 5.51387C39.9998 5.76867 39.9867 6.03357 40.0252 6.29342C40.0637 6.55328 40.153 6.80301 40.288 7.02836L50.468 24.0004H13.532L23.72 7.02836H23.716ZM16 40.0004C16 38.9395 16.4214 37.9221 17.1716 37.1719C17.9217 36.4218 18.9391 36.0004 20 36.0004C21.0609 36.0004 22.0783 36.4218 22.8284 37.1719C23.5786 37.9221 24 38.9395 24 40.0004V48.0004C24 49.0612 23.5786 50.0786 22.8284 50.8288C22.0783 51.5789 21.0609 52.0004 20 52.0004C18.9391 52.0004 17.9217 51.5789 17.1716 50.8288C16.4214 50.0786 16 49.0612 16 48.0004V40.0004ZM28 40.0004C28 38.9395 28.4214 37.9221 29.1716 37.1719C29.9217 36.4218 30.9391 36.0004 32 36.0004C33.0609 36.0004 34.0783 36.4218 34.8284 37.1719C35.5786 37.9221 36 38.9395 36 40.0004V48.0004C36 49.0612 35.5786 50.0786 34.8284 50.8288C34.0783 51.5789 33.0609 52.0004 32 52.0004C30.9391 52.0004 29.9217 51.5789 29.1716 50.8288C28.4214 50.0786 28 49.0612 28 48.0004V40.0004ZM44 36.0004C45.0609 36.0004 46.0783 36.4218 46.8284 37.1719C47.5786 37.9221 48 38.9395 48 40.0004V48.0004C48 49.0612 47.5786 50.0786 46.8284 50.8288C46.0783 51.5789 45.0609 52.0004 44 52.0004C42.9391 52.0004 41.9217 51.5789 41.1716 50.8288C40.4214 50.0786 40 49.0612 40 48.0004V40.0004C40 38.9395 40.4214 37.9221 41.1716 37.1719C41.9217 36.4218 42.9391 36.0004 44 36.0004Z" fill="#212529"/>
</g>
<defs>
<clipPath id="clip0_2006_2563">
<rect width="64" height="64" fill="white"/>
</clipPath>
</defs>
</svg>
