<svg width="64" height="64" viewBox="0 0 64 64" fill="none" xmlns="http://www.w3.org/2000/svg">
<path d="M44 6V10H58C58.5304 10 59.0391 10.2107 59.4142 10.5858C59.7893 10.9609 60 11.4696 60 12C60 12.5304 59.7893 13.0391 59.4142 13.4142C59.0391 13.7893 58.5304 14 58 14H55.848L52.436 56.64C52.2751 58.6448 51.365 60.5154 49.8869 61.8793C48.4088 63.2433 46.4712 64.0004 44.46 64H19.54C17.5288 64.0004 15.5912 63.2433 14.1131 61.8793C12.635 60.5154 11.7249 58.6448 11.564 56.64L8.152 14H6C5.46957 14 4.96086 13.7893 4.58579 13.4142C4.21071 13.0391 4 12.5304 4 12C4 11.4696 4.21071 10.9609 4.58579 10.5858C4.96086 10.2107 5.46957 10 6 10H20V6C20 4.4087 20.6321 2.88258 21.7574 1.75736C22.8826 0.632141 24.4087 0 26 0L38 0C39.5913 0 41.1174 0.632141 42.2426 1.75736C43.3679 2.88258 44 4.4087 44 6ZM24 6V10H40V6C40 5.46957 39.7893 4.96086 39.4142 4.58579C39.0391 4.21071 38.5304 4 38 4H26C25.4696 4 24.9609 4.21071 24.5858 4.58579C24.2107 4.96086 24 5.46957 24 6V6ZM18 20.116L20 54.116C20.0107 54.3818 20.0743 54.6428 20.187 54.8837C20.2998 55.1246 20.4595 55.3406 20.6568 55.519C20.854 55.6974 21.0849 55.8347 21.3359 55.9228C21.5869 56.0109 21.8529 56.0481 22.1184 56.0321C22.3839 56.0162 22.6436 55.9474 22.8822 55.8298C23.1208 55.7123 23.3336 55.5483 23.5081 55.3476C23.6825 55.1468 23.8152 54.9132 23.8983 54.6605C23.9814 54.4079 24.0132 54.1411 23.992 53.876L21.992 19.876C21.9813 19.6102 21.9177 19.3492 21.805 19.1083C21.6922 18.8674 21.5325 18.6514 21.3352 18.473C21.138 18.2946 20.9071 18.1573 20.6561 18.0692C20.4051 17.9811 20.1391 17.9439 19.8736 17.9599C19.6081 17.9758 19.3484 18.0446 19.1098 18.1621C18.8712 18.2797 18.6584 18.4437 18.4839 18.6444C18.3095 18.8452 18.1768 19.0788 18.0937 19.3315C18.0106 19.5841 17.9788 19.8509 18 20.116V20.116ZM44.12 18.004C43.5907 17.9734 43.0709 18.1543 42.6748 18.5068C42.2788 18.8593 42.0389 19.3547 42.008 19.884L40.008 53.884C39.9908 54.4054 40.1781 54.913 40.5299 55.2983C40.8816 55.6836 41.37 55.9162 41.8909 55.9464C42.4117 55.9767 42.9238 55.8022 43.3178 55.4603C43.7118 55.1183 43.9566 54.6359 44 54.116L46 20.116C46.0306 19.5867 45.8497 19.0669 45.4972 18.6708C45.1447 18.2748 44.6493 18.0349 44.12 18.004V18.004ZM32 18C31.4696 18 30.9609 18.2107 30.5858 18.5858C30.2107 18.9609 30 19.4696 30 20V54C30 54.5304 30.2107 55.0391 30.5858 55.4142C30.9609 55.7893 31.4696 56 32 56C32.5304 56 33.0391 55.7893 33.4142 55.4142C33.7893 55.0391 34 54.5304 34 54V20C34 19.4696 33.7893 18.9609 33.4142 18.5858C33.0391 18.2107 32.5304 18 32 18Z" fill="white"/>
</svg>
