<svg width="64" height="64" viewBox="0 0 64 64" fill="none" xmlns="http://www.w3.org/2000/svg">
<path d="M0.2 14.22C0.603273 12.453 1.59462 10.8753 3.01169 9.74523C4.42875 8.61521 6.18754 7.99988 8 8H56C57.8125 7.99988 59.5712 8.61521 60.9883 9.74523C62.4054 10.8753 63.3967 12.453 63.8 14.22L32 33.656L0.2 14.22ZM0 18.788V47.204L23.212 32.972L0 18.788ZM27.044 35.32L0.764 51.428C1.41331 52.7971 2.43811 53.9537 3.71913 54.7631C5.00015 55.5725 6.4847 56.0015 8 56H56C57.5151 56.0003 58.9991 55.5704 60.2793 54.7604C61.5596 53.9503 62.5836 52.7933 63.232 51.424L36.952 35.316L32 38.344L27.044 35.316V35.32ZM40.788 32.976L64 47.204V18.788L40.788 32.972V32.976Z" fill="#212529"/>
</svg>
