<svg width="64" height="64" viewBox="0 0 64 64" fill="none" xmlns="http://www.w3.org/2000/svg">
<path fill-rule="evenodd" clip-rule="evenodd" d="M6.58416 26.5876C6.76994 26.4013 6.99064 26.2536 7.23362 26.1527C7.4766 26.0519 7.73709 26 8.00016 26C8.26323 26 8.52371 26.0519 8.76669 26.1527C9.00967 26.2536 9.23038 26.4013 9.41616 26.5876L32.0002 49.1756L54.5842 26.5876C54.9597 26.212 55.4691 26.001 56.0002 26.001C56.5313 26.001 57.0406 26.212 57.4162 26.5876C57.7917 26.9631 58.0027 27.4725 58.0027 28.0036C58.0027 28.5347 57.7917 29.044 57.4162 29.4196L33.4162 53.4196C33.2304 53.6058 33.0097 53.7536 32.7667 53.8544C32.5237 53.9552 32.2632 54.0071 32.0002 54.0071C31.7371 54.0071 31.4766 53.9552 31.2336 53.8544C30.9906 53.7536 30.7699 53.6058 30.5842 53.4196L6.58416 29.4196C6.3979 29.2338 6.25013 29.0131 6.14931 28.7701C6.04848 28.5271 5.99658 28.2666 5.99658 28.0036C5.99658 27.7405 6.04848 27.48 6.14931 27.237C6.25013 26.9941 6.3979 26.7734 6.58416 26.5876Z" fill="white"/>
<path fill-rule="evenodd" clip-rule="evenodd" d="M6.58416 10.5876C6.76994 10.4013 6.99064 10.2536 7.23362 10.1527C7.4766 10.0519 7.73709 10 8.00016 10C8.26323 10 8.52371 10.0519 8.76669 10.1527C9.00967 10.2536 9.23038 10.4013 9.41616 10.5876L32.0002 33.1756L54.5842 10.5876C54.7701 10.4016 54.9909 10.2541 55.2338 10.1535C55.4768 10.0528 55.7372 10.001 56.0002 10.001C56.2631 10.001 56.5235 10.0528 56.7665 10.1535C57.0094 10.2541 57.2302 10.4016 57.4162 10.5876C57.6021 10.7735 57.7496 10.9943 57.8503 11.2372C57.9509 11.4802 58.0027 11.7406 58.0027 12.0036C58.0027 12.2666 57.9509 12.527 57.8503 12.7699C57.7496 13.0129 57.6021 13.2336 57.4162 13.4196L33.4162 37.4196C33.2304 37.6058 33.0097 37.7536 32.7667 37.8544C32.5237 37.9552 32.2632 38.0071 32.0002 38.0071C31.7371 38.0071 31.4766 37.9552 31.2336 37.8544C30.9906 37.7536 30.7699 37.6058 30.5842 37.4196L6.58416 13.4196C6.3979 13.2338 6.25013 13.0131 6.14931 12.7701C6.04848 12.5271 5.99658 12.2666 5.99658 12.0036C5.99658 11.7405 6.04848 11.48 6.14931 11.237C6.25013 10.9941 6.3979 10.7734 6.58416 10.5876Z" fill="white"/>
</svg>
