<svg width="64" height="64" viewBox="0 0 64 64" fill="none" xmlns="http://www.w3.org/2000/svg">
<g clip-path="url(#clip0_355_6733)">
<path d="M32 64C40.4869 64 48.6263 60.6286 54.6274 54.6274C60.6286 48.6263 64 40.4869 64 32C64 23.5131 60.6286 15.3737 54.6274 9.37258C48.6263 3.37142 40.4869 0 32 0C23.5131 0 15.3737 3.37142 9.37258 9.37258C3.37142 15.3737 0 23.5131 0 32C0 40.4869 3.37142 48.6263 9.37258 54.6274C15.3737 60.6286 23.5131 64 32 64ZM35.72 26.352L31.72 45.172C31.44 46.532 31.836 47.304 32.936 47.304C33.712 47.304 34.884 47.024 35.68 46.32L35.328 47.984C34.18 49.368 31.648 50.376 29.468 50.376C26.656 50.376 25.46 48.688 26.236 45.1L29.188 31.228C29.444 30.056 29.212 29.632 28.04 29.348L26.236 29.024L26.564 27.5L35.724 26.352H35.72ZM32 22C30.9391 22 29.9217 21.5786 29.1716 20.8284C28.4214 20.0783 28 19.0609 28 18C28 16.9391 28.4214 15.9217 29.1716 15.1716C29.9217 14.4214 30.9391 14 32 14C33.0609 14 34.0783 14.4214 34.8284 15.1716C35.5786 15.9217 36 16.9391 36 18C36 19.0609 35.5786 20.0783 34.8284 20.8284C34.0783 21.5786 33.0609 22 32 22Z" fill="#212529"/>
</g>
<defs>
<clipPath id="clip0_355_6733">
<rect width="64" height="64" fill="white"/>
</clipPath>
</defs>
</svg>
