<svg width="64" height="64" viewBox="0 0 64 64" fill="none" xmlns="http://www.w3.org/2000/svg">
<g clip-path="url(#clip0_355_6772)">
<path fill-rule="evenodd" clip-rule="evenodd" d="M0 42C0 42.5304 0.210714 43.0391 0.585786 43.4142C0.960859 43.7893 1.46957 44 2 44H18C18.5304 44 19.0391 43.7893 19.4142 43.4142C19.7893 43.0391 20 42.5304 20 42C20 41.4696 19.7893 40.9609 19.4142 40.5858C19.0391 40.2107 18.5304 40 18 40H12V6C12 5.46957 11.7893 4.96086 11.4142 4.58579C11.0391 4.21071 10.5304 4 10 4C9.46957 4 8.96086 4.21071 8.58579 4.58579C8.21071 4.96086 8 5.46957 8 6V40H2C1.46957 40 0.960859 40.2107 0.585786 40.5858C0.210714 40.9609 0 41.4696 0 42H0ZM10 48C9.46957 48 8.96086 48.2107 8.58579 48.5858C8.21071 48.9609 8 49.4696 8 50V58C8 58.5304 8.21071 59.0391 8.58579 59.4142C8.96086 59.7893 9.46957 60 10 60C10.5304 60 11.0391 59.7893 11.4142 59.4142C11.7893 59.0391 12 58.5304 12 58V50C12 49.4696 11.7893 48.9609 11.4142 48.5858C11.0391 48.2107 10.5304 48 10 48ZM22 22C22 22.5304 22.2107 23.0391 22.5858 23.4142C22.9609 23.7893 23.4696 24 24 24H30V58C30 58.5304 30.2107 59.0391 30.5858 59.4142C30.9609 59.7893 31.4696 60 32 60C32.5304 60 33.0391 59.7893 33.4142 59.4142C33.7893 59.0391 34 58.5304 34 58V24H40C40.5304 24 41.0391 23.7893 41.4142 23.4142C41.7893 23.0391 42 22.5304 42 22C42 21.4696 41.7893 20.9609 41.4142 20.5858C41.0391 20.2107 40.5304 20 40 20H24C23.4696 20 22.9609 20.2107 22.5858 20.5858C22.2107 20.9609 22 21.4696 22 22ZM32 4C31.4696 4 30.9609 4.21071 30.5858 4.58579C30.2107 4.96086 30 5.46957 30 6V14C30 14.5304 30.2107 15.0391 30.5858 15.4142C30.9609 15.7893 31.4696 16 32 16C32.5304 16 33.0391 15.7893 33.4142 15.4142C33.7893 15.0391 34 14.5304 34 14V6C34 5.46957 33.7893 4.96086 33.4142 4.58579C33.0391 4.21071 32.5304 4 32 4ZM44 42C44 42.5304 44.2107 43.0391 44.5858 43.4142C44.9609 43.7893 45.4696 44 46 44H62C62.5304 44 63.0391 43.7893 63.4142 43.4142C63.7893 43.0391 64 42.5304 64 42C64 41.4696 63.7893 40.9609 63.4142 40.5858C63.0391 40.2107 62.5304 40 62 40H56V6C56 5.46957 55.7893 4.96086 55.4142 4.58579C55.0391 4.21071 54.5304 4 54 4C53.4696 4 52.9609 4.21071 52.5858 4.58579C52.2107 4.96086 52 5.46957 52 6V40H46C45.4696 40 44.9609 40.2107 44.5858 40.5858C44.2107 40.9609 44 41.4696 44 42ZM54 48C53.4696 48 52.9609 48.2107 52.5858 48.5858C52.2107 48.9609 52 49.4696 52 50V58C52 58.5304 52.2107 59.0391 52.5858 59.4142C52.9609 59.7893 53.4696 60 54 60C54.5304 60 55.0391 59.7893 55.4142 59.4142C55.7893 59.0391 56 58.5304 56 58V50C56 49.4696 55.7893 48.9609 55.4142 48.5858C55.0391 48.2107 54.5304 48 54 48Z" fill="black"/>
</g>
<defs>
<clipPath id="clip0_355_6772">
<rect width="64" height="64" fill="white"/>
</clipPath>
</defs>
</svg>
