<svg width="64" height="64" viewBox="0 0 64 64" fill="none" xmlns="http://www.w3.org/2000/svg">
<path d="M6 6C6 5.46957 6.21071 4.96086 6.58579 4.58579C6.96086 4.21071 7.46957 4 8 4H56C56.5304 4 57.0391 4.21071 57.4142 4.58579C57.7893 4.96086 58 5.46957 58 6V14C57.9999 14.4932 57.8176 14.969 57.488 15.336L40 34.768V54C39.9997 54.4196 39.8674 54.8284 39.6219 55.1687C39.3764 55.509 39.0301 55.7634 38.632 55.896L26.632 59.896C26.3315 59.9961 26.0115 60.0234 25.6984 59.9756C25.3853 59.9278 25.088 59.8064 24.831 59.6213C24.574 59.4361 24.3647 59.1926 24.2202 58.9108C24.0757 58.6289 24.0002 58.3167 24 58V34.768L6.512 15.336C6.18243 14.969 6.00009 14.4932 6 14V6ZM10 8V13.232L27.488 32.664C27.8176 33.031 27.9999 33.5068 28 34V55.224L36 52.56V34C36.0001 33.5068 36.1824 33.031 36.512 32.664L54 13.232V8H10Z" fill="#212529"/>
</svg>
