<svg width="64" height="64" viewBox="0 0 64 64" fill="none" xmlns="http://www.w3.org/2000/svg">
<path fill-rule="evenodd" clip-rule="evenodd" d="M55.4162 8.58367C55.6024 8.76945 55.7502 8.99015 55.851 9.23313C55.9518 9.47611 56.0037 9.7366 56.0037 9.99967C56.0037 10.2627 55.9518 10.5232 55.851 10.7662C55.7502 11.0092 55.6024 11.2299 55.4162 11.4157L11.4162 55.4157C11.0406 55.7912 10.5313 56.0022 10.0002 56.0022C9.46905 56.0022 8.9597 55.7912 8.58416 55.4157C8.20861 55.0401 7.99763 54.5308 7.99763 53.9997C7.99763 53.4686 8.20861 52.9592 8.58416 52.5837L52.5842 8.58367C52.7699 8.39742 52.9906 8.24964 53.2336 8.14882C53.4766 8.04799 53.7371 7.99609 54.0002 7.99609C54.2632 7.99609 54.5237 8.04799 54.7667 8.14882C55.0097 8.24964 55.2304 8.39742 55.4162 8.58367Z" fill="#212529"/>
<path fill-rule="evenodd" clip-rule="evenodd" d="M8.58416 8.58367C8.3979 8.76945 8.25013 8.99015 8.14931 9.23313C8.04848 9.47611 7.99658 9.7366 7.99658 9.99967C7.99658 10.2627 8.04848 10.5232 8.14931 10.7662C8.25013 11.0092 8.3979 11.2299 8.58416 11.4157L52.5842 55.4157C52.9597 55.7912 53.4691 56.0022 54.0002 56.0022C54.5313 56.0022 55.0406 55.7912 55.4162 55.4157C55.7917 55.0401 56.0027 54.5308 56.0027 53.9997C56.0027 53.4686 55.7917 52.9592 55.4162 52.5837L11.4162 8.58367C11.2304 8.39742 11.0097 8.24964 10.7667 8.14882C10.5237 8.04799 10.2632 7.99609 10.0002 7.99609C9.73709 7.99609 9.4766 8.04799 9.23362 8.14882C8.99064 8.24964 8.76994 8.39742 8.58416 8.58367Z" fill="#212529"/>
</svg>
