<svg width="64" height="64" viewBox="0 0 64 64" fill="none" xmlns="http://www.w3.org/2000/svg">
<g clip-path="url(#clip0_355_6804)">
<path d="M31.9998 6.44083e-06C24.5386 -0.0047254 17.3103 2.59791 11.5647 7.3579C5.81906 12.1179 1.91735 18.736 0.534202 26.0679C-0.84895 33.3998 0.373405 40.9845 3.98991 47.5107C7.60642 54.0368 13.3897 59.0941 20.3398 61.808C20.0598 59.276 19.8038 55.384 20.4478 52.62C21.0318 50.12 24.1998 36.712 24.1998 36.712C24.1998 36.712 23.2438 34.796 23.2438 31.964C23.2438 27.512 25.8238 24.192 29.0358 24.192C31.7638 24.192 33.0838 26.24 33.0838 28.7C33.0838 31.444 31.3358 35.548 30.4318 39.352C29.6798 42.536 32.0318 45.136 35.1718 45.136C40.8598 45.136 45.2318 39.136 45.2318 30.48C45.2318 22.82 39.7238 17.464 31.8638 17.464C22.7598 17.464 17.4158 24.292 17.4158 31.348C17.4158 34.1 18.4758 37.048 19.7958 38.652C19.9095 38.7729 19.9899 38.9212 20.0292 39.0825C20.0684 39.2437 20.0652 39.4124 20.0198 39.572C19.7758 40.58 19.2358 42.756 19.1318 43.2C18.9918 43.784 18.6678 43.908 18.0598 43.628C14.0598 41.768 11.5638 35.924 11.5638 31.228C11.5638 21.136 18.8998 11.868 32.7078 11.868C43.8078 11.868 52.4358 19.776 52.4358 30.348C52.4358 41.376 45.4798 50.252 35.8318 50.252C32.5878 50.252 29.5398 48.568 28.4958 46.576L26.5038 54.184C25.7798 56.964 23.8278 60.448 22.5238 62.572C26.9237 63.9324 31.5654 64.3271 36.1318 63.7291C40.6982 63.131 45.0818 61.5544 48.9829 59.1068C52.8841 56.6593 56.2111 53.3985 58.7364 49.5472C61.2618 45.696 62.9261 41.345 63.6157 36.7915C64.3053 32.238 64.0039 27.5893 62.7321 23.163C61.4603 18.7367 59.248 14.6371 56.2465 11.1441C53.2449 7.65124 49.5248 4.84736 45.3402 2.92406C41.1557 1.00077 36.6052 0.00336921 31.9998 6.44083e-06Z" fill="#212529"/>
</g>
<defs>
<clipPath id="clip0_355_6804">
<rect width="64" height="64" fill="white"/>
</clipPath>
</defs>
</svg>
