<svg width="64" height="64" viewBox="0 0 64 64" fill="none" xmlns="http://www.w3.org/2000/svg">
<g clip-path="url(#clip0_355_6721)">
<path d="M64 32C64 40.4869 60.6286 48.6263 54.6274 54.6274C48.6263 60.6286 40.4869 64 32 64C23.5131 64 15.3737 60.6286 9.37258 54.6274C3.37142 48.6263 0 40.4869 0 32C0 23.5131 3.37142 15.3737 9.37258 9.37258C15.3737 3.37142 23.5131 0 32 0C40.4869 0 48.6263 3.37142 54.6274 9.37258C60.6286 15.3737 64 23.5131 64 32ZM21.984 24.132H25.284C25.836 24.132 26.276 23.68 26.348 23.132C26.708 20.508 28.508 18.596 31.716 18.596C34.46 18.596 36.972 19.968 36.972 23.268C36.972 25.808 35.476 26.976 33.112 28.752C30.42 30.708 28.288 32.992 28.44 36.7L28.452 37.568C28.4562 37.8304 28.5634 38.0807 28.7505 38.2648C28.9376 38.4489 29.1895 38.552 29.452 38.552H32.696C32.9612 38.552 33.2156 38.4466 33.4031 38.2591C33.5906 38.0716 33.696 37.8172 33.696 37.552V37.132C33.696 34.26 34.788 33.424 37.736 31.188C40.172 29.336 42.712 27.28 42.712 22.964C42.712 16.92 37.608 14 32.02 14C26.952 14 21.4 16.36 21.02 23.144C21.0145 23.2732 21.0355 23.4021 21.0817 23.5229C21.1279 23.6436 21.1983 23.7537 21.2886 23.8462C21.3789 23.9387 21.4872 24.0118 21.6068 24.061C21.7264 24.1101 21.8547 24.1343 21.984 24.132ZM31.284 49.904C33.724 49.904 35.4 48.328 35.4 46.196C35.4 43.988 33.72 42.436 31.284 42.436C28.948 42.436 27.248 43.988 27.248 46.196C27.248 48.328 28.948 49.904 31.288 49.904H31.284Z" fill="#212529"/>
</g>
<defs>
<clipPath id="clip0_355_6721">
<rect width="64" height="64" fill="white"/>
</clipPath>
</defs>
</svg>
