<svg width="64" height="64" viewBox="0 0 64 64" fill="none" xmlns="http://www.w3.org/2000/svg">
<path d="M18.5842 18.5837C18.7699 18.3974 18.9906 18.2496 19.2336 18.1488C19.4766 18.048 19.7371 17.9961 20.0002 17.9961C20.2632 17.9961 20.5237 18.048 20.7667 18.1488C21.0097 18.2496 21.2304 18.3974 21.4162 18.5837L32.0002 29.1717L42.5842 18.5837C42.7701 18.3977 42.9909 18.2502 43.2338 18.1496C43.4768 18.0489 43.7372 17.9971 44.0002 17.9971C44.2631 17.9971 44.5235 18.0489 44.7665 18.1496C45.0094 18.2502 45.2302 18.3977 45.4162 18.5837C45.6021 18.7696 45.7496 18.9904 45.8503 19.2333C45.9509 19.4763 46.0027 19.7367 46.0027 19.9997C46.0027 20.2626 45.9509 20.523 45.8503 20.766C45.7496 21.009 45.6021 21.2297 45.4162 21.4157L34.8282 31.9997L45.4162 42.5837C45.6021 42.7696 45.7496 42.9904 45.8503 43.2333C45.9509 43.4763 46.0027 43.7367 46.0027 43.9997C46.0027 44.2626 45.9509 44.523 45.8503 44.766C45.7496 45.009 45.6021 45.2297 45.4162 45.4157C45.2302 45.6016 45.0094 45.7491 44.7665 45.8498C44.5235 45.9504 44.2631 46.0022 44.0002 46.0022C43.7372 46.0022 43.4768 45.9504 43.2338 45.8498C42.9909 45.7491 42.7701 45.6016 42.5842 45.4157L32.0002 34.8277L21.4162 45.4157C21.2302 45.6016 21.0094 45.7491 20.7665 45.8498C20.5235 45.9504 20.2631 46.0022 20.0002 46.0022C19.7372 46.0022 19.4768 45.9504 19.2338 45.8498C18.9909 45.7491 18.7701 45.6016 18.5842 45.4157C18.3982 45.2297 18.2507 45.009 18.1501 44.766C18.0494 44.523 17.9976 44.2626 17.9976 43.9997C17.9976 43.7367 18.0494 43.4763 18.1501 43.2333C18.2507 42.9904 18.3982 42.7696 18.5842 42.5837L29.1722 31.9997L18.5842 21.4157C18.3979 21.2299 18.2501 21.0092 18.1493 20.7662C18.0485 20.5232 17.9966 20.2627 17.9966 19.9997C17.9966 19.7366 18.0485 19.4761 18.1493 19.2331C18.2501 18.9902 18.3979 18.7695 18.5842 18.5837Z" fill="#212529"/>
</svg>
