<svg width="64" height="64" viewBox="0 0 64 64" fill="none" xmlns="http://www.w3.org/2000/svg">
<path d="M16 39.9995C16 38.9387 16.4214 37.9212 17.1716 37.1711C17.9217 36.4209 18.9391 35.9995 20 35.9995C21.0609 35.9995 22.0783 36.4209 22.8284 37.1711C23.5786 37.9212 24 38.9387 24 39.9995V47.9995C24 49.0604 23.5786 50.0778 22.8284 50.8279C22.0783 51.5781 21.0609 51.9995 20 51.9995C18.9391 51.9995 17.9217 51.5781 17.1716 50.8279C16.4214 50.0778 16 49.0604 16 47.9995V39.9995ZM28 39.9995C28 38.9387 28.4214 37.9212 29.1716 37.1711C29.9217 36.4209 30.9391 35.9995 32 35.9995C33.0609 35.9995 34.0783 36.4209 34.8284 37.1711C35.5786 37.9212 36 38.9387 36 39.9995V47.9995C36 49.0604 35.5786 50.0778 34.8284 50.8279C34.0783 51.5781 33.0609 51.9995 32 51.9995C30.9391 51.9995 29.9217 51.5781 29.1716 50.8279C28.4214 50.0778 28 49.0604 28 47.9995V39.9995ZM40 39.9995C40 38.9387 40.4214 37.9212 41.1716 37.1711C41.9217 36.4209 42.9391 35.9995 44 35.9995C45.0609 35.9995 46.0783 36.4209 46.8284 37.1711C47.5786 37.9212 48 38.9387 48 39.9995V47.9995C48 49.0604 47.5786 50.0778 46.8284 50.8279C46.0783 51.5781 45.0609 51.9995 44 51.9995C42.9391 51.9995 41.9217 51.5781 41.1716 50.8279C40.4214 50.0778 40 49.0604 40 47.9995V39.9995Z" fill="white"/>
<path d="M23.028 4.28352C23.2534 4.41848 23.45 4.59653 23.6065 4.80748C23.7631 5.01844 23.8766 5.25818 23.9404 5.51299C24.0043 5.76781 24.0174 6.03272 23.9789 6.29258C23.9404 6.55245 23.851 6.80218 23.716 7.02752L13.532 23.9995H50.468L40.28 7.02752C40.0074 6.57241 39.9267 6.02763 40.0557 5.51303C40.1847 4.99843 40.5129 4.55616 40.968 4.28352C41.4231 4.01087 41.9679 3.93019 42.4825 4.05922C42.9971 4.18824 43.4394 4.51641 43.712 4.97152L55.132 23.9995H62C62.5304 23.9995 63.0391 24.2102 63.4142 24.5853C63.7893 24.9604 64 25.4691 64 25.9995V29.9995C64 30.53 63.7893 31.0387 63.4142 31.4137C63.0391 31.7888 62.5304 31.9995 62 31.9995H59.508L52.132 57.8235C51.9528 58.451 51.5738 59.0029 51.0527 59.3955C50.5315 59.7882 49.8965 60.0003 49.244 59.9995H14.76C14.1075 60.0003 13.4725 59.7882 12.9513 59.3955C12.4302 59.0029 12.0512 58.451 11.872 57.8235L4.492 31.9995H2C1.46957 31.9995 0.960859 31.7888 0.585786 31.4137C0.210714 31.0387 0 30.53 0 29.9995V25.9995C0 25.4691 0.210714 24.9604 0.585786 24.5853C0.960859 24.2102 1.46957 23.9995 2 23.9995H8.868L20.28 4.97152C20.415 4.74613 20.593 4.54955 20.804 4.39299C21.0149 4.23643 21.2547 4.12296 21.5095 4.05907C21.7643 3.99518 22.0292 3.98212 22.2891 4.02063C22.5489 4.05914 22.8027 4.14847 23.028 4.28352ZM8.652 31.9995L15.508 55.9995H48.492L55.348 31.9995H8.652Z" fill="white"/>
</svg>
