<svg width="64" height="64" viewBox="0 0 64 64" fill="none" xmlns="http://www.w3.org/2000/svg">
<g clip-path="url(#clip0_355_6766)">
<path d="M32.392 20.0518C32.4804 20.0129 32.5771 19.9969 32.6733 20.0051C32.7695 20.0134 32.8621 20.0457 32.9425 20.099C33.023 20.1524 33.0887 20.2251 33.1337 20.3105C33.1787 20.396 33.2015 20.4913 33.2 20.5878V25.1998C33.2 25.7303 33.4108 26.239 33.7858 26.6141C34.1609 26.9891 34.6696 27.1998 35.2 27.1998C37.868 27.1998 43.252 27.2198 48.4 30.4878C52.336 32.9838 56.36 37.5278 58.78 45.9918C54.7 42.0598 50.04 39.9278 45.96 38.7958C43.4522 38.1032 40.8749 37.6926 38.276 37.5718C37.2122 37.5251 36.1467 37.5358 35.084 37.6038H35.032L35.012 37.6078H35.008L35.2 39.5998L35 37.6078C34.5064 37.6575 34.0488 37.8888 33.7161 38.2569C33.3835 38.625 33.1995 39.1037 33.2 39.5998V44.2118C33.2 44.6438 32.76 44.9158 32.392 44.7478L16.456 33.0158C16.402 32.9757 16.3459 32.9383 16.288 32.9038C16.2011 32.8516 16.1291 32.7777 16.0791 32.6894C16.0292 32.6011 16.0029 32.5013 16.0029 32.3998C16.0029 32.2984 16.0292 32.1986 16.0791 32.1103C16.1291 32.022 16.2011 31.9481 16.288 31.8958C16.3459 31.8614 16.402 31.824 16.456 31.7838L32.392 20.0518ZM37.2 41.5438C37.472 41.5438 37.772 41.5558 38.092 41.5678C39.828 41.6478 42.228 41.9118 44.892 42.6518C50.196 44.1238 56.476 47.4598 60.652 54.9718C60.8779 55.3773 61.2377 55.6917 61.6699 55.8609C62.102 56.0302 62.5796 56.0439 63.0208 55.8997C63.4619 55.7555 63.8392 55.4623 64.0879 55.0705C64.3367 54.6786 64.4413 54.2124 64.384 53.7518C62.528 38.9118 56.84 31.1038 50.544 27.1118C45.564 23.9518 40.436 23.3438 37.2 23.2278V20.5878C37.2004 19.7641 36.9784 18.9556 36.5575 18.2475C36.1366 17.5394 35.5324 16.9581 34.8086 16.5649C34.0848 16.1716 33.2682 15.9811 32.4451 16.0133C31.6221 16.0455 30.8229 16.2993 30.132 16.7478L14.156 28.5078C13.4956 28.9201 12.9509 29.4937 12.5732 30.1746C12.1956 30.8555 11.9975 31.6212 11.9975 32.3998C11.9975 33.1784 12.1956 33.9442 12.5732 34.6251C12.9509 35.306 13.4956 35.8796 14.156 36.2918L30.132 48.0518C30.8229 48.5004 31.6221 48.7542 32.4451 48.7864C33.2682 48.8186 34.0848 48.628 34.8086 48.2348C35.5324 47.8416 36.1366 47.2602 36.5575 46.5522C36.9784 45.8441 37.2004 45.0356 37.2 44.2118V41.5438Z" fill="#212529"/>
<path d="M20.928 17.1718C20.7722 16.9599 20.5762 16.7807 20.351 16.6447C20.1259 16.5086 19.8761 16.4183 19.616 16.3789C19.3559 16.3395 19.0906 16.3519 18.8353 16.4152C18.58 16.4785 18.3396 16.5915 18.128 16.7478L2.16005 28.5078C1.49957 28.9201 0.954869 29.4937 0.577238 30.1746C0.199607 30.8555 0.00146484 31.6212 0.00146484 32.3998C0.00146484 33.1784 0.199607 33.9442 0.577238 34.6251C0.954869 35.306 1.49957 35.8796 2.16005 36.2918L18.136 48.0518C18.3471 48.2132 18.5882 48.331 18.8452 48.3982C19.1022 48.4654 19.3701 48.4807 19.6331 48.4433C19.8961 48.4058 20.1491 48.3163 20.3771 48.18C20.6052 48.0437 20.8038 47.8634 20.9614 47.6494C21.119 47.4355 21.2323 47.1924 21.2949 46.9342C21.3574 46.6759 21.3679 46.4079 21.3257 46.1455C21.2835 45.8832 21.1895 45.632 21.0491 45.4064C20.9087 45.1809 20.7248 44.9855 20.508 44.8318L4.45605 33.0158C4.40195 32.9757 4.34588 32.9383 4.28805 32.9038C4.20107 32.8516 4.1291 32.7777 4.07914 32.6894C4.02917 32.6011 4.00291 32.5013 4.00291 32.3998C4.00291 32.2984 4.02917 32.1986 4.07914 32.1103C4.1291 32.022 4.20107 31.9481 4.28805 31.8958C4.3459 31.8614 4.40197 31.824 4.45605 31.7838L20.504 19.9678C20.931 19.6532 21.2155 19.182 21.295 18.6576C21.3745 18.1333 21.2425 17.5989 20.928 17.1718Z" fill="#212529"/>
</g>
<defs>
<clipPath id="clip0_355_6766">
<rect width="64" height="64" fill="white"/>
</clipPath>
</defs>
</svg>
