<svg width="64" height="64" viewBox="0 0 64 64" fill="none" xmlns="http://www.w3.org/2000/svg">
<g clip-path="url(#clip0_355_6707)">
<path d="M8 0C5.87827 0 3.84344 0.842855 2.34315 2.34315C0.842855 3.84344 0 5.87827 0 8L0 56C0 58.1217 0.842855 60.1566 2.34315 61.6569C3.84344 63.1571 5.87827 64 8 64H56C58.1217 64 60.1566 63.1571 61.6569 61.6569C63.1571 60.1566 64 58.1217 64 56V8C64 5.87827 63.1571 3.84344 61.6569 2.34315C60.1566 0.842855 58.1217 0 56 0L8 0ZM21.984 24.132C21.8551 24.1337 21.7271 24.1092 21.608 24.0598C21.4889 24.0104 21.3811 23.9372 21.2913 23.8447C21.2014 23.7522 21.1313 23.6424 21.0854 23.5219C21.0394 23.4014 21.0185 23.2728 21.024 23.144C21.4 16.364 26.948 14 32.02 14C37.604 14 42.708 16.92 42.708 22.96C42.708 27.28 40.168 29.336 37.732 31.188C34.784 33.424 33.692 34.26 33.692 37.132V37.552C33.692 37.8172 33.5866 38.0716 33.3991 38.2591C33.2116 38.4466 32.9572 38.552 32.692 38.552H29.452C29.1895 38.552 28.9376 38.4489 28.7505 38.2648C28.5634 38.0807 28.4562 37.8304 28.452 37.568L28.436 36.7C28.284 32.992 30.416 30.708 33.108 28.752C35.468 26.976 36.968 25.808 36.968 23.268C36.968 19.968 34.456 18.596 31.712 18.596C28.5 18.596 26.7 20.508 26.344 23.132C26.272 23.68 25.832 24.132 25.28 24.132H21.98H21.984ZM31.284 49.904C28.948 49.904 27.248 48.328 27.248 46.196C27.248 43.988 28.948 42.436 31.288 42.436C33.724 42.436 35.4 43.988 35.4 46.196C35.4 48.328 33.72 49.904 31.284 49.904Z" fill="#212529"/>
</g>
<defs>
<clipPath id="clip0_355_6707">
<rect width="64" height="64" fill="white"/>
</clipPath>
</defs>
</svg>
