<svg width="64" height="64" viewBox="0 0 64 64" fill="none" xmlns="http://www.w3.org/2000/svg">
<g clip-path="url(#clip0_348_6656)">
<path d="M8 0C5.87827 0 3.84344 0.842855 2.34315 2.34315C0.842855 3.84344 0 5.87827 0 8L0 56C0 58.1217 0.842855 60.1566 2.34315 61.6569C3.84344 63.1571 5.87827 64 8 64H56C58.1217 64 60.1566 63.1571 61.6569 61.6569C63.1571 60.1566 64 58.1217 64 56V8C64 5.87827 63.1571 3.84344 61.6569 2.34315C60.1566 0.842855 58.1217 0 56 0L8 0ZM48.12 19.88C48.6756 20.435 48.9914 21.1857 48.9996 21.971C49.0079 22.7563 48.7078 23.5135 48.164 24.08L32.196 44.04C31.9216 44.3356 31.5903 44.5728 31.2221 44.7375C30.8539 44.9021 30.4563 44.9908 30.053 44.9983C29.6497 45.0058 29.2491 44.9318 28.875 44.7809C28.501 44.63 28.1612 44.4052 27.876 44.12L17.296 33.536C17.0013 33.2614 16.7648 32.9301 16.6009 32.5622C16.4369 32.1942 16.3487 31.7969 16.3416 31.3941C16.3345 30.9913 16.4086 30.5912 16.5595 30.2176C16.7104 29.8441 16.935 29.5047 17.2198 29.2198C17.5047 28.935 17.8441 28.7104 18.2176 28.5595C18.5912 28.4086 18.9913 28.3345 19.3941 28.3416C19.7969 28.3487 20.1942 28.4369 20.5622 28.6009C20.9302 28.7648 21.2614 29.0013 21.536 29.296L29.912 37.668L43.804 19.968C44.0779 19.6719 44.4087 19.434 44.7766 19.2687C45.1445 19.1033 45.542 19.0139 45.9453 19.0056C46.3486 18.9974 46.7494 19.0706 47.1237 19.2209C47.4981 19.3711 47.8383 19.5953 48.124 19.88H48.12Z" fill="#212529"/>
</g>
<defs>
<clipPath id="clip0_348_6656">
<rect width="64" height="64" fill="white"/>
</clipPath>
</defs>
</svg>
