<svg width="64" height="64" viewBox="0 0 64 64" fill="none" xmlns="http://www.w3.org/2000/svg">
<g clip-path="url(#clip0_355_6743)">
<path d="M37.62 4.2C35.968 -1.4 28.032 -1.4 26.38 4.2L25.98 5.56C25.7332 6.39838 25.3018 7.17088 24.7176 7.82085C24.1333 8.47082 23.411 8.98178 22.6036 9.31626C21.7962 9.65073 20.9241 9.80024 20.0514 9.75383C19.1787 9.70741 18.3274 9.46624 17.56 9.048L16.32 8.368C11.188 5.576 5.576 11.188 8.372 16.316L9.048 17.56C10.832 20.84 9.14 24.924 5.56 25.98L4.2 26.38C-1.4 28.032 -1.4 35.968 4.2 37.62L5.56 38.02C6.39838 38.2668 7.17088 38.6982 7.82085 39.2824C8.47082 39.8667 8.98178 40.589 9.31626 41.3964C9.65073 42.2038 9.80024 43.0759 9.75383 43.9486C9.70741 44.8213 9.46624 45.6726 9.048 46.44L8.368 47.68C5.576 52.812 11.188 58.424 16.316 55.628L17.56 54.952C18.3274 54.5338 19.1787 54.2926 20.0514 54.2462C20.9241 54.1998 21.7962 54.3493 22.6036 54.6837C23.411 55.0182 24.1333 55.5292 24.7176 56.1791C25.3018 56.8291 25.7332 57.6016 25.98 58.44L26.38 59.8C28.032 65.4 35.968 65.4 37.62 59.8L38.02 58.44C38.2668 57.6016 38.6982 56.8291 39.2824 56.1791C39.8667 55.5292 40.589 55.0182 41.3964 54.6837C42.2038 54.3493 43.0759 54.1998 43.9486 54.2462C44.8213 54.2926 45.6726 54.5338 46.44 54.952L47.68 55.632C52.812 58.424 58.424 52.812 55.628 47.684L54.952 46.44C54.5338 45.6726 54.2926 44.8213 54.2462 43.9486C54.1998 43.0759 54.3493 42.2038 54.6837 41.3964C55.0182 40.589 55.5292 39.8667 56.1791 39.2824C56.8291 38.6982 57.6016 38.2668 58.44 38.02L59.8 37.62C65.4 35.968 65.4 28.032 59.8 26.38L58.44 25.98C57.6016 25.7332 56.8291 25.3018 56.1791 24.7176C55.5292 24.1333 55.0182 23.411 54.6837 22.6036C54.3493 21.7962 54.1998 20.9241 54.2462 20.0514C54.2926 19.1787 54.5338 18.3274 54.952 17.56L55.632 16.32C58.424 11.188 52.812 5.576 47.684 8.372L46.44 9.048C45.6726 9.46624 44.8213 9.70741 43.9486 9.75383C43.0759 9.80024 42.2038 9.65073 41.3964 9.31626C40.589 8.98178 39.8667 8.47082 39.2824 7.82085C38.6982 7.17088 38.2668 6.39838 38.02 5.56L37.62 4.2ZM32 43.72C28.8917 43.72 25.9106 42.4852 23.7127 40.2873C21.5148 38.0894 20.28 35.1083 20.28 32C20.28 28.8917 21.5148 25.9106 23.7127 23.7127C25.9106 21.5148 28.8917 20.28 32 20.28C35.1073 20.28 38.0873 21.5144 40.2845 23.7115C42.4816 25.9087 43.716 28.8887 43.716 31.996C43.716 35.1033 42.4816 38.0833 40.2845 40.2805C38.0873 42.4776 35.1073 43.712 32 43.712V43.72Z" fill="#212529"/>
</g>
<defs>
<clipPath id="clip0_355_6743">
<rect width="64" height="64" fill="white"/>
</clipPath>
</defs>
</svg>
