<svg width="64" height="64" viewBox="0 0 64 64" fill="none" xmlns="http://www.w3.org/2000/svg">
<path d="M52 10C52 8.4087 52.6321 6.88258 53.7574 5.75736C54.8826 4.63214 56.4087 4 58 4C59.5913 4 61.1174 4.63214 62.2426 5.75736C63.3679 6.88258 64 8.4087 64 10V54C64 55.5913 63.3679 57.1174 62.2426 58.2426C61.1174 59.3679 59.5913 60 58 60C56.4087 60 54.8826 59.3679 53.7574 58.2426C52.6321 57.1174 52 55.5913 52 54V10ZM48 12.896C39.732 16.696 29.844 18.82 20 19.52V44.468C21.4529 44.5499 22.904 44.6633 24.352 44.808C32.564 45.624 40.504 47.48 48 51.048V12.896ZM16 44.26V19.736C13.28 19.844 10.404 19.908 7.968 19.948C5.84936 19.9774 3.82703 20.8378 2.33665 22.3438C0.846279 23.8499 0.00713913 25.8812 0 28L0 36C0 40.424 3.584 43.984 7.976 44.036C8.63737 44.0443 9.29871 44.0549 9.96 44.068C11.974 44.1082 13.9875 44.1722 16 44.26ZM21.56 48.584C22.7 48.668 23.836 48.772 24.96 48.896L25.972 55.656C26.0821 56.2345 26.0632 56.8302 25.9164 57.4005C25.7697 57.9708 25.4989 58.5017 25.1233 58.9553C24.7477 59.4088 24.2766 59.7739 23.7436 60.0243C23.2106 60.2747 22.6289 60.4044 22.04 60.404H19.848C19.0705 60.4039 18.3098 60.1773 17.6591 59.7518C17.0084 59.3262 16.4958 58.7203 16.184 58.008L10.928 48.088C13.185 48.1443 15.4412 48.2296 17.696 48.344C19.004 48.412 20.296 48.492 21.56 48.584Z" fill="#212529"/>
</svg>
