<svg width="64" height="64" viewBox="0 0 64 64" fill="none" xmlns="http://www.w3.org/2000/svg">
<g clip-path="url(#clip0_355_6802)">
<path d="M56 4C57.0609 4 58.0783 4.42143 58.8284 5.17157C59.5786 5.92172 60 6.93913 60 8V56C60 57.0609 59.5786 58.0783 58.8284 58.8284C58.0783 59.5786 57.0609 60 56 60H8C6.93913 60 5.92172 59.5786 5.17157 58.8284C4.42143 58.0783 4 57.0609 4 56V8C4 6.93913 4.42143 5.92172 5.17157 5.17157C5.92172 4.42143 6.93913 4 8 4H56ZM8 0C5.87827 0 3.84344 0.842855 2.34315 2.34315C0.842855 3.84344 0 5.87827 0 8V56C0 58.1217 0.842855 60.1566 2.34315 61.6569C3.84344 63.1571 5.87827 64 8 64H56C58.1217 64 60.1566 63.1571 61.6569 61.6569C63.1571 60.1566 64 58.1217 64 56V8C64 5.87827 63.1571 3.84344 61.6569 2.34315C60.1566 0.842855 58.1217 0 56 0H8Z" fill="#212529"/>
<path d="M22 48C22 49.5913 21.3679 51.1174 20.2426 52.2426C19.1174 53.3679 17.5913 54 16 54C14.4087 54 12.8826 53.3679 11.7574 52.2426C10.6321 51.1174 10 49.5913 10 48C10 46.4087 10.6321 44.8826 11.7574 43.7574C12.8826 42.6321 14.4087 42 16 42C17.5913 42 19.1174 42.6321 20.2426 43.7574C21.3679 44.8826 22 46.4087 22 48ZM10 14C10 12.9391 10.4214 11.9217 11.1716 11.1716C11.9217 10.4214 12.9391 10 14 10C36.092 10 54 27.908 54 50C54 51.0609 53.5786 52.0783 52.8284 52.8284C52.0783 53.5786 51.0609 54 50 54C48.9391 54 47.9217 53.5786 47.1716 52.8284C46.4214 52.0783 46 51.0609 46 50C46 41.5131 42.6286 33.3737 36.6274 27.3726C30.6263 21.3714 22.4869 18 14 18C12.9391 18 11.9217 17.5786 11.1716 16.8284C10.4214 16.0783 10 15.0609 10 14ZM10 30C10 28.9391 10.4214 27.9217 11.1716 27.1716C11.9217 26.4214 12.9391 26 14 26C20.3652 26 26.4697 28.5286 30.9706 33.0294C35.4714 37.5303 38 43.6348 38 50C38 51.0609 37.5786 52.0783 36.8284 52.8284C36.0783 53.5786 35.0609 54 34 54C32.9391 54 31.9217 53.5786 31.1716 52.8284C30.4214 52.0783 30 51.0609 30 50C30 45.7565 28.3143 41.6869 25.3137 38.6863C22.3131 35.6857 18.2435 34 14 34C12.9391 34 11.9217 33.5786 11.1716 32.8284C10.4214 32.0783 10 31.0609 10 30Z" fill="#212529"/>
</g>
<defs>
<clipPath id="clip0_355_6802">
<rect width="64" height="64" fill="white"/>
</clipPath>
</defs>
</svg>
