<svg width="64" height="64" viewBox="0 0 64 64" fill="none" xmlns="http://www.w3.org/2000/svg">
<path d="M20 32C20 33.0609 19.5786 34.0783 18.8284 34.8284C18.0783 35.5786 17.0609 36 16 36C14.9391 36 13.9217 35.5786 13.1716 34.8284C12.4214 34.0783 12 33.0609 12 32C12 30.9391 12.4214 29.9217 13.1716 29.1716C13.9217 28.4214 14.9391 28 16 28C17.0609 28 18.0783 28.4214 18.8284 29.1716C19.5786 29.9217 20 30.9391 20 32ZM36 32C36 33.0609 35.5786 34.0783 34.8284 34.8284C34.0783 35.5786 33.0609 36 32 36C30.9391 36 29.9217 35.5786 29.1716 34.8284C28.4214 34.0783 28 33.0609 28 32C28 30.9391 28.4214 29.9217 29.1716 29.1716C29.9217 28.4214 30.9391 28 32 28C33.0609 28 34.0783 28.4214 34.8284 29.1716C35.5786 29.9217 36 30.9391 36 32ZM48 36C49.0609 36 50.0783 35.5786 50.8284 34.8284C51.5786 34.0783 52 33.0609 52 32C52 30.9391 51.5786 29.9217 50.8284 29.1716C50.0783 28.4214 49.0609 28 48 28C46.9391 28 45.9217 28.4214 45.1716 29.1716C44.4214 29.9217 44 30.9391 44 32C44 33.0609 44.4214 34.0783 45.1716 34.8284C45.9217 35.5786 46.9391 36 48 36Z" fill="#212529"/>
<path d="M8.66 63.212L8.74 63.196C16.06 61.744 20.532 59.828 22.612 58.776C25.6743 59.5928 28.8306 60.0043 32 60C49.672 60 64 47.464 64 32C64 16.536 49.672 4 32 4C14.328 4 0 16.536 0 32C0 39.04 2.972 45.48 7.88 50.4C7.53663 53.5604 6.83341 56.6712 5.784 59.672L5.772 59.716C5.47377 60.5755 5.14827 61.4252 4.796 62.264C4.48 63.008 5.092 63.84 5.888 63.712C6.81465 63.5604 7.73877 63.3937 8.66 63.212ZM11.86 50.78C11.916 50.1944 11.8422 49.6036 11.6438 49.0498C11.4453 48.496 11.1272 47.9928 10.712 47.576C6.472 43.32 4 37.872 4 32C4 19.232 16.016 8 32 8C47.984 8 60 19.232 60 32C60 44.772 47.984 56 32 56C29.1804 56.0041 26.3724 55.6383 23.648 54.912C22.6959 54.6569 21.6832 54.7623 20.804 55.208C19.256 55.992 15.844 57.488 10.268 58.78C11.0459 56.1685 11.5789 53.4903 11.86 50.78Z" fill="#212529"/>
</svg>
