<svg width="64" height="64" viewBox="0 0 64 64" fill="none" xmlns="http://www.w3.org/2000/svg">
<g clip-path="url(#clip0_355_6735)">
<path d="M32 60C24.5739 60 17.452 57.05 12.201 51.799C6.94999 46.548 4 39.4261 4 32C4 24.5739 6.94999 17.452 12.201 12.201C17.452 6.94999 24.5739 4 32 4C39.4261 4 46.548 6.94999 51.799 12.201C57.05 17.452 60 24.5739 60 32C60 39.4261 57.05 46.548 51.799 51.799C46.548 57.05 39.4261 60 32 60ZM32 64C40.4869 64 48.6263 60.6286 54.6274 54.6274C60.6286 48.6263 64 40.4869 64 32C64 23.5131 60.6286 15.3737 54.6274 9.37258C48.6263 3.37142 40.4869 0 32 0C23.5131 0 15.3737 3.37142 9.37258 9.37258C3.37142 15.3737 0 23.5131 0 32C0 40.4869 3.37142 48.6263 9.37258 54.6274C15.3737 60.6286 23.5131 64 32 64Z" fill="#212529"/>
<path d="M35.72 26.352L26.56 27.5L26.232 29.02L28.032 29.352C29.208 29.632 29.44 30.056 29.184 31.228L26.232 45.1C25.456 48.688 26.652 50.376 29.464 50.376C31.644 50.376 34.176 49.368 35.324 47.984L35.676 46.32C34.876 47.024 33.708 47.304 32.932 47.304C31.832 47.304 31.432 46.532 31.716 45.172L35.72 26.352ZM36 18C36 19.0609 35.5786 20.0783 34.8284 20.8284C34.0783 21.5786 33.0609 22 32 22C30.9391 22 29.9217 21.5786 29.1716 20.8284C28.4214 20.0783 28 19.0609 28 18C28 16.9391 28.4214 15.9217 29.1716 15.1716C29.9217 14.4214 30.9391 14 32 14C33.0609 14 34.0783 14.4214 34.8284 15.1716C35.5786 15.9217 36 16.9391 36 18Z" fill="#212529"/>
</g>
<defs>
<clipPath id="clip0_355_6735">
<rect width="64" height="64" fill="white"/>
</clipPath>
</defs>
</svg>
