<svg width="64" height="64" viewBox="0 0 64 64" fill="none" xmlns="http://www.w3.org/2000/svg">
<g clip-path="url(#clip0_348_6699)">
<path d="M27.8001 1.74C30.1201 -0.58 33.8801 -0.58 36.2001 1.74L62.2601 27.804C64.5801 30.124 64.5801 33.88 62.2601 36.196L36.2001 62.26C33.8801 64.58 30.1241 64.58 27.8081 62.26L1.74006 36.2C1.18831 35.6494 0.750577 34.9953 0.451911 34.2753C0.153245 33.5553 -0.000488281 32.7835 -0.000488281 32.004C-0.000488281 31.2245 0.153245 30.4527 0.451911 29.7327C0.750577 29.0127 1.18831 28.3586 1.74006 27.808L27.8001 1.74ZM33.4001 4.54C33.0287 4.16872 32.5252 3.96014 32.0001 3.96014C31.475 3.96014 30.9714 4.16872 30.6001 4.54L4.53606 30.6C4.16478 30.9713 3.9562 31.4749 3.9562 32C3.9562 32.5251 4.16478 33.0287 4.53606 33.4L30.6001 59.464C30.9714 59.8353 31.475 60.0439 32.0001 60.0439C32.5252 60.0439 33.0287 59.8353 33.4001 59.464L59.4641 33.4C59.8353 33.0287 60.0439 32.5251 60.0439 32C60.0439 31.4749 59.8353 30.9713 59.4641 30.6L33.4001 4.536V4.54Z" fill="#212529"/>
<path d="M28.0081 44C28.0081 43.4747 28.1115 42.9546 28.3125 42.4693C28.5136 41.984 28.8082 41.543 29.1796 41.1716C29.5511 40.8001 29.992 40.5055 30.4773 40.3045C30.9626 40.1035 31.4828 40 32.0081 40C32.5333 40 33.0535 40.1035 33.5388 40.3045C34.0241 40.5055 34.465 40.8001 34.8365 41.1716C35.2079 41.543 35.5026 41.984 35.7036 42.4693C35.9046 42.9546 36.0081 43.4747 36.0081 44C36.0081 45.0609 35.5866 46.0783 34.8365 46.8284C34.0863 47.5786 33.0689 48 32.0081 48C30.9472 48 29.9298 47.5786 29.1796 46.8284C28.4295 46.0783 28.0081 45.0609 28.0081 44ZM28.4001 19.98C28.3468 19.4754 28.4002 18.9652 28.5569 18.4825C28.7135 17.9999 28.9699 17.5555 29.3093 17.1783C29.6488 16.8012 30.0638 16.4996 30.5273 16.2931C30.9908 16.0867 31.4926 15.98 32.0001 15.98C32.5075 15.98 33.0093 16.0867 33.4728 16.2931C33.9364 16.4996 34.3513 16.8012 34.6908 17.1783C35.0302 17.5555 35.2866 17.9999 35.4433 18.4825C35.5999 18.9652 35.6533 19.4754 35.6001 19.98L34.2001 34.008C34.153 34.5591 33.9009 35.0724 33.4935 35.4465C33.0861 35.8206 32.5531 36.0282 32.0001 36.0282C31.447 36.0282 30.914 35.8206 30.5066 35.4465C30.0992 35.0724 29.8471 34.5591 29.8001 34.008L28.4001 19.98Z" fill="#212529"/>
</g>
<defs>
<clipPath id="clip0_348_6699">
<rect width="64" height="64" fill="white"/>
</clipPath>
</defs>
</svg>
