<svg width="64" height="64" viewBox="0 0 64 64" fill="none" xmlns="http://www.w3.org/2000/svg">
<g clip-path="url(#clip0_355_6808)">
<path d="M32 60C24.5739 60 17.452 57.05 12.201 51.799C6.94999 46.548 4 39.4261 4 32C4 24.5739 6.94999 17.452 12.201 12.201C17.452 6.94999 24.5739 4 32 4C39.4261 4 46.548 6.94999 51.799 12.201C57.05 17.452 60 24.5739 60 32C60 39.4261 57.05 46.548 51.799 51.799C46.548 57.05 39.4261 60 32 60ZM32 64C40.4869 64 48.6263 60.6286 54.6274 54.6274C60.6286 48.6263 64 40.4869 64 32C64 23.5131 60.6286 15.3737 54.6274 9.37258C48.6263 3.37142 40.4869 0 32 0C23.5131 0 15.3737 3.37142 9.37258 9.37258C3.37142 15.3737 0 23.5131 0 32C0 40.4869 3.37142 48.6263 9.37258 54.6274C15.3737 60.6286 23.5131 64 32 64Z" fill="#212529"/>
<path d="M25.084 20.22C25.4111 20.0515 25.7784 19.9766 26.1454 20.0034C26.5124 20.0302 26.8648 20.1578 27.164 20.372L41.164 30.372C41.4233 30.557 41.6346 30.8013 41.7804 31.0844C41.9262 31.3676 42.0023 31.6815 42.0023 32C42.0023 32.3185 41.9262 32.6324 41.7804 32.9156C41.6346 33.1987 41.4233 33.443 41.164 33.628L27.164 43.628C26.8649 43.842 26.5126 43.9695 26.1458 43.9963C25.7791 44.0231 25.412 43.9483 25.0849 43.78C24.7579 43.6117 24.4836 43.3566 24.2922 43.0425C24.1008 42.7285 23.9997 42.3678 24 42V22C23.9996 21.6323 24.1006 21.2717 24.2918 20.9576C24.4831 20.6436 24.7572 20.3884 25.084 20.22Z" fill="#212529"/>
</g>
<defs>
<clipPath id="clip0_355_6808">
<rect width="64" height="64" fill="white"/>
</clipPath>
</defs>
</svg>
