<svg width="64" height="64" viewBox="0 0 64 64" fill="none" xmlns="http://www.w3.org/2000/svg">
<g clip-path="url(#clip0_355_6764)">
<path d="M32.0841 47.6002L13.8121 34.4802C13.3818 34.2259 13.0251 33.8638 12.7773 33.4296C12.5296 32.9954 12.3993 32.5042 12.3993 32.0042C12.3993 31.5043 12.5296 31.0131 12.7773 30.5789C13.0251 30.1447 13.3818 29.7826 13.8121 29.5282L32.0841 16.4002C32.5197 16.1441 33.0153 16.0077 33.5206 16.0049C34.0259 16.0022 34.523 16.1332 34.9613 16.3846C35.3996 16.6361 35.7636 16.9991 36.0163 17.4367C36.269 17.8743 36.4014 18.3709 36.4001 18.8762V24.0002C42.4001 24.0002 60.4001 24.0002 64.4001 56.0002C54.4001 38.0002 36.4001 40.0002 36.4001 40.0002V45.1242C36.4001 47.3642 33.9761 48.7162 32.0841 47.6042V47.6002Z" fill="#212529"/>
<path d="M20.9281 17.1722C21.0845 17.3838 21.1975 17.6242 21.2608 17.8795C21.3241 18.1348 21.3364 18.4001 21.2971 18.6602C21.2577 18.9203 21.1674 19.1701 21.0313 19.3952C20.8952 19.6204 20.7161 19.8164 20.5041 19.9722L4.45614 31.7802C4.40206 31.8204 4.34599 31.8578 4.28814 31.8922C4.20116 31.9445 4.12919 32.0184 4.07923 32.1067C4.02926 32.195 4.00301 32.2948 4.00301 32.3962C4.00301 32.4977 4.02926 32.5975 4.07923 32.6858C4.12919 32.7741 4.20116 32.848 4.28814 32.9002C4.34598 32.9347 4.40205 32.9721 4.45614 33.0122L20.5041 44.8282C20.7209 44.9819 20.9048 45.1773 21.0452 45.4028C21.1856 45.6284 21.2796 45.8797 21.3218 46.142C21.364 46.4043 21.3535 46.6724 21.291 46.9306C21.2284 47.1888 21.1151 47.4319 20.9575 47.6459C20.7999 47.8598 20.6013 48.0401 20.3732 48.1764C20.1452 48.3127 19.8922 48.4022 19.6292 48.4397C19.3662 48.4771 19.0983 48.4618 18.8413 48.3946C18.5842 48.3274 18.3432 48.2097 18.1321 48.0482L2.15614 36.2922C1.49566 35.88 0.950963 35.3064 0.573332 34.6255C0.195701 33.9446 -0.00244141 33.1788 -0.00244141 32.4002C-0.00244141 31.6217 0.195701 30.8559 0.573332 30.175C0.950963 29.4941 1.49566 28.9205 2.15614 28.5082L18.1321 16.7482C18.5592 16.4338 19.0936 16.3018 19.6179 16.3813C20.1423 16.4608 20.6135 16.7453 20.9281 17.1722Z" fill="#212529"/>
</g>
<defs>
<clipPath id="clip0_355_6764">
<rect width="64" height="64" fill="white"/>
</clipPath>
</defs>
</svg>
