<svg width="64" height="64" viewBox="0 0 64 64" fill="none" xmlns="http://www.w3.org/2000/svg">
<g clip-path="url(#clip0_348_6644)">
<path fill-rule="evenodd" clip-rule="evenodd" d="M40 50C40 50.5304 39.7893 51.0391 39.4142 51.4142C39.0391 51.7893 38.5304 52 38 52H6C5.46957 52 4.96086 51.7893 4.58579 51.4142C4.21071 51.0391 4 50.5304 4 50V14C4 13.4696 4.21071 12.9609 4.58579 12.5858C4.96086 12.2107 5.46957 12 6 12H38C38.5304 12 39.0391 12.2107 39.4142 12.5858C39.7893 12.9609 40 13.4696 40 14V22C40 22.5304 40.2107 23.0391 40.5858 23.4142C40.9609 23.7893 41.4696 24 42 24C42.5304 24 43.0391 23.7893 43.4142 23.4142C43.7893 23.0391 44 22.5304 44 22V14C44 12.4087 43.3679 10.8826 42.2426 9.75736C41.1174 8.63214 39.5913 8 38 8H6C4.4087 8 2.88258 8.63214 1.75736 9.75736C0.632141 10.8826 0 12.4087 0 14V50C0 51.5913 0.632141 53.1174 1.75736 54.2426C2.88258 55.3679 4.4087 56 6 56H38C39.5913 56 41.1174 55.3679 42.2426 54.2426C43.3679 53.1174 44 51.5913 44 50V42C44 41.4696 43.7893 40.9609 43.4142 40.5858C43.0391 40.2107 42.5304 40 42 40C41.4696 40 40.9609 40.2107 40.5858 40.5858C40.2107 40.9609 40 41.4696 40 42V50Z" fill="#212529"/>
<path fill-rule="evenodd" clip-rule="evenodd" d="M63.416 33.416C63.6023 33.2302 63.75 33.0095 63.8508 32.7665C63.9517 32.5236 64.0036 32.2631 64.0036 32C64.0036 31.7369 63.9517 31.4764 63.8508 31.2335C63.75 30.9905 63.6023 30.7698 63.416 30.584L51.416 18.584C51.0405 18.2085 50.5311 17.9975 50 17.9975C49.4689 17.9975 48.9595 18.2085 48.584 18.584C48.2085 18.9595 47.9975 19.4689 47.9975 20C47.9975 20.5311 48.2085 21.0405 48.584 21.416L57.172 30H22C21.4696 30 20.9609 30.2107 20.5858 30.5858C20.2107 30.9609 20 31.4696 20 32C20 32.5304 20.2107 33.0391 20.5858 33.4142C20.9609 33.7893 21.4696 34 22 34H57.172L48.584 42.584C48.2085 42.9595 47.9975 43.4689 47.9975 44C47.9975 44.5311 48.2085 45.0405 48.584 45.416C48.9595 45.7915 49.4689 46.0025 50 46.0025C50.5311 46.0025 51.0405 45.7915 51.416 45.416L63.416 33.416Z" fill="#212529"/>
</g>
<defs>
<clipPath id="clip0_348_6644">
<rect width="64" height="64" fill="white"/>
</clipPath>
</defs>
</svg>
