<svg width="64" height="64" viewBox="0 0 64 64" fill="none" xmlns="http://www.w3.org/2000/svg">
<g clip-path="url(#clip0_355_6778)">
<path d="M8 0C5.87827 0 3.84344 0.842855 2.34315 2.34315C0.842855 3.84344 0 5.87827 0 8L0 56C0 58.1217 0.842855 60.1566 2.34315 61.6569C3.84344 63.1571 5.87827 64 8 64H56C58.1217 64 60.1566 63.1571 61.6569 61.6569C63.1571 60.1566 64 58.1217 64 56V8C64 5.87827 63.1571 3.84344 61.6569 2.34315C60.1566 0.842855 58.1217 0 56 0L8 0ZM21.416 18.584L32 29.172L42.584 18.584C42.77 18.398 42.9907 18.2505 43.2337 18.1499C43.4766 18.0493 43.737 17.9975 44 17.9975C44.263 17.9975 44.5234 18.0493 44.7663 18.1499C45.0093 18.2505 45.23 18.398 45.416 18.584C45.602 18.77 45.7495 18.9907 45.8501 19.2337C45.9507 19.4766 46.0025 19.737 46.0025 20C46.0025 20.263 45.9507 20.5234 45.8501 20.7663C45.7495 21.0093 45.602 21.23 45.416 21.416L34.828 32L45.416 42.584C45.602 42.77 45.7495 42.9907 45.8501 43.2337C45.9507 43.4766 46.0025 43.737 46.0025 44C46.0025 44.263 45.9507 44.5234 45.8501 44.7663C45.7495 45.0093 45.602 45.23 45.416 45.416C45.23 45.602 45.0093 45.7495 44.7663 45.8501C44.5234 45.9507 44.263 46.0025 44 46.0025C43.737 46.0025 43.4766 45.9507 43.2337 45.8501C42.9907 45.7495 42.77 45.602 42.584 45.416L32 34.828L21.416 45.416C21.23 45.602 21.0093 45.7495 20.7663 45.8501C20.5234 45.9507 20.263 46.0025 20 46.0025C19.737 46.0025 19.4766 45.9507 19.2337 45.8501C18.9907 45.7495 18.77 45.602 18.584 45.416C18.398 45.23 18.2505 45.0093 18.1499 44.7663C18.0493 44.5234 17.9975 44.263 17.9975 44C17.9975 43.737 18.0493 43.4766 18.1499 43.2337C18.2505 42.9907 18.398 42.77 18.584 42.584L29.172 32L18.584 21.416C18.2085 21.0405 17.9975 20.5311 17.9975 20C17.9975 19.4689 18.2085 18.9595 18.584 18.584C18.9595 18.2085 19.4689 17.9975 20 17.9975C20.5311 17.9975 21.0405 18.2085 21.416 18.584Z" fill="#212529"/>
</g>
<defs>
<clipPath id="clip0_355_6778">
<rect width="64" height="64" fill="white"/>
</clipPath>
</defs>
</svg>
