<svg width="64" height="64" viewBox="0 0 64 64" fill="none" xmlns="http://www.w3.org/2000/svg">
<path d="M26 58.0001V43.981C26 43.0011 27 42.0011 28 42.0011H36C37 42.0011 38 43.0011 38 44.001V58.0001C38 58.5305 38.2107 59.0392 38.5858 59.4143C38.9609 59.7893 39.4696 60 40 60H56C56.5304 60 57.0391 59.7893 57.4142 59.4143C57.7893 59.0392 58 58.5305 58 58.0001V30.0019C58.0005 29.7391 57.9491 29.4788 57.8489 29.2358C57.7487 28.9929 57.6016 28.7721 57.416 28.586L52 23.1744V10.0032C52 9.47279 51.7893 8.96412 51.4142 8.58907C51.0391 8.21402 50.5304 8.00332 50 8.00332H46C45.4696 8.00332 44.9609 8.21402 44.5858 8.58907C44.2107 8.96412 44 9.47279 44 10.0032V15.1749L33.416 4.58754C33.2302 4.4013 33.0095 4.25353 32.7665 4.15272C32.5236 4.0519 32.2631 4 32 4C31.7369 4 31.4764 4.0519 31.2335 4.15272C30.9905 4.25353 30.7698 4.4013 30.584 4.58754L6.584 28.586C6.3984 28.7721 6.25128 28.9929 6.15108 29.2358C6.05087 29.4788 5.99953 29.7391 6 30.0019V58.0001C6 58.5305 6.21072 59.0392 6.58579 59.4143C6.96086 59.7893 7.46957 60 8 60H24C24.5304 60 25.0391 59.7893 25.4142 59.4143C25.7893 59.0392 26 58.5305 26 58.0001Z" fill="#212529"/>
</svg>
