<svg width="64" height="64" viewBox="0 0 64 64" fill="none" xmlns="http://www.w3.org/2000/svg">
<g clip-path="url(#clip0_510_1393)">
<path d="M32 63.9996C34.1217 63.9996 36.1566 63.1567 37.6569 61.6564C39.1571 60.1562 40 58.1213 40 55.9996H24C24 58.1213 24.8429 60.1562 26.3431 61.6564C27.8434 63.1567 29.8783 63.9996 32 63.9996ZM35.98 4.39559C36.0358 3.83941 35.9745 3.2777 35.7999 2.74669C35.6253 2.21567 35.3413 1.72715 34.9663 1.31263C34.5913 0.898099 34.1336 0.566772 33.6227 0.340012C33.1118 0.113252 32.559 -0.00390625 32 -0.00390625C31.441 -0.00390625 30.8882 0.113252 30.3773 0.340012C29.8664 0.566772 29.4087 0.898099 29.0337 1.31263C28.6587 1.72715 28.3747 2.21567 28.2001 2.74669C28.0255 3.2777 27.9642 3.83941 28.02 4.39559C23.4989 5.3152 19.4345 7.76904 16.5151 11.3416C13.5956 14.9142 12.0006 19.3859 12 23.9996C12 28.3916 10 47.9996 4 51.9996H60C54 47.9996 52 28.3916 52 23.9996C52 14.3196 45.12 6.23959 35.98 4.39559Z" fill="#212529"/>
</g>
<path d="M48.2584 24.4967C53.0435 24.4967 57.0168 20.743 57.0168 15.9984C57.0168 11.2537 53.0435 7.5 48.2584 7.5C43.4733 7.5 39.5 11.2537 39.5 15.9984C39.5 20.743 43.4733 24.4967 48.2584 24.4967Z" fill="black" stroke="white" stroke-width="3"/>
<defs>
<clipPath id="clip0_510_1393">
<rect width="64" height="64" fill="white"/>
</clipPath>
</defs>
</svg>
