<svg width="64" height="64" viewBox="0 0 64 64" fill="none" xmlns="http://www.w3.org/2000/svg">
<g clip-path="url(#clip0_348_6695)">
<path d="M18.16 0.584C18.5348 0.210124 19.0426 0.000112476 19.572 0H44.428C44.9574 0.000112476 45.4652 0.210124 45.84 0.584L63.416 18.16C63.7899 18.5348 63.9999 19.0426 64 19.572V44.428C63.9999 44.9574 63.7899 45.4652 63.416 45.84L45.84 63.416C45.4652 63.7899 44.9574 63.9999 44.428 64H19.572C19.0426 63.9999 18.5348 63.7899 18.16 63.416L0.584 45.84C0.210124 45.4652 0.000112476 44.9574 0 44.428V19.572C0.000112476 19.0426 0.210124 18.5348 0.584 18.16L18.16 0.584ZM20.4 4L4 20.4V43.6L20.4 60H43.6L60 43.6V20.4L43.6 4H20.4Z" fill="#212529"/>
<path d="M28.008 44C28.008 43.4747 28.1115 42.9546 28.3125 42.4693C28.5135 41.984 28.8081 41.543 29.1796 41.1716C29.551 40.8001 29.992 40.5055 30.4773 40.3045C30.9626 40.1035 31.4827 40 32.008 40C32.5333 40 33.0534 40.1035 33.5387 40.3045C34.024 40.5055 34.465 40.8001 34.8364 41.1716C35.2079 41.543 35.5025 41.984 35.7035 42.4693C35.9045 42.9546 36.008 43.4747 36.008 44C36.008 45.0609 35.5866 46.0783 34.8364 46.8284C34.0863 47.5786 33.0689 48 32.008 48C30.9471 48 29.9297 47.5786 29.1796 46.8284C28.4294 46.0783 28.008 45.0609 28.008 44ZM28.4 19.98C28.3467 19.4754 28.4002 18.9652 28.5568 18.4825C28.7134 17.9999 28.9698 17.5555 29.3093 17.1783C29.6487 16.8012 30.0637 16.4996 30.5272 16.2931C30.9908 16.0867 31.4926 15.98 32 15.98C32.5074 15.98 33.0092 16.0867 33.4728 16.2931C33.9363 16.4996 34.3513 16.8012 34.6907 17.1783C35.0302 17.5555 35.2866 17.9999 35.4432 18.4825C35.5998 18.9652 35.6533 19.4754 35.6 19.98L34.2 34.008C34.153 34.5591 33.9008 35.0724 33.4934 35.4465C33.086 35.8206 32.5531 36.0282 32 36.0282C31.4469 36.0282 30.914 35.8206 30.5066 35.4465C30.0992 35.0724 29.847 34.5591 29.8 34.008L28.4 19.98Z" fill="#212529"/>
</g>
<defs>
<clipPath id="clip0_348_6695">
<rect width="64" height="64" fill="white"/>
</clipPath>
</defs>
</svg>
