<svg width="64" height="64" viewBox="0 0 64 64" fill="none" xmlns="http://www.w3.org/2000/svg">
<path fill-rule="evenodd" clip-rule="evenodd" d="M33.4162 6.58758C33.6024 6.77336 33.7502 6.99406 33.851 7.23704C33.9518 7.48002 34.0037 7.74051 34.0037 8.00358C34.0037 8.26664 33.9518 8.52713 33.851 8.77011C33.7502 9.01309 33.6024 9.23379 33.4162 9.41958L10.8282 32.0036L33.4162 54.5876C33.7917 54.9631 34.0027 55.4725 34.0027 56.0036C34.0027 56.5347 33.7917 57.044 33.4162 57.4196C33.0406 57.7951 32.5313 58.0061 32.0002 58.0061C31.4691 58.0061 30.9597 57.7951 30.5842 57.4196L6.58416 33.4196C6.3979 33.2338 6.25013 33.0131 6.14931 32.7701C6.04848 32.5271 5.99658 32.2666 5.99658 32.0036C5.99658 31.7405 6.04848 31.48 6.14931 31.237C6.25013 30.9941 6.3979 30.7734 6.58416 30.5876L30.5842 6.58758C30.7699 6.40132 30.9906 6.25355 31.2336 6.15273C31.4766 6.0519 31.7371 6 32.0002 6C32.2632 6 32.5237 6.0519 32.7667 6.15273C33.0097 6.25355 33.2304 6.40132 33.4162 6.58758Z" fill="white"/>
<path fill-rule="evenodd" clip-rule="evenodd" d="M49.4162 6.58758C49.6024 6.77336 49.7502 6.99406 49.851 7.23704C49.9518 7.48002 50.0037 7.74051 50.0037 8.00358C50.0037 8.26664 49.9518 8.52713 49.851 8.77011C49.7502 9.01309 49.6024 9.23379 49.4162 9.41958L26.8282 32.0036L49.4162 54.5876C49.6021 54.7735 49.7496 54.9943 49.8503 55.2372C49.9509 55.4802 50.0027 55.7406 50.0027 56.0036C50.0027 56.2665 49.9509 56.527 49.8503 56.7699C49.7496 57.0129 49.6021 57.2336 49.4162 57.4196C49.2302 57.6055 49.0094 57.753 48.7665 57.8537C48.5235 57.9543 48.2631 58.0061 48.0002 58.0061C47.7372 58.0061 47.4768 57.9543 47.2338 57.8537C46.9909 57.753 46.7701 57.6055 46.5842 57.4196L22.5842 33.4196C22.3979 33.2338 22.2501 33.0131 22.1493 32.7701C22.0485 32.5271 21.9966 32.2666 21.9966 32.0036C21.9966 31.7405 22.0485 31.48 22.1493 31.237C22.2501 30.9941 22.3979 30.7734 22.5842 30.5876L46.5842 6.58758C46.7699 6.40132 46.9906 6.25355 47.2336 6.15273C47.4766 6.0519 47.7371 6 48.0002 6C48.2632 6 48.5237 6.0519 48.7667 6.15273C49.0097 6.25355 49.2304 6.40132 49.4162 6.58758Z" fill="white"/>
</svg>
