<svg width="64" height="64" viewBox="0 0 64 64" fill="none" xmlns="http://www.w3.org/2000/svg">
<g clip-path="url(#clip0_348_6703)">
<path d="M32 60C24.5739 60 17.452 57.05 12.201 51.799C6.94999 46.548 4 39.4261 4 32C4 24.5739 6.94999 17.452 12.201 12.201C17.452 6.94999 24.5739 4 32 4C39.4261 4 46.548 6.94999 51.799 12.201C57.05 17.452 60 24.5739 60 32C60 39.4261 57.05 46.548 51.799 51.799C46.548 57.05 39.4261 60 32 60ZM32 64C40.4869 64 48.6263 60.6286 54.6274 54.6274C60.6286 48.6263 64 40.4869 64 32C64 23.5131 60.6286 15.3737 54.6274 9.37258C48.6263 3.37142 40.4869 0 32 0C23.5131 0 15.3737 3.37142 9.37258 9.37258C3.37142 15.3737 0 23.5131 0 32C0 40.4869 3.37142 48.6263 9.37258 54.6274C15.3737 60.6286 23.5131 64 32 64Z" fill="#212529"/>
<path d="M28.008 44C28.008 43.4747 28.1115 42.9546 28.3125 42.4693C28.5135 41.984 28.8081 41.543 29.1796 41.1716C29.551 40.8001 29.992 40.5055 30.4773 40.3045C30.9626 40.1035 31.4827 40 32.008 40C32.5333 40 33.0534 40.1035 33.5387 40.3045C34.024 40.5055 34.465 40.8001 34.8364 41.1716C35.2079 41.543 35.5025 41.984 35.7035 42.4693C35.9045 42.9546 36.008 43.4747 36.008 44C36.008 45.0609 35.5866 46.0783 34.8364 46.8284C34.0863 47.5786 33.0689 48 32.008 48C30.9471 48 29.9297 47.5786 29.1796 46.8284C28.4294 46.0783 28.008 45.0609 28.008 44ZM28.4 19.98C28.3467 19.4754 28.4002 18.9652 28.5568 18.4825C28.7134 17.9999 28.9698 17.5555 29.3093 17.1783C29.6487 16.8012 30.0637 16.4996 30.5272 16.2931C30.9908 16.0867 31.4926 15.98 32 15.98C32.5074 15.98 33.0092 16.0867 33.4728 16.2931C33.9363 16.4996 34.3513 16.8012 34.6907 17.1783C35.0302 17.5555 35.2866 17.9999 35.4432 18.4825C35.5998 18.9652 35.6533 19.4754 35.6 19.98L34.2 34.008C34.153 34.5591 33.9008 35.0724 33.4934 35.4465C33.086 35.8206 32.5531 36.0282 32 36.0282C31.4469 36.0282 30.914 35.8206 30.5066 35.4465C30.0992 35.0724 29.847 34.5591 29.8 34.008L28.4 19.98Z" fill="#212529"/>
</g>
<defs>
<clipPath id="clip0_348_6703">
<rect width="64" height="64" fill="white"/>
</clipPath>
</defs>
</svg>
