<svg width="64" height="64" viewBox="0 0 64 64" fill="none" xmlns="http://www.w3.org/2000/svg">
<path d="M32 60C24.5739 60 17.452 57.05 12.201 51.799C6.94999 46.548 4 39.4261 4 32C4 24.5739 6.94999 17.452 12.201 12.201C17.452 6.94999 24.5739 4 32 4C39.4261 4 46.548 6.94999 51.799 12.201C57.05 17.452 60 24.5739 60 32C60 39.4261 57.05 46.548 51.799 51.799C46.548 57.05 39.4261 60 32 60ZM32 64C40.4869 64 48.6263 60.6286 54.6274 54.6274C60.6286 48.6263 64 40.4869 64 32C64 23.5131 60.6286 15.3737 54.6274 9.37258C48.6263 3.37142 40.4869 0 32 0C23.5131 0 15.3737 3.37142 9.37258 9.37258C3.37142 15.3737 0 23.5131 0 32C0 40.4869 3.37142 48.6263 9.37258 54.6274C15.3737 60.6286 23.5131 64 32 64Z" fill="#212529"/>
<path d="M43.88 19.88C43.8515 19.9076 43.8248 19.937 43.8 19.968L29.908 37.668L21.536 29.292C20.9673 28.7621 20.2151 28.4736 19.4379 28.4873C18.6607 28.501 17.9192 28.8159 17.3695 29.3655C16.8199 29.9152 16.505 30.6567 16.4913 31.4339C16.4776 32.2111 16.7661 32.9633 17.296 33.532L27.88 44.12C28.1651 44.4046 28.5047 44.6289 28.8783 44.7794C29.252 44.93 29.6522 45.0037 30.055 44.9962C30.4578 44.9888 30.8549 44.9002 31.2228 44.736C31.5906 44.5717 31.9216 44.335 32.196 44.04L48.164 24.08C48.7077 23.5093 49.005 22.7476 48.9916 21.9595C48.9781 21.1714 48.6551 20.4202 48.0922 19.8684C47.5294 19.3166 46.7719 19.0084 45.9837 19.0106C45.1955 19.0128 44.4398 19.3251 43.88 19.88Z" fill="#212529"/>
</svg>
