<svg width="64" height="64" viewBox="0 0 64 64" fill="none" xmlns="http://www.w3.org/2000/svg">
<g clip-path="url(#clip0_348_6691)">
<path d="M31.7518 8.06381C31.8302 8.02082 31.9184 7.99877 32.0078 7.99981C32.0958 7.99946 32.1826 8.02148 32.2598 8.06381C32.3512 8.11866 32.426 8.19751 32.4758 8.29181L59.9038 54.9598C60.0478 55.1998 60.0438 55.4558 59.9118 55.6918C59.861 55.7887 59.7868 55.8712 59.6958 55.9318C59.6166 55.9804 59.5246 56.0041 59.4318 55.9998H4.58378C4.49093 56.0043 4.39889 55.9806 4.31978 55.9318C4.2288 55.8712 4.15452 55.7887 4.10378 55.6918C4.03787 55.5808 4.00375 55.4538 4.00516 55.3247C4.00657 55.1956 4.04346 55.0694 4.11178 54.9598L31.5358 8.29181C31.5858 8.19763 31.6604 8.11882 31.7518 8.06381ZM35.9278 6.26381C35.5318 5.57406 34.9609 5.00101 34.2726 4.6025C33.5843 4.20399 32.8031 3.99414 32.0078 3.99414C31.2125 3.99414 30.4312 4.20399 29.743 4.6025C29.0547 5.00101 28.4837 5.57406 28.0878 6.26381L0.659784 52.9318C-1.16822 56.0438 1.02378 59.9998 4.57978 59.9998H59.4318C62.9878 59.9998 65.1838 56.0398 63.3518 52.9318L35.9278 6.26381Z" fill="#212529"/>
<path d="M28.0078 47.9998C28.0078 47.4745 28.1112 46.9544 28.3123 46.4691C28.5133 45.9838 28.8079 45.5428 29.1794 45.1714C29.5508 44.7999 29.9917 44.5053 30.4771 44.3043C30.9624 44.1033 31.4825 43.9998 32.0078 43.9998C32.5331 43.9998 33.0532 44.1033 33.5385 44.3043C34.0238 44.5053 34.4648 44.7999 34.8362 45.1714C35.2076 45.5428 35.5023 45.9838 35.7033 46.4691C35.9043 46.9544 36.0078 47.4745 36.0078 47.9998C36.0078 49.0607 35.5864 50.0781 34.8362 50.8282C34.0861 51.5784 33.0686 51.9998 32.0078 51.9998C30.9469 51.9998 29.9295 51.5784 29.1794 50.8282C28.4292 50.0781 28.0078 49.0607 28.0078 47.9998ZM28.3998 23.9798C28.3465 23.4752 28.3999 22.965 28.5566 22.4823C28.7132 21.9997 28.9696 21.5553 29.3091 21.1782C29.6485 20.801 30.0635 20.4994 30.527 20.2929C30.9906 20.0865 31.4923 19.9798 31.9998 19.9798C32.5072 19.9798 33.009 20.0865 33.4725 20.2929C33.9361 20.4994 34.351 20.801 34.6905 21.1782C35.03 21.5553 35.2863 21.9997 35.443 22.4823C35.5996 22.965 35.653 23.4752 35.5998 23.9798L34.1998 38.0078C34.1527 38.5589 33.9006 39.0723 33.4932 39.4464C33.0858 39.8204 32.5529 40.028 31.9998 40.028C31.4467 40.028 30.9137 39.8204 30.5064 39.4464C30.099 39.0723 29.8468 38.5589 29.7998 38.0078L28.3998 23.9798Z" fill="#212529"/>
</g>
<defs>
<clipPath id="clip0_348_6691">
<rect width="64" height="64" fill="white"/>
</clipPath>
</defs>
</svg>
