<svg width="64" height="64" viewBox="0 0 64 64" fill="none" xmlns="http://www.w3.org/2000/svg">
<g clip-path="url(#clip0_355_6798)">
<path d="M32.204 7.99609H32.56C35.848 8.00809 52.508 8.12809 57 9.33609C58.358 9.70477 59.5954 10.4234 60.5886 11.4201C61.5819 12.4169 62.2961 13.6568 62.66 15.0161C63.064 16.5361 63.348 18.5481 63.54 20.6241L63.58 21.0401L63.668 22.0801L63.7 22.4961C63.96 26.1521 63.992 29.5761 63.996 30.3241V30.6241C63.992 31.4001 63.956 35.0561 63.668 38.8641L63.636 39.2841L63.6 39.7001C63.4 41.9881 63.104 44.2601 62.66 45.9321C62.2972 47.2919 61.5834 48.5325 60.5899 49.5294C59.5965 50.5263 58.3585 51.2445 57 51.6121C52.36 52.8601 34.724 52.9481 32.28 52.9521H31.712C30.476 52.9521 25.364 52.9281 20.004 52.7441L19.324 52.7201L18.976 52.7041L18.292 52.6761L17.608 52.6481C13.168 52.4521 8.94 52.1361 6.992 51.6081C5.63396 51.2409 4.39626 50.5232 3.4029 49.5271C2.40953 48.5309 1.69539 47.2912 1.332 45.9321C0.888 44.2641 0.592 41.9881 0.392 39.7001L0.36 39.2801L0.328 38.8641C0.13059 36.1537 0.0211995 33.4376 0 30.7201L0 30.2281C0.008 29.3681 0.04 26.3961 0.256 23.1161L0.284 22.7041L0.296 22.4961L0.328 22.0801L0.416 21.0401L0.456 20.6241C0.648 18.5481 0.932 16.5321 1.336 15.0161C1.69877 13.6563 2.41265 12.4157 3.40605 11.4188C4.39946 10.4219 5.63748 9.70366 6.996 9.33609C8.944 8.81609 13.172 8.49609 17.612 8.29609L18.292 8.26809L18.98 8.24409L19.324 8.23209L20.008 8.20409C23.8148 8.08159 27.6232 8.01359 31.432 8.00009H32.204V7.99609ZM25.6 20.8361V40.1081L42.228 30.4761L25.6 20.8361Z" fill="#212529"/>
</g>
<defs>
<clipPath id="clip0_355_6798">
<rect width="64" height="64" fill="white"/>
</clipPath>
</defs>
</svg>
