<svg width="64" height="64" viewBox="0 0 64 64" fill="none" xmlns="http://www.w3.org/2000/svg">
<path fill-rule="evenodd" clip-rule="evenodd" d="M8.00008 54.0002V28.0002H12.0001V54.0002C12.0001 54.5307 12.2108 55.0394 12.5859 55.4145C12.9609 55.7895 13.4697 56.0002 14.0001 56.0002H50.0001C50.5305 56.0002 51.0392 55.7895 51.4143 55.4145C51.7894 55.0394 52.0001 54.5307 52.0001 54.0002V28.0002H56.0001V54.0002C56.0001 55.5915 55.3679 57.1177 54.2427 58.2429C53.1175 59.3681 51.5914 60.0002 50.0001 60.0002H14.0001C12.4088 60.0002 10.8827 59.3681 9.75744 58.2429C8.63223 57.1177 8.00008 55.5915 8.00008 54.0002ZM52.0001 10.0002V24.0002L44.0001 16.0002V10.0002C44.0001 9.46981 44.2108 8.96111 44.5859 8.58603C44.9609 8.21096 45.4697 8.00025 46.0001 8.00025H50.0001C50.5305 8.00025 51.0392 8.21096 51.4143 8.58603C51.7894 8.96111 52.0001 9.46981 52.0001 10.0002Z" fill="#212529"/>
<path fill-rule="evenodd" clip-rule="evenodd" d="M29.1721 6.00025C29.9222 5.25036 30.9394 4.8291 32.0001 4.8291C33.0607 4.8291 34.078 5.25036 34.8281 6.00025L61.4161 32.5842C61.7916 32.9598 62.0026 33.4691 62.0026 34.0002C62.0026 34.5314 61.7916 35.0407 61.4161 35.4162C61.0405 35.7918 60.5312 36.0028 60.0001 36.0028C59.469 36.0028 58.9596 35.7918 58.5841 35.4162L32.0001 8.82825L5.41608 35.4162C5.04054 35.7918 4.53119 36.0028 4.00008 36.0028C3.46898 36.0028 2.95963 35.7918 2.58409 35.4162C2.20854 35.0407 1.99756 34.5314 1.99756 34.0002C1.99756 33.4691 2.20854 32.9598 2.58409 32.5842L29.1721 6.00025Z" fill="#212529"/>
</svg>
