<svg width="64" height="64" viewBox="0 0 64 64" fill="none" xmlns="http://www.w3.org/2000/svg">
<path d="M30 4V32H34V4H30Z" fill="#212529"/>
<path d="M12 35.248C11.999 31.6759 12.955 28.1687 14.7684 25.0911C16.5819 22.0136 19.1867 19.478 22.312 17.748L20.372 14.252C15.7341 16.8203 12.0771 20.8519 9.97188 25.7175C7.86668 30.5831 7.43177 36.0089 8.73504 41.1477C10.0383 46.2865 13.0064 50.8492 17.176 54.1235C21.3455 57.3977 26.4819 59.1993 31.7832 59.2468C37.0845 59.2944 42.2524 57.5853 46.48 54.3864C50.7077 51.1875 53.7572 46.6788 55.1525 41.5642C56.5477 36.4496 56.2102 31.0169 54.1927 26.1143C52.1751 21.2117 48.591 17.1151 44 14.464L41.996 17.924C45.0369 19.6787 47.5623 22.203 49.3184 25.2432C51.0745 28.2833 51.9993 31.7322 52 35.2431C52.0006 38.7539 51.0771 42.2031 49.3222 45.2439C47.5672 48.2847 45.0428 50.81 42.0025 52.5659C38.9622 54.3218 35.5133 55.2464 32.0025 55.2468C28.4916 55.2473 25.0424 54.3235 22.0017 52.5683C18.9611 50.8132 16.436 48.2886 14.6803 45.2482C12.9246 42.2078 12.0002 38.7589 12 35.248Z" fill="#212529"/>
</svg>
