<svg width="64" height="64" viewBox="0 0 64 64" fill="none" xmlns="http://www.w3.org/2000/svg">
<g clip-path="url(#clip0_355_6745)">
<path d="M32 19.016C30.2949 19.016 28.6065 19.3518 27.0312 20.0043C25.4559 20.6568 24.0246 21.6132 22.8189 22.8189C21.6132 24.0246 20.6568 25.4559 20.0043 27.0312C19.3518 28.6065 19.016 30.2949 19.016 32C19.016 33.705 19.3518 35.3934 20.0043 36.9687C20.6568 38.544 21.6132 39.9754 22.8189 41.181C24.0246 42.3867 25.4559 43.3431 27.0312 43.9956C28.6065 44.6481 30.2949 44.984 32 44.984C35.4435 44.984 38.7461 43.616 41.181 41.181C43.616 38.7461 44.984 35.4435 44.984 32C44.984 28.5564 43.616 25.2539 41.181 22.8189C38.7461 20.3839 35.4435 19.016 32 19.016ZM23.016 32C23.016 29.6172 23.9625 27.3321 25.6473 25.6473C27.3321 23.9625 29.6172 23.016 32 23.016C34.3827 23.016 36.6678 23.9625 38.3526 25.6473C40.0374 27.3321 40.984 29.6172 40.984 32C40.984 34.3827 40.0374 36.6678 38.3526 38.3526C36.6678 40.0374 34.3827 40.984 32 40.984C29.6172 40.984 27.3321 40.0374 25.6473 38.3526C23.9625 36.6678 23.016 34.3827 23.016 32Z" fill="#212529"/>
<path d="M39.184 5.37195C37.076 -1.78805 26.924 -1.78805 24.816 5.37195L24.44 6.64795C24.2927 7.14776 24.0355 7.60829 23.6872 7.99579C23.3389 8.38328 22.9083 8.68792 22.4269 8.88736C21.9456 9.08681 21.4257 9.17601 20.9054 9.14842C20.3851 9.12084 19.8775 8.97717 19.42 8.72795L18.252 8.08795C11.692 4.51995 4.51995 11.696 8.09195 18.252L8.72795 19.42C8.97717 19.8775 9.12084 20.3851 9.14842 20.9054C9.17601 21.4257 9.08681 21.9456 8.88736 22.4269C8.68792 22.9083 8.38328 23.3389 7.99579 23.6872C7.60829 24.0355 7.14776 24.2927 6.64795 24.44L5.37195 24.816C-1.78805 26.924 -1.78805 37.076 5.37195 39.184L6.64795 39.56C7.14776 39.7072 7.60829 39.9644 7.99579 40.3127C8.38328 40.661 8.68792 41.0916 8.88736 41.573C9.08681 42.0543 9.17601 42.5742 9.14842 43.0945C9.12084 43.6148 8.97717 44.1224 8.72795 44.58L8.08795 45.748C4.51995 52.308 11.692 59.484 18.252 55.908L19.42 55.272C19.8775 55.0227 20.3851 54.8791 20.9054 54.8515C21.4257 54.8239 21.9456 54.9131 22.4269 55.1125C22.9083 55.312 23.3389 55.6166 23.6872 56.0041C24.0355 56.3916 24.2927 56.8521 24.44 57.352L24.816 58.628C26.924 65.7879 37.076 65.7879 39.184 58.628L39.56 57.352C39.7072 56.8521 39.9644 56.3916 40.3127 56.0041C40.661 55.6166 41.0916 55.312 41.573 55.1125C42.0543 54.9131 42.5742 54.8239 43.0945 54.8515C43.6148 54.8791 44.1224 55.0227 44.58 55.272L45.748 55.912C52.308 59.484 59.484 52.304 55.908 45.748L55.272 44.58C55.0227 44.1224 54.8791 43.6148 54.8515 43.0945C54.8239 42.5742 54.9131 42.0543 55.1125 41.573C55.312 41.0916 55.6166 40.661 56.0041 40.3127C56.3916 39.9644 56.8521 39.7072 57.352 39.56L58.628 39.184C65.7879 37.076 65.7879 26.924 58.628 24.816L57.352 24.44C56.8521 24.2927 56.3916 24.0355 56.0041 23.6872C55.6166 23.3389 55.312 22.9083 55.1125 22.4269C54.9131 21.9456 54.8239 21.4257 54.8515 20.9054C54.8791 20.3851 55.0227 19.8775 55.272 19.42L55.912 18.252C59.484 11.692 52.304 4.51995 45.748 8.09195L44.58 8.72795C44.1224 8.97717 43.6148 9.12084 43.0945 9.14842C42.5742 9.17601 42.0543 9.08681 41.573 8.88736C41.0916 8.68792 40.661 8.38328 40.3127 7.99579C39.9644 7.60829 39.7072 7.14776 39.56 6.64795L39.184 5.37195ZM28.652 6.50395C29.636 3.16395 34.364 3.16395 35.348 6.50395L35.724 7.77995C36.04 8.85229 36.5921 9.8403 37.3397 10.6716C38.0872 11.5028 39.0113 12.1562 40.0443 12.5839C41.0772 13.0115 42.1927 13.2026 43.3091 13.1431C44.4255 13.0836 45.5144 12.775 46.496 12.24L47.66 11.6C50.716 9.93995 54.06 13.28 52.396 16.34L51.76 17.508C51.2257 18.4897 50.9179 19.5785 50.859 20.6946C50.8001 21.8107 50.9917 22.9258 51.4198 23.9583C51.8478 24.9907 52.5014 25.9144 53.3326 26.6615C54.1639 27.4086 55.1518 27.9602 56.224 28.276L57.496 28.652C60.836 29.636 60.836 34.364 57.496 35.348L56.22 35.724C55.1476 36.04 54.1596 36.5921 53.3284 37.3397C52.4971 38.0872 51.8437 39.0113 51.416 40.0443C50.9884 41.0772 50.7973 42.1927 50.8568 43.3091C50.9163 44.4255 51.2249 45.5144 51.76 46.496L52.4 47.66C54.06 50.716 50.72 54.06 47.66 52.396L46.496 51.76C45.5141 51.225 44.4249 50.9165 43.3083 50.8573C42.1917 50.798 41.0761 50.9894 40.0431 51.4175C39.0101 51.8456 38.086 52.4994 37.3387 53.3311C36.5913 54.1628 36.0396 55.1513 35.724 56.224L35.348 57.496C34.364 60.836 29.636 60.836 28.652 57.496L28.276 56.22C27.9597 55.1482 27.4078 54.1607 26.6605 53.3299C25.9132 52.499 24.9895 51.8459 23.9571 51.4183C22.9247 50.9907 21.8097 50.7994 20.6938 50.8585C19.5779 50.9177 18.4894 51.2257 17.508 51.76L16.34 52.4C13.284 54.06 9.93995 50.72 11.604 47.66L12.24 46.496C12.7758 45.5142 13.085 44.4249 13.1449 43.3081C13.2048 42.1912 13.0138 41.0752 12.5861 40.0417C12.1584 39.0083 11.5047 38.0837 10.6731 37.3359C9.8414 36.588 8.85285 36.0359 7.77995 35.72L6.50395 35.344C3.16395 34.36 3.16395 29.632 6.50395 28.648L7.77995 28.272C8.85118 27.9556 9.83811 27.4037 10.6685 26.6567C11.4989 25.9097 12.1518 24.9865 12.5794 23.9546C13.0069 22.9227 13.1983 21.8082 13.1396 20.6928C13.0809 19.5774 12.7735 18.4892 12.24 17.508L11.6 16.34C9.93995 13.284 13.28 9.93995 16.34 11.604L17.508 12.24C18.4894 12.7743 19.5779 13.0822 20.6938 13.1414C21.8097 13.2005 22.9247 13.0092 23.9571 12.5816C24.9895 12.154 25.9132 11.5009 26.6605 10.67C27.4078 9.83921 27.9597 8.85174 28.276 7.77995L28.652 6.50395Z" fill="#212529"/>
</g>
<defs>
<clipPath id="clip0_355_6745">
<rect width="64" height="64" fill="white"/>
</clipPath>
</defs>
</svg>
