<svg width="64" height="64" viewBox="0 0 64 64" fill="none" xmlns="http://www.w3.org/2000/svg">
<g clip-path="url(#clip0_355_6776)">
<path fill-rule="evenodd" clip-rule="evenodd" d="M46 8.00026C45.2121 8.00026 44.4319 8.15545 43.7039 8.45698C42.9759 8.75851 42.3145 9.20047 41.7574 9.75762C41.2002 10.3148 40.7583 10.9762 40.4567 11.7042C40.1552 12.4321 40 13.2123 40 14.0003C40 14.7882 40.1552 15.5684 40.4567 16.2964C40.7583 17.0243 41.2002 17.6857 41.7574 18.2429C42.3145 18.8001 42.9759 19.242 43.7039 19.5435C44.4319 19.8451 45.2121 20.0003 46 20.0003C47.5913 20.0003 49.1174 19.3681 50.2426 18.2429C51.3679 17.1177 52 15.5916 52 14.0003C52 12.409 51.3679 10.8828 50.2426 9.75762C49.1174 8.6324 47.5913 8.00026 46 8.00026ZM36.2 12.0003C36.659 9.73968 37.8855 7.70731 39.6715 6.2475C41.4575 4.7877 43.6933 3.99023 46 3.99023C48.3067 3.99023 50.5425 4.7877 52.3285 6.2475C54.1145 7.70731 55.341 9.73968 55.8 12.0003H64V16.0003H55.8C55.341 18.2608 54.1145 20.2932 52.3285 21.753C50.5425 23.2128 48.3067 24.0103 46 24.0103C43.6933 24.0103 41.4575 23.2128 39.6715 21.753C37.8855 20.2932 36.659 18.2608 36.2 16.0003H0V12.0003H36.2ZM18 28.0003C16.4087 28.0003 14.8826 28.6324 13.7574 29.7576C12.6321 30.8828 12 32.409 12 34.0003C12 35.5916 12.6321 37.1177 13.7574 38.2429C14.8826 39.3681 16.4087 40.0003 18 40.0003C19.5913 40.0003 21.1174 39.3681 22.2426 38.2429C23.3679 37.1177 24 35.5916 24 34.0003C24 32.409 23.3679 30.8828 22.2426 29.7576C21.1174 28.6324 19.5913 28.0003 18 28.0003ZM8.2 32.0003C8.65903 29.7397 9.88546 27.7073 11.6715 26.2475C13.4575 24.7877 15.6933 23.9902 18 23.9902C20.3067 23.9902 22.5425 24.7877 24.3285 26.2475C26.1145 27.7073 27.341 29.7397 27.8 32.0003H64V36.0003H27.8C27.341 38.2608 26.1145 40.2932 24.3285 41.753C22.5425 43.2128 20.3067 44.0103 18 44.0103C15.6933 44.0103 13.4575 43.2128 11.6715 41.753C9.88546 40.2932 8.65903 38.2608 8.2 36.0003H0V32.0003H8.2ZM46 48.0003C44.4087 48.0003 42.8826 48.6324 41.7574 49.7576C40.6321 50.8828 40 52.409 40 54.0003C40 55.5916 40.6321 57.1177 41.7574 58.2429C42.8826 59.3681 44.4087 60.0003 46 60.0003C47.5913 60.0003 49.1174 59.3681 50.2426 58.2429C51.3679 57.1177 52 55.5916 52 54.0003C52 52.409 51.3679 50.8828 50.2426 49.7576C49.1174 48.6324 47.5913 48.0003 46 48.0003ZM36.2 52.0003C36.659 49.7397 37.8855 47.7073 39.6715 46.2475C41.4575 44.7877 43.6933 43.9902 46 43.9902C48.3067 43.9902 50.5425 44.7877 52.3285 46.2475C54.1145 47.7073 55.341 49.7397 55.8 52.0003H64V56.0003H55.8C55.341 58.2608 54.1145 60.2932 52.3285 61.753C50.5425 63.2128 48.3067 64.0103 46 64.0103C43.6933 64.0103 41.4575 63.2128 39.6715 61.753C37.8855 60.2932 36.659 58.2608 36.2 56.0003H0V52.0003H36.2Z" fill="#212529"/>
</g>
<defs>
<clipPath id="clip0_355_6776">
<rect width="64" height="64" fill="white"/>
</clipPath>
</defs>
</svg>
