<svg width="64" height="64" viewBox="0 0 64 64" fill="none" xmlns="http://www.w3.org/2000/svg">
<path d="M26 4H38C38.5304 4 39.0391 4.21071 39.4142 4.58579C39.7893 4.96086 40 5.46957 40 6V10H24V6C24 5.46957 24.2107 4.96086 24.5858 4.58579C24.9609 4.21071 25.4696 4 26 4V4ZM44 10V6C44 4.4087 43.3679 2.88258 42.2426 1.75736C41.1174 0.632141 39.5913 0 38 0L26 0C24.4087 0 22.8826 0.632141 21.7574 1.75736C20.6321 2.88258 20 4.4087 20 6V10H10.024C10.0107 9.99989 9.99733 9.99989 9.984 10H6C5.46957 10 4.96086 10.2107 4.58579 10.5858C4.21071 10.9609 4 11.4696 4 12C4 12.5304 4.21071 13.0391 4.58579 13.4142C4.96086 13.7893 5.46957 14 6 14H8.152L11.564 56.64C11.7249 58.6448 12.635 60.5154 14.1131 61.8793C15.5912 63.2433 17.5288 64.0004 19.54 64H44.46C46.4712 64.0004 48.4088 63.2433 49.8869 61.8793C51.365 60.5154 52.2751 58.6448 52.436 56.64L55.848 14H58C58.5304 14 59.0391 13.7893 59.4142 13.4142C59.7893 13.0391 60 12.5304 60 12C60 11.4696 59.7893 10.9609 59.4142 10.5858C59.0391 10.2107 58.5304 10 58 10H54.02C54.0067 9.99989 53.9933 9.99989 53.98 10H44ZM51.832 14L48.448 56.32C48.3676 57.3224 47.9125 58.2577 47.1735 58.9397C46.4344 59.6216 45.4656 60.0002 44.46 60H19.54C18.5344 60.0002 17.5656 59.6216 16.8265 58.9397C16.0875 58.2577 15.6324 57.3224 15.552 56.32L12.168 14H51.832ZM21.884 18C22.4133 17.9694 22.9331 18.1503 23.3292 18.5028C23.7252 18.8553 23.9651 19.3507 23.996 19.88L25.996 53.88C26.017 54.4031 25.8321 54.9136 25.4809 55.3019C25.1297 55.6902 24.6402 55.9253 24.1176 55.9567C23.595 55.9881 23.081 55.8133 22.6858 55.4699C22.2906 55.1265 22.0458 54.6419 22.004 54.12L20 20.12C19.9838 19.8573 20.0196 19.5939 20.1053 19.345C20.1911 19.0961 20.3252 18.8666 20.4998 18.6696C20.6745 18.4727 20.8863 18.3121 21.1231 18.1972C21.36 18.0823 21.6172 18.0153 21.88 18H21.884ZM42.116 18C42.3788 18.0153 42.636 18.0823 42.8728 18.1972C43.1097 18.3121 43.3215 18.4727 43.4962 18.6696C43.6708 18.8666 43.8049 19.0961 43.8907 19.345C43.9764 19.5939 44.0122 19.8573 43.996 20.12L41.996 54.12C41.9853 54.3858 41.9217 54.6468 41.809 54.8877C41.6962 55.1286 41.5365 55.3446 41.3392 55.523C41.142 55.7014 40.9111 55.8387 40.6601 55.9268C40.4091 56.0149 40.1431 56.0521 39.8776 56.0361C39.6121 56.0202 39.3524 55.9514 39.1138 55.8339C38.8752 55.7163 38.6624 55.5523 38.4879 55.3516C38.3135 55.1508 38.1808 54.9172 38.0977 54.6645C38.0146 54.4119 37.9828 54.1451 38.004 53.88L40.004 19.88C40.0349 19.3507 40.2748 18.8553 40.6708 18.5028C41.0669 18.1503 41.5867 17.9694 42.116 18V18ZM32 18C32.5304 18 33.0391 18.2107 33.4142 18.5858C33.7893 18.9609 34 19.4696 34 20V54C34 54.5304 33.7893 55.0391 33.4142 55.4142C33.0391 55.7893 32.5304 56 32 56C31.4696 56 30.9609 55.7893 30.5858 55.4142C30.2107 55.0391 30 54.5304 30 54V20C30 19.4696 30.2107 18.9609 30.5858 18.5858C30.9609 18.2107 31.4696 18 32 18V18Z" fill="white"/>
</svg>
