<svg width="64" height="64" viewBox="0 0 64 64" fill="none" xmlns="http://www.w3.org/2000/svg">
<g clip-path="url(#clip0_558_1328)">
<path d="M0 32C0 23.5131 3.37142 15.3737 9.37258 9.37258C15.3737 3.37142 23.5131 0 32 0C40.4869 0 48.6263 3.37142 54.6274 9.37258C60.6286 15.3737 64 23.5131 64 32C64 40.4869 60.6286 48.6263 54.6274 54.6274C48.6263 60.6286 40.4869 64 32 64C23.5131 64 15.3737 60.6286 9.37258 54.6274C3.37142 48.6263 0 40.4869 0 32ZM30 4.308C27.32 5.124 24.66 7.588 22.452 11.728C21.7245 13.1044 21.0989 14.5322 20.58 16H30V4.308ZM16.36 16C17.0267 13.8753 17.8835 11.8149 18.92 9.844C19.6116 8.53622 20.4104 7.28796 21.308 6.112C16.352 8.16731 12.088 11.5985 9.02 16H16.36ZM14.032 30C14.152 26.492 14.584 23.128 15.28 20H6.696C5.20447 23.1402 4.31445 26.532 4.072 30H14.032ZM19.388 20C18.6013 23.2792 18.1483 26.6296 18.036 30H30V20H19.388ZM34 20V30H45.96C45.8492 26.6297 45.3975 23.2793 44.612 20H34ZM18.04 34C18.151 37.3703 18.6026 40.7206 19.388 44H30V34H18.04ZM34 34V44H44.612C45.36 40.94 45.836 37.568 45.964 34H34ZM20.58 48C21.132 49.544 21.76 50.976 22.452 52.272C24.66 56.412 27.324 58.872 30 59.692V48H20.58ZM21.308 57.888C20.4103 56.7121 19.6116 55.4638 18.92 54.156C17.8835 52.1851 17.0267 50.1247 16.36 48H9.02C12.0879 52.4017 16.3519 55.8329 21.308 57.888ZM15.28 44C14.5567 40.7123 14.1389 37.3647 14.032 34H4.072C4.32 37.56 5.236 40.932 6.696 44H15.28ZM42.692 57.888C47.6481 55.8329 51.9121 52.4017 54.98 48H47.64C46.9732 50.1247 46.1165 52.185 45.08 54.156C44.3886 55.4639 43.5898 56.7122 42.692 57.888ZM34 48V59.692C36.68 58.876 39.34 56.412 41.548 52.272C42.24 50.976 42.868 49.544 43.42 48H34ZM48.72 44H57.304C58.764 40.932 59.68 37.56 59.928 34H49.968C49.8612 37.3647 49.4434 40.7123 48.72 44ZM59.928 30C59.6855 26.5321 58.7954 23.1402 57.304 20H48.72C49.416 23.128 49.848 26.492 49.968 30H59.928ZM45.08 9.844C46.068 11.7 46.928 13.764 47.64 16H54.98C51.9121 11.5983 47.6481 8.16711 42.692 6.112C43.564 7.248 44.364 8.504 45.08 9.844ZM43.42 16C42.9012 14.5322 42.2755 13.1044 41.548 11.728C39.34 7.588 36.68 5.128 34 4.308V16H43.42Z" fill="white"/>
</g>
<defs>
<clipPath id="clip0_558_1328">
<rect width="64" height="64" fill="white"/>
</clipPath>
</defs>
</svg>
