<svg width="64" height="64" viewBox="0 0 64 64" fill="none" xmlns="http://www.w3.org/2000/svg">
<g clip-path="url(#clip0_355_6719)">
<path d="M27.8001 1.74C30.1201 -0.58 33.8801 -0.58 36.2001 1.74L62.2601 27.804C64.5801 30.124 64.5801 33.88 62.2601 36.196L36.2001 62.26C33.8801 64.58 30.1241 64.58 27.8081 62.26L1.74006 36.2C1.18831 35.6494 0.750577 34.9953 0.451911 34.2753C0.153245 33.5553 -0.000488281 32.7835 -0.000488281 32.004C-0.000488281 31.2245 0.153245 30.4527 0.451911 29.7327C0.750577 29.0127 1.18831 28.3586 1.74006 27.808L27.8001 1.74ZM33.4001 4.54C33.0287 4.16872 32.5252 3.96014 32.0001 3.96014C31.475 3.96014 30.9714 4.16872 30.6001 4.54L4.53606 30.6C4.16478 30.9713 3.9562 31.4749 3.9562 32C3.9562 32.5251 4.16478 33.0287 4.53606 33.4L30.6001 59.464C30.9714 59.8353 31.475 60.0439 32.0001 60.0439C32.5252 60.0439 33.0287 59.8353 33.4001 59.464L59.4641 33.4C59.8353 33.0287 60.0439 32.5251 60.0439 32C60.0439 31.4749 59.8353 30.9713 59.4641 30.6L33.4001 4.536V4.54Z" fill="#212529"/>
<path d="M21.0201 23.144C21.0146 23.2732 21.0356 23.4021 21.0818 23.5229C21.128 23.6436 21.1984 23.7537 21.2887 23.8462C21.379 23.9387 21.4872 24.0118 21.6068 24.061C21.7264 24.1101 21.8548 24.1343 21.9841 24.132H25.2841C25.8361 24.132 26.2761 23.68 26.3481 23.132C26.7081 20.508 28.5081 18.596 31.7161 18.596C34.4601 18.596 36.9721 19.968 36.9721 23.268C36.9721 25.808 35.4761 26.976 33.1121 28.752C30.4201 30.708 28.2881 32.992 28.4401 36.7L28.4521 37.568C28.4563 37.8304 28.5635 38.0807 28.7505 38.2648C28.9376 38.4489 29.1896 38.552 29.4521 38.552H32.6961C32.9613 38.552 33.2156 38.4466 33.4032 38.2591C33.5907 38.0716 33.6961 37.8172 33.6961 37.552V37.132C33.6961 34.26 34.7881 33.424 37.7361 31.188C40.1721 29.336 42.7121 27.28 42.7121 22.964C42.7121 16.92 37.6081 14 32.0201 14C26.9521 14 21.4001 16.36 21.0201 23.144ZM27.2481 46.196C27.2481 48.328 28.9481 49.904 31.2881 49.904C33.7241 49.904 35.4001 48.328 35.4001 46.196C35.4001 43.988 33.7201 42.436 31.2841 42.436C28.9481 42.436 27.2481 43.988 27.2481 46.196Z" fill="#212529"/>
</g>
<defs>
<clipPath id="clip0_355_6719">
<rect width="64" height="64" fill="white"/>
</clipPath>
</defs>
</svg>
