<svg width="64" height="64" viewBox="0 0 64 64" fill="none" xmlns="http://www.w3.org/2000/svg">
<path fill-rule="evenodd" clip-rule="evenodd" d="M30.6906 14.4807C30.8621 14.3283 31.0658 14.2074 31.2901 14.1249C31.5143 14.0425 31.7547 14 31.9976 14C32.2404 14 32.4808 14.0425 32.7051 14.1249C32.9293 14.2074 33.133 14.3283 33.3045 14.4807L55.4562 34.1143C55.8028 34.4215 55.9976 34.8382 55.9976 35.2727C55.9976 35.7072 55.8028 36.1239 55.4562 36.4311C55.1096 36.7383 54.6395 36.9109 54.1493 36.9109C53.6591 36.9109 53.1889 36.7383 52.8423 36.4311L31.9976 17.9526L11.1528 36.4311C10.8062 36.7383 10.3361 36.9109 9.84586 36.9109C9.35566 36.9109 8.88554 36.7383 8.53891 36.4311C8.19229 36.1239 7.99756 35.7072 7.99756 35.2727C7.99756 34.8382 8.19229 34.4215 8.53891 34.1143L30.6906 14.4807Z" fill="#212529"/>
<path fill-rule="evenodd" clip-rule="evenodd" d="M30.6906 27.5698C30.8621 27.4174 31.0658 27.2965 31.2901 27.214C31.5143 27.1316 31.7547 27.0891 31.9976 27.0891C32.2404 27.0891 32.4808 27.1316 32.7051 27.214C32.9293 27.2965 33.133 27.4174 33.3045 27.5698L55.4562 47.2034C55.8028 47.5106 55.9976 47.9273 55.9976 48.3618C55.9976 48.7963 55.8028 49.213 55.4562 49.5202C55.1096 49.8274 54.6395 50 54.1493 50C53.6591 50 53.1889 49.8274 52.8423 49.5202L31.9976 31.0417L11.1528 49.5202C10.8062 49.8274 10.3361 50 9.84586 50C9.35566 50 8.88554 49.8274 8.53891 49.5202C8.19229 49.213 7.99756 48.7963 7.99756 48.3618C7.99756 47.9273 8.19229 47.5106 8.53891 47.2034L30.6906 27.5698Z" fill="#212529"/>
</svg>
