<svg width="64" height="64" viewBox="0 0 64 64" fill="none" xmlns="http://www.w3.org/2000/svg">
<g clip-path="url(#clip0_355_6756)">
<path d="M32 64C40.4869 64 48.6263 60.6286 54.6274 54.6274C60.6286 48.6263 64 40.4869 64 32C64 23.5131 60.6286 15.3737 54.6274 9.37258C48.6263 3.37142 40.4869 0 32 0C23.5131 0 15.3737 3.37142 9.37258 9.37258C3.37142 15.3737 0 23.5131 0 32C0 40.4869 3.37142 48.6263 9.37258 54.6274C15.3737 60.6286 23.5131 64 32 64ZM57.72 43.088C54.8814 49.649 49.649 54.8814 43.088 57.72L38.628 46.568C42.1438 44.9629 44.9629 42.1438 46.568 38.628L57.72 43.088ZM20.912 57.72C14.351 54.8814 9.11857 49.649 6.28 43.088L17.432 38.628C19.0371 42.1438 21.8562 44.9629 25.372 46.568L20.912 57.72ZM57.72 20.912L46.568 25.372C44.9629 21.8562 42.1438 19.0371 38.628 17.432L43.088 6.28C49.649 9.11857 54.8814 14.351 57.72 20.912ZM25.372 17.432C21.8562 19.0371 19.0371 21.8562 17.432 25.372L6.28 20.912C9.11857 14.351 14.351 9.11857 20.912 6.28L25.372 17.432ZM32 44C28.8174 44 25.7652 42.7357 23.5147 40.4853C21.2643 38.2348 20 35.1826 20 32C20 28.8174 21.2643 25.7652 23.5147 23.5147C25.7652 21.2643 28.8174 20 32 20C35.1826 20 38.2348 21.2643 40.4853 23.5147C42.7357 25.7652 44 28.8174 44 32C44 35.1826 42.7357 38.2348 40.4853 40.4853C38.2348 42.7357 35.1826 44 32 44Z" fill="#212529"/>
</g>
<defs>
<clipPath id="clip0_355_6756">
<rect width="64" height="64" fill="white"/>
</clipPath>
</defs>
</svg>
