<svg width="64" height="64" viewBox="0 0 64 64" fill="none" xmlns="http://www.w3.org/2000/svg">
<g clip-path="url(#clip0_355_6770)">
<path d="M46.9682 41.3764C50.8414 36.0912 52.5761 29.5384 51.8254 23.029C51.0747 16.5196 47.8938 10.5338 42.9192 6.26892C37.9446 2.00409 31.5432 -0.225184 24.9955 0.0271088C18.4479 0.279401 12.2369 2.99465 7.60525 7.62963C2.97358 12.2646 0.262775 18.4775 0.0151682 25.0253C-0.232439 31.5732 2.00141 37.973 6.2698 42.9446C10.5382 47.9161 16.5264 51.0927 23.0362 51.8387C29.5461 52.5848 36.0977 50.8454 41.3802 46.9684H41.3762C41.4962 47.1284 41.6242 47.2804 41.7682 47.4284L57.1682 62.8284C57.9182 63.579 58.9357 64.0008 59.9968 64.0012C61.0578 64.0016 62.0756 63.5804 62.8262 62.8304C63.5767 62.0804 63.9986 61.0629 63.999 60.0018C63.9994 58.9407 63.5782 57.923 62.8282 57.1724L47.4282 41.7724C47.2852 41.6276 47.1314 41.4939 46.9682 41.3724V41.3764ZM48.0002 26.0004C48.0002 28.8895 47.4311 31.7503 46.3255 34.4194C45.2199 37.0886 43.5994 39.5139 41.5565 41.5568C39.5136 43.5996 37.0884 45.2201 34.4192 46.3258C31.75 47.4314 28.8893 48.0004 26.0002 48.0004C23.1111 48.0004 20.2503 47.4314 17.5811 46.3258C14.912 45.2201 12.4867 43.5996 10.4438 41.5568C8.40094 39.5139 6.78043 37.0886 5.67482 34.4194C4.56922 31.7503 4.00017 28.8895 4.00017 26.0004C4.00017 20.1656 6.31802 14.5699 10.4438 10.4441C14.5696 6.31825 20.1654 4.0004 26.0002 4.0004C31.8349 4.0004 37.4307 6.31825 41.5565 10.4441C45.6823 14.5699 48.0002 20.1656 48.0002 26.0004Z" fill="#212529"/>
<path d="M25 12C23.4241 12 21.8637 12.3104 20.4078 12.9134C18.9519 13.5165 17.629 14.4004 16.5147 15.5147C15.4004 16.629 14.5165 17.9519 13.9134 19.4078C13.3104 20.8637 13 22.4241 13 24" stroke="black" stroke-width="4" stroke-linecap="round"/>
</g>
<defs>
<clipPath id="clip0_355_6770">
<rect width="64" height="64" fill="white"/>
</clipPath>
</defs>
</svg>
