<svg width="64" height="64" viewBox="0 0 64 64" fill="none" xmlns="http://www.w3.org/2000/svg">
<g clip-path="url(#clip0_355_6713)">
<path d="M18.16 0.584C18.5348 0.210124 19.0426 0.000112476 19.572 0H44.428C44.9574 0.000112476 45.4652 0.210124 45.84 0.584L63.416 18.16C63.7899 18.5348 63.9999 19.0426 64 19.572V44.428C63.9999 44.9574 63.7899 45.4652 63.416 45.84L45.84 63.416C45.4652 63.7899 44.9574 63.9999 44.428 64H19.572C19.0426 63.9999 18.5348 63.7899 18.16 63.416L0.584 45.84C0.210124 45.4652 0.000112476 44.9574 0 44.428V19.572C0.000112476 19.0426 0.210124 18.5348 0.584 18.16L18.16 0.584ZM20.4 4L4 20.4V43.6L20.4 60H43.6L60 43.6V20.4L43.6 4H20.4Z" fill="#212529"/>
<path d="M21.02 23.144C21.0145 23.2732 21.0355 23.4021 21.0817 23.5229C21.1279 23.6436 21.1983 23.7537 21.2886 23.8462C21.3789 23.9387 21.4872 24.0118 21.6068 24.061C21.7264 24.1101 21.8547 24.1343 21.984 24.132H25.284C25.836 24.132 26.276 23.68 26.348 23.132C26.708 20.508 28.508 18.596 31.716 18.596C34.46 18.596 36.972 19.968 36.972 23.268C36.972 25.808 35.476 26.976 33.112 28.752C30.42 30.708 28.288 32.992 28.44 36.7L28.452 37.568C28.4562 37.8304 28.5634 38.0807 28.7505 38.2648C28.9376 38.4489 29.1895 38.552 29.452 38.552H32.696C32.9612 38.552 33.2156 38.4466 33.4031 38.2591C33.5906 38.0716 33.696 37.8172 33.696 37.552V37.132C33.696 34.26 34.788 33.424 37.736 31.188C40.172 29.336 42.712 27.28 42.712 22.964C42.712 16.92 37.608 14 32.02 14C26.952 14 21.4 16.36 21.02 23.144ZM27.248 46.196C27.248 48.328 28.948 49.904 31.288 49.904C33.724 49.904 35.4 48.328 35.4 46.196C35.4 43.988 33.72 42.436 31.284 42.436C28.948 42.436 27.248 43.988 27.248 46.196Z" fill="#212529"/>
</g>
<defs>
<clipPath id="clip0_355_6713">
<rect width="64" height="64" fill="white"/>
</clipPath>
</defs>
</svg>
