<svg width="64" height="64" viewBox="0 0 64 64" fill="none" xmlns="http://www.w3.org/2000/svg">
<g clip-path="url(#clip0_348_6693)">
<path d="M45.84 0.584C45.4652 0.210124 44.9574 0.000112476 44.428 0L19.572 0C19.0426 0.000112476 18.5348 0.210124 18.16 0.584L0.584 18.16C0.210124 18.5348 0.000112476 19.0426 0 19.572L0 44.428C0.000112476 44.9574 0.210124 45.4652 0.584 45.84L18.16 63.416C18.5348 63.7899 19.0426 63.9999 19.572 64H44.428C44.9574 63.9999 45.4652 63.7899 45.84 63.416L63.416 45.84C63.7899 45.4652 63.9999 44.9574 64 44.428V19.572C63.9999 19.0426 63.7899 18.5348 63.416 18.16L45.84 0.584ZM32 16C34.14 16 35.816 17.848 35.6 19.98L34.2 34.008C34.153 34.5591 33.9008 35.0725 33.4934 35.4465C33.086 35.8206 32.5531 36.0282 32 36.0282C31.4469 36.0282 30.914 35.8206 30.5066 35.4465C30.0992 35.0725 29.847 34.5591 29.8 34.008L28.4 19.98C28.3497 19.4769 28.4054 18.9689 28.5634 18.4887C28.7214 18.0084 28.9782 17.5666 29.3174 17.1916C29.6565 16.8167 30.0704 16.517 30.5325 16.3117C30.9945 16.1065 31.4944 16.0003 32 16ZM32.008 40C33.0689 40 34.0863 40.4214 34.8364 41.1716C35.5866 41.9217 36.008 42.9391 36.008 44C36.008 45.0609 35.5866 46.0783 34.8364 46.8284C34.0863 47.5786 33.0689 48 32.008 48C30.9471 48 29.9297 47.5786 29.1796 46.8284C28.4294 46.0783 28.008 45.0609 28.008 44C28.008 42.9391 28.4294 41.9217 29.1796 41.1716C29.9297 40.4214 30.9471 40 32.008 40Z" fill="#212529"/>
</g>
<defs>
<clipPath id="clip0_348_6693">
<rect width="64" height="64" fill="white"/>
</clipPath>
</defs>
</svg>
