<svg width="64" height="64" viewBox="0 0 64 64" fill="none" xmlns="http://www.w3.org/2000/svg">
<path fill-rule="evenodd" clip-rule="evenodd" d="M32.005 12.343L56.007 36.3425V53.1701C56.007 54.7614 55.3748 56.2875 54.2495 57.4127C53.1242 58.5379 51.5979 59.17 50.0065 59.17H14.0035C12.4121 59.17 10.8858 58.5379 9.76053 57.4127C8.63521 56.2875 8.00302 54.7614 8.00302 53.1701V36.3425L32.005 12.343ZM52.0066 9.17104V23.1707L44.006 15.1709V9.17104C44.006 8.64062 44.2167 8.13192 44.5918 7.75685C44.9669 7.38179 45.4757 7.17108 46.0062 7.17108H50.0065C50.537 7.17108 51.0457 7.38179 51.4208 7.75685C51.7959 8.13192 52.0066 8.64062 52.0066 9.17104Z" fill="#212529"/>
<path fill-rule="evenodd" clip-rule="evenodd" d="M29.1768 5.17112C29.9269 4.42125 30.9443 4 32.005 4C33.0657 4 34.0831 4.42125 34.8332 5.17112L61.4234 31.7546C61.799 32.1301 62.01 32.6394 62.01 33.1705C62.01 33.7016 61.799 34.211 61.4234 34.5865C61.0479 34.962 60.5385 35.173 60.0073 35.173C59.4762 35.173 58.9668 34.962 58.5912 34.5865L32.005 7.99906L5.41881 34.5865C5.04323 34.962 4.53384 35.173 4.00269 35.173C3.47154 35.173 2.96215 34.962 2.58657 34.5865C2.211 34.211 2 33.7016 2 33.1705C2 32.6394 2.211 32.1301 2.58657 31.7546L29.1768 5.17112Z" fill="#212529"/>
</svg>
