<svg width="64" height="64" viewBox="0 0 64 64" fill="none" xmlns="http://www.w3.org/2000/svg">
<g clip-path="url(#clip0_355_6810)">
<path d="M64 32C64 40.4869 60.6286 48.6263 54.6274 54.6274C48.6263 60.6286 40.4869 64 32 64C23.5131 64 15.3737 60.6286 9.37258 54.6274C3.37142 48.6263 0 40.4869 0 32C0 23.5131 3.37142 15.3737 9.37258 9.37258C15.3737 3.37142 23.5131 0 32 0C40.4869 0 48.6263 3.37142 54.6274 9.37258C60.6286 15.3737 64 23.5131 64 32ZM25 20C22.24 20 20 22.24 20 25V39C20 40.3261 20.5268 41.5979 21.4645 42.5355C22.4021 43.4732 23.6739 44 25 44C26.3261 44 27.5979 43.4732 28.5355 42.5355C29.4732 41.5979 30 40.3261 30 39V25C30 22.24 27.76 20 25 20ZM39 20C36.24 20 34 22.24 34 25V39C34 40.3261 34.5268 41.5979 35.4645 42.5355C36.4021 43.4732 37.6739 44 39 44C40.3261 44 41.5979 43.4732 42.5355 42.5355C43.4732 41.5979 44 40.3261 44 39V25C44 22.24 41.76 20 39 20Z" fill="#212529"/>
</g>
<defs>
<clipPath id="clip0_355_6810">
<rect width="64" height="64" fill="white"/>
</clipPath>
</defs>
</svg>
