<svg width="64" height="64" viewBox="0 0 64 64" fill="none" xmlns="http://www.w3.org/2000/svg">
<path d="M33.416 4.58367C33.2302 4.39742 33.0095 4.24964 32.7665 4.14882C32.5236 4.04799 32.2631 3.99609 32 3.99609C31.7369 3.99609 31.4764 4.04799 31.2335 4.14882C30.9905 4.24964 30.7698 4.39742 30.584 4.58367L6.584 28.5837C6.3984 28.7697 6.25128 28.9906 6.15108 29.2335C6.05087 29.4765 5.99953 29.7368 6 29.9997V57.9997C6 58.5301 6.21072 59.0388 6.58579 59.4139C6.96086 59.789 7.46957 59.9997 8 59.9997H26C26.5304 59.9997 27.0391 59.789 27.4142 59.4139C27.7893 59.0388 28 58.5301 28 57.9997V41.9997H36V57.9997C36 58.5301 36.2107 59.0388 36.5858 59.4139C36.9609 59.789 37.4696 59.9997 38 59.9997H56C56.5304 59.9997 57.0391 59.789 57.4142 59.4139C57.7893 59.0388 58 58.5301 58 57.9997V29.9997C58.0005 29.7368 57.9491 29.4765 57.8489 29.2335C57.7487 28.9906 57.6016 28.7697 57.416 28.5837L52 23.1717V9.99967C52 9.46924 51.7893 8.96053 51.4142 8.58546C51.0391 8.21038 50.5304 7.99967 50 7.99967H46C45.4696 7.99967 44.9609 8.21038 44.5858 8.58546C44.2107 8.96053 44 9.46924 44 9.99967V15.1717L33.416 4.58367ZM10 55.9997V30.8277L32 8.82767L54 30.8277V55.9997H40V39.9997C40 39.4692 39.7893 38.9605 39.4142 38.5855C39.0391 38.2104 38.5304 37.9997 38 37.9997H26C25.4696 37.9997 24.9609 38.2104 24.5858 38.5855C24.2107 38.9605 24 39.4692 24 39.9997V55.9997H10Z" fill="#212529"/>
</svg>
