<svg width="64" height="64" viewBox="0 0 64 64" fill="none" xmlns="http://www.w3.org/2000/svg">
<path d="M0 16C0 13.8783 0.842855 11.8434 2.34315 10.3431C3.84344 8.84285 5.87827 8 8 8H56C58.1217 8 60.1566 8.84285 61.6569 10.3431C63.1571 11.8434 64 13.8783 64 16V48C64 50.1217 63.1571 52.1566 61.6569 53.6569C60.1566 55.1571 58.1217 56 56 56H8C5.87827 56 3.84344 55.1571 2.34315 53.6569C0.842855 52.1566 0 50.1217 0 48V16ZM8 12C6.93913 12 5.92172 12.4214 5.17157 13.1716C4.42143 13.9217 4 14.9391 4 16V16.868L32 33.668L60 16.868V16C60 14.9391 59.5786 13.9217 58.8284 13.1716C58.0783 12.4214 57.0609 12 56 12H8ZM60 21.532L41.168 32.832L60 44.42V21.532ZM59.864 49.036L37.304 35.152L32 38.332L26.696 35.152L4.136 49.032C4.3633 49.8832 4.86527 50.6355 5.56396 51.1722C6.26265 51.7089 7.11898 51.9999 8 52H56C56.8805 52.0001 57.7364 51.7097 58.435 51.1738C59.1337 50.6379 59.636 49.8864 59.864 49.036ZM4 44.42L22.832 32.832L4 21.532V44.42Z" fill="#212529"/>
</svg>
