<svg width="64" height="64" viewBox="0 0 64 64" fill="none" xmlns="http://www.w3.org/2000/svg">
<path d="M10 32.0004C9.99943 28.1383 11.0155 24.3441 12.9462 20.9992C14.8768 17.6543 17.654 14.8766 20.9985 12.9453C24.3431 11.014 28.1371 9.99716 31.9992 9.99701C35.8613 9.99685 39.6554 11.0134 43 12.9444C43.4592 13.2055 44.0029 13.2743 44.5126 13.1359C45.0223 12.9976 45.4565 12.6632 45.7206 12.2058C45.9847 11.7485 46.0571 11.2052 45.9221 10.6946C45.7871 10.184 45.4557 9.74755 45 9.48045C40.0435 6.61877 34.2812 5.47253 28.6068 6.21949C22.9324 6.96644 17.663 9.56485 13.6159 13.6117C9.5687 17.6586 6.96995 22.9278 6.22263 28.6022C5.47531 34.2765 6.62119 40.0389 9.48254 44.9957C12.3439 49.9524 16.7608 53.8265 22.0483 56.0172C27.3358 58.2078 33.1984 58.5926 38.7269 57.1118C44.2554 55.6311 49.1408 52.3675 52.6254 47.8272C56.1101 43.287 57.9993 37.7238 58 32.0004C58 31.47 57.7893 30.9613 57.4143 30.5862C57.0392 30.2112 56.5305 30.0004 56 30.0004C55.4696 30.0004 54.9609 30.2112 54.5858 30.5862C54.2108 30.9613 54 31.47 54 32.0004C54 37.8352 51.6822 43.431 47.5564 47.5568C43.4306 51.6826 37.8348 54.0004 32 54.0004C26.1653 54.0004 20.5695 51.6826 16.4437 47.5568C12.3179 43.431 10 37.8352 10 32.0004Z" fill="#212529"/>
<path d="M61.416 13.4164C61.602 13.2305 61.7495 13.0097 61.8501 12.7668C61.9508 12.5238 62.0026 12.2634 62.0026 12.0004C62.0026 11.7375 61.9508 11.4771 61.8501 11.2341C61.7495 10.9912 61.602 10.7704 61.416 10.5844C61.2301 10.3985 61.0093 10.251 60.7664 10.1504C60.5234 10.0497 60.263 9.99792 60 9.99792C59.7371 9.99792 59.4767 10.0497 59.2337 10.1504C58.9907 10.251 58.77 10.3985 58.584 10.5844L32 37.1724L21.416 26.5844C21.2301 26.3985 21.0093 26.251 20.7664 26.1504C20.5234 26.0497 20.263 25.9979 20 25.9979C19.7371 25.9979 19.4767 26.0497 19.2337 26.1504C18.9907 26.251 18.77 26.3985 18.584 26.5844C18.3981 26.7704 18.2506 26.9912 18.1499 27.2341C18.0493 27.4771 17.9975 27.7375 17.9975 28.0004C17.9975 28.2634 18.0493 28.5238 18.1499 28.7668C18.2506 29.0097 18.3981 29.2305 18.584 29.4164L30.584 41.4164C30.7698 41.6027 30.9905 41.7505 31.2335 41.8513C31.4765 41.9521 31.737 42.004 32 42.004C32.2631 42.004 32.5236 41.9521 32.7666 41.8513C33.0096 41.7505 33.2303 41.6027 33.416 41.4164L61.416 13.4164Z" fill="#212529"/>
</svg>
