<svg width="64" height="64" viewBox="0 0 64 64" fill="none" xmlns="http://www.w3.org/2000/svg">
<g clip-path="url(#clip0_348_6697)">
<path d="M36.1999 1.74C33.8799 -0.58 30.1199 -0.58 27.7999 1.74L1.74391 27.8C-0.576094 30.12 -0.576094 33.876 1.74391 36.192L27.8079 62.256C30.1279 64.576 33.8839 64.576 36.1999 62.256L62.2639 36.192C64.5839 33.872 64.5839 30.116 62.2639 27.8L36.1999 1.74ZM31.9999 16C34.1399 16 35.8159 17.848 35.5999 19.98L34.1999 34.008C34.1529 34.5591 33.9007 35.0725 33.4933 35.4465C33.0859 35.8206 32.553 36.0282 31.9999 36.0282C31.4468 36.0282 30.9139 35.8206 30.5065 35.4465C30.0991 35.0725 29.8469 34.5591 29.7999 34.008L28.3999 19.98C28.3496 19.4769 28.4053 18.9689 28.5633 18.4887C28.7213 18.0084 28.9781 17.5666 29.3173 17.1916C29.6564 16.8167 30.0704 16.517 30.5324 16.3117C30.9944 16.1065 31.4943 16.0003 31.9999 16ZM32.0079 40C33.0688 40 34.0862 40.4214 34.8363 41.1716C35.5865 41.9217 36.0079 42.9391 36.0079 44C36.0079 45.0609 35.5865 46.0783 34.8363 46.8284C34.0862 47.5786 33.0688 48 32.0079 48C30.947 48 29.9296 47.5786 29.1795 46.8284C28.4293 46.0783 28.0079 45.0609 28.0079 44C28.0079 42.9391 28.4293 41.9217 29.1795 41.1716C29.9296 40.4214 30.947 40 32.0079 40Z" fill="#212529"/>
</g>
<defs>
<clipPath id="clip0_348_6697">
<rect width="64" height="64" fill="white"/>
</clipPath>
</defs>
</svg>
