<svg width="64" height="64" viewBox="0 0 64 64" fill="none" xmlns="http://www.w3.org/2000/svg">
<path d="M20 12C20 8.8174 21.2643 5.76515 23.5147 3.51472C25.7652 1.26428 28.8174 0 32 0C35.1826 0 38.2348 1.26428 40.4853 3.51472C42.7357 5.76515 44 8.8174 44 12V32C44 35.1826 42.7357 38.2348 40.4853 40.4853C38.2348 42.7357 35.1826 44 32 44C28.8174 44 25.7652 42.7357 23.5147 40.4853C21.2643 38.2348 20 35.1826 20 32V12Z" fill="#212529"/>
<path d="M14 26C14.5304 26 15.0391 26.2107 15.4142 26.5858C15.7893 26.9609 16 27.4696 16 28V32C16 36.2435 17.6857 40.3131 20.6863 43.3137C23.6869 46.3143 27.7565 48 32 48C36.2435 48 40.3131 46.3143 43.3137 43.3137C46.3143 40.3131 48 36.2435 48 32V28C48 27.4696 48.2107 26.9609 48.5858 26.5858C48.9609 26.2107 49.4696 26 50 26C50.5304 26 51.0391 26.2107 51.4142 26.5858C51.7893 26.9609 52 27.4696 52 28V32C52.0001 36.9581 50.1585 41.7395 46.8325 45.4166C43.5065 49.0936 38.9333 51.4042 34 51.9V60H46C46.5304 60 47.0391 60.2107 47.4142 60.5858C47.7893 60.9609 48 61.4696 48 62C48 62.5304 47.7893 63.0391 47.4142 63.4142C47.0391 63.7893 46.5304 64 46 64H18C17.4696 64 16.9609 63.7893 16.5858 63.4142C16.2107 63.0391 16 62.5304 16 62C16 61.4696 16.2107 60.9609 16.5858 60.5858C16.9609 60.2107 17.4696 60 18 60H30V51.9C25.0667 51.4042 20.4935 49.0936 17.1675 45.4166C13.8415 41.7395 11.9999 36.9581 12 32V28C12 27.4696 12.2107 26.9609 12.5858 26.5858C12.9609 26.2107 13.4696 26 14 26Z" fill="#212529"/>
</svg>
