<svg width="64" height="64" viewBox="0 0 64 64" fill="none" xmlns="http://www.w3.org/2000/svg">
<g clip-path="url(#clip0_355_6727)">
<path d="M0 8C0 5.87827 0.842855 3.84344 2.34315 2.34315C3.84344 0.842855 5.87827 0 8 0L56 0C58.1217 0 60.1566 0.842855 61.6569 2.34315C63.1571 3.84344 64 5.87827 64 8V56C64 58.1217 63.1571 60.1566 61.6569 61.6569C60.1566 63.1571 58.1217 64 56 64H8C5.87827 64 3.84344 63.1571 2.34315 61.6569C0.842855 60.1566 0 58.1217 0 56V8ZM35.72 26.352L26.56 27.5L26.232 29.02L28.032 29.352C29.208 29.632 29.44 30.056 29.184 31.228L26.232 45.1C25.456 48.688 26.652 50.376 29.464 50.376C31.644 50.376 34.176 49.368 35.324 47.984L35.676 46.32C34.876 47.024 33.708 47.304 32.932 47.304C31.832 47.304 31.432 46.532 31.716 45.172L35.72 26.352ZM32 22C33.0609 22 34.0783 21.5786 34.8284 20.8284C35.5786 20.0783 36 19.0609 36 18C36 16.9391 35.5786 15.9217 34.8284 15.1716C34.0783 14.4214 33.0609 14 32 14C30.9391 14 29.9217 14.4214 29.1716 15.1716C28.4214 15.9217 28 16.9391 28 18C28 19.0609 28.4214 20.0783 29.1716 20.8284C29.9217 21.5786 30.9391 22 32 22Z" fill="#212529"/>
</g>
<defs>
<clipPath id="clip0_355_6727">
<rect width="64" height="64" fill="white"/>
</clipPath>
</defs>
</svg>
