<svg width="64" height="64" viewBox="0 0 64 64" fill="none" xmlns="http://www.w3.org/2000/svg">
<path fill-rule="evenodd" clip-rule="evenodd" d="M14.5842 6.58758C14.7699 6.40132 14.9906 6.25355 15.2336 6.15273C15.4766 6.0519 15.7371 6 16.0002 6C16.2632 6 16.5237 6.0519 16.7667 6.15273C17.0097 6.25355 17.2304 6.40132 17.4162 6.58758L41.4162 30.5876C41.6024 30.7734 41.7502 30.9941 41.851 31.237C41.9518 31.48 42.0037 31.7405 42.0037 32.0036C42.0037 32.2666 41.9518 32.5271 41.851 32.7701C41.7502 33.0131 41.6024 33.2338 41.4162 33.4196L17.4162 57.4196C17.0406 57.7951 16.5313 58.0061 16.0002 58.0061C15.4691 58.0061 14.9597 57.7951 14.5842 57.4196C14.2086 57.044 13.9976 56.5347 13.9976 56.0036C13.9976 55.4725 14.2086 54.9631 14.5842 54.5876L37.1722 32.0036L14.5842 9.41958C14.3979 9.23379 14.2501 9.01309 14.1493 8.77011C14.0485 8.52713 13.9966 8.26664 13.9966 8.00358C13.9966 7.74051 14.0485 7.48002 14.1493 7.23704C14.2501 6.99406 14.3979 6.77336 14.5842 6.58758Z" fill="white"/>
<path fill-rule="evenodd" clip-rule="evenodd" d="M30.5842 6.58758C30.7699 6.40132 30.9906 6.25355 31.2336 6.15273C31.4766 6.0519 31.7371 6 32.0002 6C32.2632 6 32.5237 6.0519 32.7667 6.15273C33.0097 6.25355 33.2304 6.40132 33.4162 6.58758L57.4162 30.5876C57.6024 30.7734 57.7502 30.9941 57.851 31.237C57.9518 31.48 58.0037 31.7405 58.0037 32.0036C58.0037 32.2666 57.9518 32.5271 57.851 32.7701C57.7502 33.0131 57.6024 33.2338 57.4162 33.4196L33.4162 57.4196C33.0406 57.7951 32.5313 58.0061 32.0002 58.0061C31.4691 58.0061 30.9597 57.7951 30.5842 57.4196C30.2086 57.044 29.9976 56.5347 29.9976 56.0036C29.9976 55.4725 30.2086 54.9631 30.5842 54.5876L53.1722 32.0036L30.5842 9.41958C30.3979 9.23379 30.2501 9.01309 30.1493 8.77011C30.0485 8.52713 29.9966 8.26664 29.9966 8.00358C29.9966 7.74051 30.0485 7.48002 30.1493 7.23704C30.2501 6.99406 30.3979 6.77336 30.5842 6.58758Z" fill="white"/>
</svg>
