<svg width="64" height="64" viewBox="0 0 64 64" fill="none" xmlns="http://www.w3.org/2000/svg">
<g clip-path="url(#clip0_348_6640)">
<path d="M32 63.9996C34.1217 63.9996 36.1566 63.1567 37.6569 61.6564C39.1571 60.1562 40 58.1213 40 55.9996H24C24 58.1213 24.8429 60.1562 26.3431 61.6564C27.8434 63.1567 29.8783 63.9996 32 63.9996ZM32 7.67159L28.812 8.31559C25.1958 9.05239 21.9453 11.016 19.6106 13.8741C17.2759 16.7322 16.0004 20.3091 16 23.9996C16 26.5116 15.464 32.7876 14.164 38.9676C13.524 42.0356 12.66 45.2316 11.512 47.9996H52.488C51.34 45.2316 50.48 42.0396 49.836 38.9676C48.536 32.7876 48 26.5116 48 23.9996C47.9987 20.3098 46.7228 16.7338 44.3881 13.8765C42.0535 11.0193 38.8035 9.05626 35.188 8.31959L32 7.66759V7.67159ZM56.88 47.9996C57.772 49.7876 58.804 51.2036 60 51.9996H4C5.196 51.2036 6.228 49.7876 7.12 47.9996C10.72 40.7996 12 27.5196 12 23.9996C12 14.3196 18.88 6.23959 28.02 4.39559C27.9642 3.83941 28.0255 3.2777 28.2001 2.74669C28.3747 2.21567 28.6587 1.72715 29.0337 1.31263C29.4087 0.898099 29.8664 0.566772 30.3773 0.340012C30.8882 0.113252 31.441 -0.00390625 32 -0.00390625C32.559 -0.00390625 33.1118 0.113252 33.6227 0.340012C34.1336 0.566772 34.5913 0.898099 34.9663 1.31263C35.3413 1.72715 35.6253 2.21567 35.7999 2.74669C35.9745 3.2777 36.0358 3.83941 35.98 4.39559C40.5011 5.3152 44.5655 7.76904 47.4849 11.3416C50.4044 14.9142 51.9994 19.3859 52 23.9996C52 27.5196 53.28 40.7996 56.88 47.9996Z" fill="#212529"/>
</g>
<defs>
<clipPath id="clip0_348_6640">
<rect width="64" height="64" fill="white"/>
</clipPath>
</defs>
</svg>
