<svg width="64" height="64" viewBox="0 0 64 64" fill="none" xmlns="http://www.w3.org/2000/svg">
<path fill-rule="evenodd" clip-rule="evenodd" d="M42 4C42.5304 4 43.0391 4.21071 43.4142 4.58579C43.7893 4.96086 44 5.46957 44 6V22C44 22.5304 43.7893 23.0391 43.4142 23.4142C43.0391 23.7893 42.5304 24 42 24C41.4696 24 40.9609 23.7893 40.5858 23.4142C40.2107 23.0391 40 22.5304 40 22V16H6C5.46957 16 4.96086 15.7893 4.58579 15.4142C4.21071 15.0391 4 14.5304 4 14C4 13.4696 4.21071 12.9609 4.58579 12.5858C4.96086 12.2107 5.46957 12 6 12H40V6C40 5.46957 40.2107 4.96086 40.5858 4.58579C40.9609 4.21071 41.4696 4 42 4ZM48 14C48 13.4696 48.2107 12.9609 48.5858 12.5858C48.9609 12.2107 49.4696 12 50 12H58C58.5304 12 59.0391 12.2107 59.4142 12.5858C59.7893 12.9609 60 13.4696 60 14C60 14.5304 59.7893 15.0391 59.4142 15.4142C59.0391 15.7893 58.5304 16 58 16H50C49.4696 16 48.9609 15.7893 48.5858 15.4142C48.2107 15.0391 48 14.5304 48 14ZM22 22C22.5304 22 23.0391 22.2107 23.4142 22.5858C23.7893 22.9609 24 23.4696 24 24V30H58C58.5304 30 59.0391 30.2107 59.4142 30.5858C59.7893 30.9609 60 31.4696 60 32C60 32.5304 59.7893 33.0391 59.4142 33.4142C59.0391 33.7893 58.5304 34 58 34H24V40C24 40.5304 23.7893 41.0391 23.4142 41.4142C23.0391 41.7893 22.5304 42 22 42C21.4696 42 20.9609 41.7893 20.5858 41.4142C20.2107 41.0391 20 40.5304 20 40V24C20 23.4696 20.2107 22.9609 20.5858 22.5858C20.9609 22.2107 21.4696 22 22 22ZM4 32C4 31.4696 4.21071 30.9609 4.58579 30.5858C4.96086 30.2107 5.46957 30 6 30H14C14.5304 30 15.0391 30.2107 15.4142 30.5858C15.7893 30.9609 16 31.4696 16 32C16 32.5304 15.7893 33.0391 15.4142 33.4142C15.0391 33.7893 14.5304 34 14 34H6C5.46957 34 4.96086 33.7893 4.58579 33.4142C4.21071 33.0391 4 32.5304 4 32ZM42 40C42.5304 40 43.0391 40.2107 43.4142 40.5858C43.7893 40.9609 44 41.4696 44 42V58C44 58.5304 43.7893 59.0391 43.4142 59.4142C43.0391 59.7893 42.5304 60 42 60C41.4696 60 40.9609 59.7893 40.5858 59.4142C40.2107 59.0391 40 58.5304 40 58V52H6C5.46957 52 4.96086 51.7893 4.58579 51.4142C4.21071 51.0391 4 50.5304 4 50C4 49.4696 4.21071 48.9609 4.58579 48.5858C4.96086 48.2107 5.46957 48 6 48H40V42C40 41.4696 40.2107 40.9609 40.5858 40.5858C40.9609 40.2107 41.4696 40 42 40ZM48 50C48 49.4696 48.2107 48.9609 48.5858 48.5858C48.9609 48.2107 49.4696 48 50 48H58C58.5304 48 59.0391 48.2107 59.4142 48.5858C59.7893 48.9609 60 49.4696 60 50C60 50.5304 59.7893 51.0391 59.4142 51.4142C59.0391 51.7893 58.5304 52 58 52H50C49.4696 52 48.9609 51.7893 48.5858 51.4142C48.2107 51.0391 48 50.5304 48 50Z" fill="black"/>
</svg>
