<svg width="64" height="64" viewBox="0 0 64 64" fill="none" xmlns="http://www.w3.org/2000/svg">
<g clip-path="url(#clip0_355_6739)">
<path d="M0 32C0 23.5131 3.37142 15.3737 9.37258 9.37258C15.3737 3.37142 23.5131 0 32 0C40.4869 0 48.6263 3.37142 54.6274 9.37258C60.6286 15.3737 64 23.5131 64 32C64 40.4869 60.6286 48.6263 54.6274 54.6274C48.6263 60.6286 40.4869 64 32 64C23.5131 64 15.3737 60.6286 9.37258 54.6274C3.37142 48.6263 0 40.4869 0 32ZM30 4.308C27.32 5.124 24.66 7.588 22.452 11.728C21.88 12.8 21.348 13.968 20.872 15.216C23.692 15.844 26.76 16.244 30 16.364V4.308ZM16.996 14.156C17.564 12.62 18.212 11.18 18.92 9.844C19.6116 8.53622 20.4104 7.28796 21.308 6.112C17.9027 7.5232 14.809 9.59198 12.204 12.2C13.652 12.936 15.256 13.596 16.996 14.16V14.156ZM14.036 30C14.18 25.72 14.788 21.652 15.78 17.968C13.6148 17.2756 11.519 16.3824 9.52 15.3C6.33418 19.5774 4.44329 24.6795 4.072 30H14.032H14.036ZM19.636 19.036C18.693 22.6191 18.1563 26.2969 18.036 30H30V20.364C26.36 20.244 22.868 19.784 19.636 19.036ZM34 20.36V30H45.96C45.8411 26.297 45.3057 22.6192 44.364 19.036C41.132 19.784 37.64 20.24 34 20.364V20.36ZM18.04 34C18.18 37.948 18.744 41.656 19.636 44.964C23.0402 44.1915 26.5109 43.7481 30 43.64V34H18.04ZM34 34V43.636C37.64 43.756 41.132 44.216 44.364 44.964C45.256 41.656 45.82 37.948 45.964 34H34ZM20.872 48.784C21.352 50.032 21.88 51.2 22.452 52.272C24.66 56.412 27.324 58.872 30 59.692V47.64C26.76 47.76 23.692 48.16 20.872 48.788V48.784ZM21.312 57.888C20.4129 56.7122 19.6128 55.464 18.92 54.156C18.1833 52.7618 17.5405 51.3199 16.996 49.84C15.3505 50.3688 13.7484 51.0241 12.204 51.8C14.809 54.408 17.9027 56.4768 21.308 57.888H21.312ZM15.78 46.032C14.7415 42.1009 14.155 38.0641 14.032 34H4.072C4.44306 39.3206 6.33398 44.4227 9.52 48.7C11.4 47.668 13.5 46.772 15.78 46.032ZM42.692 57.888C46.0956 56.4776 49.1879 54.4102 51.792 51.804C50.2489 51.0282 48.6481 50.3729 47.004 49.844C46.4593 51.3225 45.8166 52.7631 45.08 54.156C44.3886 55.4639 43.5898 56.7122 42.692 57.888ZM34 47.636V59.692C36.68 58.876 39.34 56.412 41.548 52.272C42.12 51.2 42.652 50.032 43.128 48.784C40.1265 48.1259 37.0711 47.7429 34 47.64V47.636ZM48.22 46.032C50.5 46.772 52.6 47.668 54.48 48.7C57.666 44.4227 59.5569 39.3206 59.928 34H49.968C49.845 38.0641 49.2585 42.1009 48.22 46.032ZM59.928 30C59.5569 24.6794 57.666 19.5773 54.48 15.3C52.6 16.332 50.5 17.228 48.22 17.968C49.212 21.648 49.82 25.72 49.968 30H59.928ZM45.08 9.844C45.788 11.18 46.436 12.62 47.008 14.156C48.6508 13.627 50.2502 12.9717 51.792 12.196C49.1875 9.59129 46.0952 7.52528 42.692 6.116C43.564 7.248 44.364 8.504 45.08 9.844ZM43.128 15.216C42.6736 14.0219 42.1459 12.8571 41.548 11.728C39.34 7.588 36.68 5.128 34 4.308V16.36C37.24 16.24 40.308 15.84 43.128 15.212V15.216Z" fill="#212529"/>
</g>
<defs>
<clipPath id="clip0_355_6739">
<rect width="64" height="64" fill="white"/>
</clipPath>
</defs>
</svg>
