<svg width="64" height="64" viewBox="0 0 64 64" fill="none" xmlns="http://www.w3.org/2000/svg">
<g clip-path="url(#clip0_886_1678)">
<path d="M52 10C52 8.4087 52.6321 6.88258 53.7574 5.75736C54.8826 4.63214 56.4087 4 58 4C59.5913 4 61.1174 4.63214 62.2426 5.75736C63.3679 6.88258 64 8.4087 64 10V54C64 55.5913 63.3679 57.1174 62.2426 58.2426C61.1174 59.3679 59.5913 60 58 60C56.4087 60 54.8826 59.3679 53.7574 58.2426C52.6321 57.1174 52 55.5913 52 54V53.144C43.352 48.18 34.04 45.772 24.352 44.812L25.972 55.66C26.0808 56.2379 26.0608 56.8327 25.9135 57.4021C25.7662 57.9714 25.4951 58.5012 25.1197 58.9538C24.7442 59.4064 24.2736 59.7707 23.7413 60.0207C23.209 60.2706 22.6281 60.4002 22.04 60.4H19.848C19.0705 60.3999 18.3098 60.1733 17.6591 59.7477C17.0084 59.3222 16.4958 58.7163 16.184 58.004L8.784 44.044C8.51467 44.0396 8.24534 44.0356 7.976 44.032C5.85746 44.011 3.83248 43.1562 2.33962 41.6529C0.846762 40.1495 0.00620738 38.1186 0 36L0 28C0.00713913 25.8812 0.846279 23.8499 2.33665 22.3438C3.82703 20.8378 5.84936 19.9774 7.968 19.948C11.2801 19.9031 14.5912 19.8031 17.9 19.648C30.072 19.032 42.492 16.252 52 10.852V10ZM56 10V54C56 54.5304 56.2107 55.0391 56.5858 55.4142C56.9609 55.7893 57.4696 56 58 56C58.5304 56 59.0391 55.7893 59.4142 55.4142C59.7893 55.0391 60 54.5304 60 54V10C60 9.46957 59.7893 8.96086 59.4142 8.58579C59.0391 8.21071 58.5304 8 58 8C57.4696 8 56.9609 8.21071 56.5858 8.58579C56.2107 8.96086 56 9.46957 56 10ZM52 15.4C42.624 20.22 31.164 22.768 20 23.532V40.464C20.72 40.504 21.436 40.552 22.148 40.608C32.42 41.364 42.52 43.584 52 48.58V15.4ZM16 40.26V23.74C13.3448 23.8372 10.6887 23.9065 8.032 23.948C6.96309 23.9606 5.9418 24.3921 5.18778 25.1499C4.43377 25.9076 4.00726 26.931 4 28V36C4 38.2 5.792 40.008 8.024 40.036C10.6837 40.0668 13.3427 40.1415 16 40.26ZM13.372 44.16L19.808 56.308L19.848 56.404H22.04L22.032 56.348L20.26 44.484C17.9655 44.3456 15.6693 44.2362 13.372 44.156V44.16Z" fill="#212529"/>
</g>
<defs>
<clipPath id="clip0_886_1678">
<rect width="64" height="64" fill="white"/>
</clipPath>
</defs>
</svg>
