<svg width="64" height="64" viewBox="0 0 64 64" fill="none" xmlns="http://www.w3.org/2000/svg">
<g clip-path="url(#clip0_348_6705)">
<path d="M35.9278 6.26381C35.5318 5.57406 34.9609 5.00101 34.2726 4.6025C33.5843 4.20399 32.8031 3.99414 32.0078 3.99414C31.2125 3.99414 30.4312 4.20399 29.743 4.6025C29.0547 5.00101 28.4837 5.57406 28.0878 6.26381L0.659784 52.9318C-1.16822 56.0438 1.02378 59.9998 4.57978 59.9998H59.4318C62.9878 59.9998 65.1838 56.0398 63.3518 52.9318L35.9278 6.26381ZM31.9998 19.9998C34.1398 19.9998 35.8158 21.8478 35.5998 23.9798L34.1998 38.0078C34.1527 38.5589 33.9006 39.0723 33.4932 39.4464C33.0858 39.8204 32.5529 40.028 31.9998 40.028C31.4467 40.028 30.9137 39.8204 30.5064 39.4464C30.099 39.0723 29.8468 38.5589 29.7998 38.0078L28.3998 23.9798C28.3495 23.4767 28.4052 22.9687 28.5632 22.4885C28.7212 22.0082 28.978 21.5664 29.3172 21.1915C29.6563 20.8165 30.0702 20.5168 30.5323 20.3115C30.9943 20.1063 31.4942 20.0001 31.9998 19.9998ZM32.0078 43.9998C33.0686 43.9998 34.0861 44.4212 34.8362 45.1714C35.5864 45.9215 36.0078 46.9389 36.0078 47.9998C36.0078 49.0607 35.5864 50.0781 34.8362 50.8282C34.0861 51.5784 33.0686 51.9998 32.0078 51.9998C30.9469 51.9998 29.9295 51.5784 29.1794 50.8282C28.4292 50.0781 28.0078 49.0607 28.0078 47.9998C28.0078 46.9389 28.4292 45.9215 29.1794 45.1714C29.9295 44.4212 30.9469 43.9998 32.0078 43.9998Z" fill="#212529"/>
</g>
<defs>
<clipPath id="clip0_348_6705">
<rect width="64" height="64" fill="white"/>
</clipPath>
</defs>
</svg>
