<svg width="64" height="64" viewBox="0 0 64 64" fill="none" xmlns="http://www.w3.org/2000/svg">
<g clip-path="url(#clip0_2037_2816)">
<path d="M24 1.11222C24.3905 1.58667 24.6297 2.16731 24.6867 2.77911C24.7437 3.39091 24.616 4.00576 24.32 4.54422C22.0074 8.79012 20.7997 13.5494 20.808 18.3842C20.808 34.4682 33.92 47.4922 50.08 47.4922C52.188 47.4922 54.24 47.2722 56.212 46.8522C56.8165 46.7213 57.4462 46.7714 58.0224 46.9962C58.5986 47.221 59.0958 47.6105 59.452 48.1162C59.828 48.642 60.0196 49.2773 59.9972 49.9233C59.9748 50.5693 59.7395 51.1898 59.328 51.6882C56.1907 55.542 52.233 58.647 47.7433 60.777C43.2537 62.9069 38.3453 64.0081 33.376 64.0002C14.936 64.0002 0 49.1442 0 30.8402C0 17.0642 8.456 5.24822 20.496 0.240217C21.0958 -0.0132551 21.7616 -0.0652793 22.3934 0.0919601C23.0252 0.249199 23.589 0.607212 24 1.11222V1.11222Z" fill="white"/>
</g>
<defs>
<clipPath id="clip0_2037_2816">
<rect width="64" height="64" fill="white"/>
</clipPath>
</defs>
</svg>
