<svg width="64" height="64" viewBox="0 0 64 64" fill="none" xmlns="http://www.w3.org/2000/svg">
<path fill-rule="evenodd" clip-rule="evenodd" d="M36.4271 8.54231C36.5795 8.71379 36.7004 8.91749 36.7829 9.14175C36.8653 9.36601 36.9078 9.60643 36.9078 9.84924C36.9078 10.092 36.8653 10.3325 36.7829 10.5567C36.7004 10.781 36.5795 10.9847 36.4271 11.1562L17.949 32.0005L36.4271 52.8448C36.7344 53.1914 36.9069 53.6615 36.9069 54.1517C36.9069 54.6419 36.7344 55.112 36.4271 55.4587C36.1199 55.8053 35.7032 56 35.2688 56C34.8343 56 34.4176 55.8053 34.1104 55.4587L14.4772 33.3074C14.3249 33.1359 14.204 32.9322 14.1215 32.708C14.039 32.4837 13.9966 32.2433 13.9966 32.0005C13.9966 31.7577 14.039 31.5173 14.1215 31.293C14.204 31.0687 14.3249 30.865 14.4772 30.6936L34.1104 8.54231C34.2624 8.37041 34.4429 8.23402 34.6417 8.14096C34.8405 8.0479 35.0536 8 35.2688 8C35.484 8 35.6971 8.0479 35.8958 8.14096C36.0946 8.23402 36.2752 8.37041 36.4271 8.54231Z" fill="#212529"/>
<path fill-rule="evenodd" clip-rule="evenodd" d="M49.5159 8.54231C49.6683 8.71379 49.7892 8.91749 49.8716 9.14175C49.9541 9.36601 49.9966 9.60643 49.9966 9.84924C49.9966 10.092 49.9541 10.3325 49.8716 10.5567C49.7892 10.781 49.6683 10.9847 49.5159 11.1562L31.0378 32.0005L49.5159 52.8448C49.668 53.0164 49.7887 53.2202 49.871 53.4444C49.9534 53.6687 49.9957 53.909 49.9957 54.1517C49.9957 54.3945 49.9534 54.6348 49.871 54.859C49.7887 55.0833 49.668 55.287 49.5159 55.4587C49.3638 55.6303 49.1832 55.7664 48.9845 55.8593C48.7857 55.9522 48.5727 56 48.3576 56C48.1424 56 47.9294 55.9522 47.7307 55.8593C47.5319 55.7664 47.3513 55.6303 47.1992 55.4587L27.566 33.3074C27.4137 33.1359 27.2928 32.9322 27.2103 32.708C27.1278 32.4837 27.0854 32.2433 27.0854 32.0005C27.0854 31.7577 27.1278 31.5173 27.2103 31.293C27.2928 31.0687 27.4137 30.865 27.566 30.6936L47.1992 8.54231C47.3512 8.37041 47.5317 8.23402 47.7305 8.14096C47.9293 8.0479 48.1424 8 48.3576 8C48.5728 8 48.7859 8.0479 48.9846 8.14096C49.1834 8.23402 49.3639 8.37041 49.5159 8.54231Z" fill="#212529"/>
</svg>
