<svg width="64" height="64" viewBox="0 0 64 64" fill="none" xmlns="http://www.w3.org/2000/svg">
<path d="M26.3921 20.0518C26.4805 20.0129 26.5772 19.9969 26.6734 20.0051C26.7696 20.0134 26.8622 20.0457 26.9426 20.099C27.0231 20.1524 27.0888 20.2251 27.1338 20.3105C27.1788 20.396 27.2016 20.4913 27.2001 20.5878V25.1998C27.2001 25.7303 27.4109 26.239 27.7859 26.6141C28.161 26.9891 28.6697 27.1998 29.2001 27.1998C31.8681 27.1998 37.2521 27.2198 42.4001 30.4878C46.3361 32.9838 50.3601 37.5278 52.7801 45.9918C48.7001 42.0598 44.0401 39.9278 39.9601 38.7958C37.4523 38.1032 34.875 37.6926 32.2761 37.5718C31.2123 37.5251 30.1468 37.5358 29.0841 37.6038H29.0321L29.0121 37.6078H29.0081L29.2001 39.5998L29.0001 37.6078C28.5065 37.6575 28.0489 37.8888 27.7162 38.2569C27.3836 38.625 27.1996 39.1037 27.2001 39.5998V44.2118C27.2001 44.6438 26.7601 44.9158 26.3921 44.7478L10.4561 33.0158C10.402 32.9757 10.346 32.9383 10.2881 32.9038C10.2012 32.8516 10.1292 32.7777 10.0792 32.6894C10.0293 32.6011 10.003 32.5013 10.003 32.3998C10.003 32.2984 10.0293 32.1986 10.0792 32.1103C10.1292 32.022 10.2012 31.9481 10.2881 31.8958C10.346 31.8614 10.4021 31.824 10.4561 31.7838L26.3921 20.0518ZM31.2001 41.5438C31.4721 41.5438 31.7721 41.5558 32.0921 41.5678C33.8281 41.6478 36.2281 41.9118 38.8921 42.6518C44.1961 44.1238 50.4761 47.4598 54.6521 54.9718C54.878 55.3773 55.2378 55.6917 55.67 55.8609C56.1021 56.0302 56.5797 56.0439 57.0209 55.8997C57.462 55.7555 57.8393 55.4623 58.088 55.0705C58.3367 54.6786 58.4414 54.2124 58.3841 53.7518C56.5281 38.9118 50.8401 31.1038 44.5441 27.1118C39.5641 23.9518 34.4361 23.3438 31.2001 23.2278V20.5878C31.2005 19.7641 30.9785 18.9556 30.5576 18.2475C30.1367 17.5394 29.5325 16.9581 28.8087 16.5649C28.0849 16.1716 27.2683 15.9811 26.4452 16.0133C25.6221 16.0455 24.823 16.2993 24.1321 16.7478L8.15614 28.5078C7.49566 28.9201 6.95096 29.4937 6.57333 30.1746C6.1957 30.8555 5.99756 31.6212 5.99756 32.3998C5.99756 33.1784 6.1957 33.9442 6.57333 34.6251C6.95096 35.306 7.49566 35.8796 8.15614 36.2918L24.1321 48.0518C24.823 48.5004 25.6221 48.7542 26.4452 48.7864C27.2683 48.8186 28.0849 48.628 28.8087 48.2348C29.5325 47.8416 30.1367 47.2602 30.5576 46.5522C30.9785 45.8441 31.2005 45.0356 31.2001 44.2118V41.5438Z" fill="#212529"/>
</svg>
