<svg width="64" height="64" viewBox="0 0 64 64" fill="none" xmlns="http://www.w3.org/2000/svg">
<g clip-path="url(#clip0_355_6788)">
<path d="M64 32C64 40.4869 60.6286 48.6263 54.6274 54.6274C48.6263 60.6286 40.4869 64 32 64C23.5131 64 15.3737 60.6286 9.37258 54.6274C3.37142 48.6263 0 40.4869 0 32C0 23.5131 3.37142 15.3737 9.37258 9.37258C15.3737 3.37142 23.5131 0 32 0C40.4869 0 48.6263 3.37142 54.6274 9.37258C60.6286 15.3737 64 23.5131 64 32ZM21.416 18.584C21.0405 18.2085 20.5311 17.9975 20 17.9975C19.4689 17.9975 18.9595 18.2085 18.584 18.584C18.2085 18.9595 17.9975 19.4689 17.9975 20C17.9975 20.5311 18.2085 21.0405 18.584 21.416L29.172 32L18.584 42.584C18.398 42.77 18.2505 42.9907 18.1499 43.2337C18.0493 43.4766 17.9975 43.737 17.9975 44C17.9975 44.263 18.0493 44.5234 18.1499 44.7663C18.2505 45.0093 18.398 45.23 18.584 45.416C18.9595 45.7915 19.4689 46.0025 20 46.0025C20.263 46.0025 20.5234 45.9507 20.7663 45.8501C21.0093 45.7495 21.23 45.602 21.416 45.416L32 34.828L42.584 45.416C42.77 45.602 42.9907 45.7495 43.2337 45.8501C43.4766 45.9507 43.737 46.0025 44 46.0025C44.263 46.0025 44.5234 45.9507 44.7663 45.8501C45.0093 45.7495 45.23 45.602 45.416 45.416C45.602 45.23 45.7495 45.0093 45.8501 44.7663C45.9507 44.5234 46.0025 44.263 46.0025 44C46.0025 43.737 45.9507 43.4766 45.8501 43.2337C45.7495 42.9907 45.602 42.77 45.416 42.584L34.828 32L45.416 21.416C45.602 21.23 45.7495 21.0093 45.8501 20.7663C45.9507 20.5234 46.0025 20.263 46.0025 20C46.0025 19.737 45.9507 19.4766 45.8501 19.2337C45.7495 18.9907 45.602 18.77 45.416 18.584C45.23 18.398 45.0093 18.2505 44.7663 18.1499C44.5234 18.0493 44.263 17.9975 44 17.9975C43.737 17.9975 43.4766 18.0493 43.2337 18.1499C42.9907 18.2505 42.77 18.398 42.584 18.584L32 29.172L21.416 18.584Z" fill="#212529"/>
</g>
<defs>
<clipPath id="clip0_355_6788">
<rect width="64" height="64" fill="white"/>
</clipPath>
</defs>
</svg>
