<svg width="64" height="64" viewBox="0 0 64 64" fill="none" xmlns="http://www.w3.org/2000/svg">
<path d="M23.6839 47.6002L5.41188 34.4802C4.9815 34.2259 4.62484 33.8638 4.37709 33.4296C4.12933 32.9954 3.99902 32.5042 3.99902 32.0042C3.99902 31.5043 4.12933 31.0131 4.37709 30.5789C4.62484 30.1447 4.9815 29.7826 5.41188 29.5282L23.6839 16.4002C24.1194 16.1441 24.615 16.0077 25.1204 16.0049C25.6257 16.0022 26.1227 16.1332 26.561 16.3846C26.9994 16.6361 27.3633 16.9991 27.616 17.4367C27.8688 17.8743 28.0012 18.3709 27.9999 18.8762V24.0002C33.9999 24.0002 51.9999 24.0002 55.9999 56.0002C45.9999 38.0002 27.9999 40.0002 27.9999 40.0002V45.1242C27.9999 47.3642 25.5759 48.7162 23.6839 47.6042V47.6002Z" fill="#212529"/>
</svg>
