<svg width="64" height="64" viewBox="0 0 64 64" fill="none" xmlns="http://www.w3.org/2000/svg">
<path fill-rule="evenodd" clip-rule="evenodd" d="M30.5841 10.5876C30.7699 10.4013 30.9906 10.2536 31.2336 10.1527C31.4765 10.0519 31.737 10 32.0001 10C32.2632 10 32.5236 10.0519 32.7666 10.1527C33.0096 10.2536 33.2303 10.4013 33.4161 10.5876L57.4161 34.5876C57.7916 34.9631 58.0026 35.4725 58.0026 36.0036C58.0026 36.5347 57.7916 37.044 57.4161 37.4196C57.0405 37.7951 56.5312 38.0061 56.0001 38.0061C55.469 38.0061 54.9596 37.7951 54.5841 37.4196L32.0001 14.8316L9.41609 37.4196C9.04054 37.7951 8.53119 38.0061 8.00008 38.0061C7.46898 38.0061 6.95963 37.7951 6.58408 37.4196C6.20854 37.044 5.99756 36.5347 5.99756 36.0036C5.99756 35.4725 6.20854 34.9631 6.58408 34.5876L30.5841 10.5876Z" fill="white"/>
<path fill-rule="evenodd" clip-rule="evenodd" d="M30.5841 26.5876C30.7699 26.4013 30.9906 26.2536 31.2336 26.1527C31.4765 26.0519 31.737 26 32.0001 26C32.2632 26 32.5236 26.0519 32.7666 26.1527C33.0096 26.2536 33.2303 26.4013 33.4161 26.5876L57.4161 50.5876C57.7916 50.9631 58.0026 51.4725 58.0026 52.0036C58.0026 52.5347 57.7916 53.044 57.4161 53.4196C57.0405 53.7951 56.5312 54.0061 56.0001 54.0061C55.469 54.0061 54.9596 53.7951 54.5841 53.4196L32.0001 30.8316L9.41609 53.4196C9.04054 53.7951 8.53119 54.0061 8.00008 54.0061C7.46898 54.0061 6.95963 53.7951 6.58408 53.4196C6.20854 53.044 5.99756 52.5347 5.99756 52.0036C5.99756 51.4725 6.20854 50.9631 6.58408 50.5876L30.5841 26.5876Z" fill="white"/>
</svg>
