<svg width="64" height="64" viewBox="0 0 64 64" fill="none" xmlns="http://www.w3.org/2000/svg">
<path fill-rule="evenodd" clip-rule="evenodd" d="M24 14C24 13.4696 24.2107 12.9609 24.5858 12.5858C24.9609 12.2107 25.4696 12 26 12H58C58.5304 12 59.0391 12.2107 59.4142 12.5858C59.7893 12.9609 60 13.4696 60 14V50C60 50.5304 59.7893 51.0391 59.4142 51.4142C59.0391 51.7893 58.5304 52 58 52H26C25.4696 52 24.9609 51.7893 24.5858 51.4142C24.2107 51.0391 24 50.5304 24 50V42C24 41.4696 23.7893 40.9609 23.4142 40.5858C23.0391 40.2107 22.5304 40 22 40C21.4696 40 20.9609 40.2107 20.5858 40.5858C20.2107 40.9609 20 41.4696 20 42V50C20 51.5913 20.6321 53.1174 21.7574 54.2426C22.8826 55.3679 24.4087 56 26 56H58C59.5913 56 61.1174 55.3679 62.2426 54.2426C63.3679 53.1174 64 51.5913 64 50V14C64 12.4087 63.3679 10.8826 62.2426 9.75736C61.1174 8.63214 59.5913 8 58 8H26C24.4087 8 22.8826 8.63214 21.7574 9.75736C20.6321 10.8826 20 12.4087 20 14V22C20 22.5304 20.2107 23.0391 20.5858 23.4142C20.9609 23.7893 21.4696 24 22 24C22.5304 24 23.0391 23.7893 23.4142 23.4142C23.7893 23.0391 24 22.5304 24 22V14Z" fill="#212529"/>
<path fill-rule="evenodd" clip-rule="evenodd" d="M47.416 33.416C47.6023 33.2302 47.75 33.0095 47.8508 32.7665C47.9517 32.5236 48.0036 32.2631 48.0036 32C48.0036 31.7369 47.9517 31.4764 47.8508 31.2335C47.75 30.9905 47.6023 30.7698 47.416 30.584L35.416 18.584C35.23 18.398 35.0093 18.2505 34.7663 18.1499C34.5234 18.0493 34.263 17.9975 34 17.9975C33.737 17.9975 33.4766 18.0493 33.2337 18.1499C32.9907 18.2505 32.77 18.398 32.584 18.584C32.398 18.77 32.2505 18.9907 32.1499 19.2337C32.0493 19.4766 31.9975 19.737 31.9975 20C31.9975 20.263 32.0493 20.5234 32.1499 20.7663C32.2505 21.0093 32.398 21.23 32.584 21.416L41.172 30H6C5.46957 30 4.96086 30.2107 4.58579 30.5858C4.21071 30.9609 4 31.4696 4 32C4 32.5304 4.21071 33.0391 4.58579 33.4142C4.96086 33.7893 5.46957 34 6 34H41.172L32.584 42.584C32.398 42.77 32.2505 42.9907 32.1499 43.2337C32.0493 43.4766 31.9975 43.737 31.9975 44C31.9975 44.263 32.0493 44.5234 32.1499 44.7663C32.2505 45.0093 32.398 45.23 32.584 45.416C32.77 45.602 32.9907 45.7495 33.2337 45.8501C33.4766 45.9507 33.737 46.0025 34 46.0025C34.263 46.0025 34.5234 45.9507 34.7663 45.8501C35.0093 45.7495 35.23 45.602 35.416 45.416L47.416 33.416Z" fill="#212529"/>
</svg>
