<svg width="64" height="64" viewBox="0 0 64 64" fill="none" xmlns="http://www.w3.org/2000/svg">
<g clip-path="url(#clip0_355_6717)">
<path d="M36.1999 1.74C33.8799 -0.58 30.1199 -0.58 27.7999 1.74L1.74391 27.8C-0.576094 30.12 -0.576094 33.876 1.74391 36.192L27.8079 62.256C30.1279 64.576 33.8839 64.576 36.1999 62.256L62.2639 36.192C64.5839 33.872 64.5839 30.116 62.2639 27.8L36.1999 1.74ZM21.9799 24.132C21.851 24.1337 21.723 24.1092 21.6039 24.0598C21.4848 24.0104 21.377 23.9372 21.2872 23.8447C21.1973 23.7522 21.1272 23.6424 21.0813 23.5219C21.0353 23.4014 21.0145 23.2728 21.0199 23.144C21.3999 16.364 26.9479 14 32.0199 14C37.6039 14 42.7079 16.92 42.7079 22.96C42.7079 27.28 40.1679 29.336 37.7319 31.188C34.7839 33.424 33.6919 34.26 33.6919 37.132V37.552C33.6919 37.8172 33.5865 38.0716 33.399 38.2591C33.2115 38.4466 32.9571 38.552 32.6919 38.552H29.4519C29.1894 38.552 28.9375 38.4489 28.7504 38.2648C28.5633 38.0807 28.4561 37.8304 28.4519 37.568L28.4359 36.7C28.2839 32.992 30.4159 30.708 33.1079 28.752C35.4679 26.976 36.9679 25.808 36.9679 23.268C36.9679 19.968 34.4559 18.596 31.7119 18.596C28.4999 18.596 26.6999 20.508 26.3439 23.132C26.2719 23.68 25.8319 24.132 25.2799 24.132H21.9799ZM31.2799 49.904C28.9439 49.904 27.2439 48.328 27.2439 46.196C27.2439 43.988 28.9439 42.436 31.2839 42.436C33.7199 42.436 35.3959 43.988 35.3959 46.196C35.3959 48.328 33.7159 49.904 31.2799 49.904Z" fill="#212529"/>
</g>
<defs>
<clipPath id="clip0_355_6717">
<rect width="64" height="64" fill="white"/>
</clipPath>
</defs>
</svg>
