<svg width="64" height="64" viewBox="0 0 64 64" fill="none" xmlns="http://www.w3.org/2000/svg">
<path fill-rule="evenodd" clip-rule="evenodd" d="M14.4772 8.54231C14.6292 8.37041 14.8098 8.23402 15.0085 8.14096C15.2073 8.0479 15.4204 8 15.6356 8C15.8508 8 16.0639 8.0479 16.2627 8.14096C16.4614 8.23402 16.642 8.37041 16.794 8.54231L36.4271 30.6936C36.5795 30.865 36.7004 31.0687 36.7829 31.293C36.8653 31.5173 36.9078 31.7577 36.9078 32.0005C36.9078 32.2433 36.8653 32.4837 36.7829 32.708C36.7004 32.9322 36.5795 33.1359 36.4271 33.3074L16.794 55.4587C16.4867 55.8053 16.0701 56 15.6356 56C15.2011 56 14.7845 55.8053 14.4772 55.4587C14.17 55.112 13.9974 54.6419 13.9974 54.1517C13.9974 53.6615 14.17 53.1914 14.4772 52.8448L32.9553 32.0005L14.4772 11.1562C14.3249 10.9847 14.204 10.781 14.1215 10.5567C14.039 10.3325 13.9966 10.092 13.9966 9.84924C13.9966 9.60643 14.039 9.36601 14.1215 9.14175C14.204 8.91749 14.3249 8.71379 14.4772 8.54231Z" fill="#212529"/>
<path fill-rule="evenodd" clip-rule="evenodd" d="M27.566 8.54231C27.718 8.37041 27.8986 8.23402 28.0973 8.14096C28.2961 8.0479 28.5092 8 28.7244 8C28.9396 8 29.1527 8.0479 29.3514 8.14096C29.5502 8.23402 29.7308 8.37041 29.8827 8.54231L49.5159 30.6936C49.6683 30.865 49.7892 31.0687 49.8716 31.293C49.9541 31.5173 49.9966 31.7577 49.9966 32.0005C49.9966 32.2433 49.9541 32.4837 49.8716 32.708C49.7892 32.9322 49.6683 33.1359 49.5159 33.3074L29.8827 55.4587C29.5755 55.8053 29.1589 56 28.7244 56C28.2899 56 27.8732 55.8053 27.566 55.4587C27.2588 55.112 27.0862 54.6419 27.0862 54.1517C27.0862 53.6615 27.2588 53.1914 27.566 52.8448L46.0441 32.0005L27.566 11.1562C27.4137 10.9847 27.2928 10.781 27.2103 10.5567C27.1278 10.3325 27.0854 10.092 27.0854 9.84924C27.0854 9.60643 27.1278 9.36601 27.2103 9.14175C27.2928 8.91749 27.4137 8.71379 27.566 8.54231Z" fill="#212529"/>
</svg>
