<svg width="64" height="64" viewBox="0 0 64 64" fill="none" xmlns="http://www.w3.org/2000/svg">
<path d="M56 4C57.0609 4 58.0783 4.42143 58.8284 5.17157C59.5786 5.92172 60 6.93913 60 8V56C60 57.0609 59.5786 58.0783 58.8284 58.8284C58.0783 59.5786 57.0609 60 56 60H8C6.93913 60 5.92172 59.5786 5.17157 58.8284C4.42143 58.0783 4 57.0609 4 56V8C4 6.93913 4.42143 5.92172 5.17157 5.17157C5.92172 4.42143 6.93913 4 8 4H56ZM8 0C5.87827 0 3.84344 0.842855 2.34315 2.34315C0.842855 3.84344 0 5.87827 0 8V56C0 58.1217 0.842855 60.1566 2.34315 61.6569C3.84344 63.1571 5.87827 64 8 64H56C58.1217 64 60.1566 63.1571 61.6569 61.6569C63.1571 60.1566 64 58.1217 64 56V8C64 5.87827 63.1571 3.84344 61.6569 2.34315C60.1566 0.842855 58.1217 0 56 0H8Z" fill="#212529"/>
<path d="M43.88 19.88C44.4398 19.3251 45.1955 19.0128 45.9837 19.0106C46.7719 19.0084 47.5294 19.3166 48.0922 19.8684C48.6551 20.4202 48.9781 21.1714 48.9916 21.9595C49.005 22.7476 48.7077 23.5093 48.164 24.08L32.196 44.04C31.9216 44.3356 31.5903 44.5728 31.2221 44.7375C30.8539 44.9021 30.4563 44.9908 30.053 44.9983C29.6497 45.0058 29.2491 44.9318 28.875 44.7809C28.501 44.63 28.1612 44.4052 27.876 44.12L17.296 33.536C17.0013 33.2614 16.7648 32.9301 16.6009 32.5622C16.4369 32.1942 16.3487 31.7969 16.3416 31.3941C16.3345 30.9913 16.4086 30.5912 16.5595 30.2176C16.7104 29.8441 16.935 29.5047 17.2198 29.2198C17.5047 28.935 17.8441 28.7104 18.2176 28.5595C18.5912 28.4086 18.9913 28.3345 19.3941 28.3416C19.7969 28.3487 20.1942 28.4369 20.5622 28.6009C20.9302 28.7648 21.2614 29.0013 21.536 29.296L29.912 37.668L43.804 19.968C43.8288 19.937 43.8515 19.9076 43.88 19.88Z" fill="#212529"/>
</svg>
