<svg width="64" height="64" viewBox="0 0 64 64" fill="none" xmlns="http://www.w3.org/2000/svg">
<path fill-rule="evenodd" clip-rule="evenodd" d="M8.5389 27.5694C8.71037 27.4171 8.91407 27.2962 9.13833 27.2137C9.3626 27.1312 9.60301 27.0888 9.84582 27.0888C10.0886 27.0888 10.329 27.1312 10.5533 27.2137C10.7776 27.2962 10.9813 27.4171 11.1527 27.5694L31.9971 46.0475L52.8414 27.5694C53.188 27.2622 53.6581 27.0896 54.1483 27.0896C54.6385 27.0896 55.1086 27.2622 55.4552 27.5694C55.8019 27.8767 55.9966 28.2933 55.9966 28.7278C55.9966 29.1623 55.8019 29.5789 55.4552 29.8862L33.304 49.5193C33.1325 49.6717 32.9288 49.7926 32.7046 49.8751C32.4803 49.9575 32.2399 50 31.9971 50C31.7543 50 31.5138 49.9575 31.2896 49.8751C31.0653 49.7926 30.8616 49.6717 30.6901 49.5193L8.5389 29.8862C8.36699 29.7342 8.2306 29.5536 8.13754 29.3549C8.04448 29.1561 7.99658 28.943 7.99658 28.7278C7.99658 28.5126 8.04448 28.2995 8.13754 28.1007C8.2306 27.902 8.36699 27.7214 8.5389 27.5694Z" fill="white"/>
<path fill-rule="evenodd" clip-rule="evenodd" d="M8.5389 14.4807C8.71037 14.3283 8.91407 14.2074 9.13833 14.1249C9.3626 14.0425 9.60301 14 9.84582 14C10.0886 14 10.329 14.0425 10.5533 14.1249C10.7776 14.2074 10.9813 14.3283 11.1527 14.4807L31.9971 32.9588L52.8414 14.4807C53.013 14.3285 53.2168 14.2079 53.441 14.1256C53.6653 14.0432 53.9056 14.0009 54.1483 14.0009C54.391 14.0009 54.6314 14.0432 54.8556 14.1256C55.0799 14.2079 55.2836 14.3285 55.4552 14.4807C55.6269 14.6328 55.763 14.8134 55.8559 15.0121C55.9488 15.2109 55.9966 15.4239 55.9966 15.639C55.9966 15.8541 55.9488 16.0672 55.8559 16.2659C55.763 16.4647 55.6269 16.6453 55.4552 16.7974L33.304 36.4306C33.1325 36.5829 32.9288 36.7038 32.7046 36.7863C32.4803 36.8688 32.2399 36.9112 31.9971 36.9112C31.7543 36.9112 31.5138 36.8688 31.2896 36.7863C31.0653 36.7038 30.8616 36.5829 30.6901 36.4306L8.5389 16.7974C8.36699 16.6454 8.2306 16.4649 8.13754 16.2661C8.04448 16.0673 7.99658 15.8542 7.99658 15.639C7.99658 15.4238 8.04448 15.2107 8.13754 15.012C8.2306 14.8132 8.36699 14.6326 8.5389 14.4807Z" fill="white"/>
</svg>
