<svg width="64" height="64" viewBox="0 0 64 64" fill="none" xmlns="http://www.w3.org/2000/svg">
<g clip-path="url(#clip0_348_6701)">
<path d="M64 32C64 40.4869 60.6286 48.6263 54.6274 54.6274C48.6263 60.6286 40.4869 64 32 64C23.5131 64 15.3737 60.6286 9.37258 54.6274C3.37142 48.6263 0 40.4869 0 32C0 23.5131 3.37142 15.3737 9.37258 9.37258C15.3737 3.37142 23.5131 0 32 0C40.4869 0 48.6263 3.37142 54.6274 9.37258C60.6286 15.3737 64 23.5131 64 32ZM32 16C31.4944 16.0003 30.9945 16.1065 30.5325 16.3117C30.0704 16.517 29.6565 16.8167 29.3174 17.1916C28.9782 17.5666 28.7214 18.0084 28.5634 18.4887C28.4054 18.9689 28.3497 19.4769 28.4 19.98L29.8 34.008C29.847 34.5591 30.0992 35.0725 30.5066 35.4465C30.914 35.8206 31.4469 36.0282 32 36.0282C32.5531 36.0282 33.086 35.8206 33.4934 35.4465C33.9008 35.0725 34.153 34.5591 34.2 34.008L35.6 19.98C35.6503 19.4769 35.5946 18.9689 35.4366 18.4887C35.2786 18.0084 35.0218 17.5666 34.6826 17.1916C34.3435 16.8167 33.9296 16.517 33.4675 16.3117C33.0055 16.1065 32.5056 16.0003 32 16ZM32.008 40C30.9471 40 29.9297 40.4214 29.1796 41.1716C28.4294 41.9217 28.008 42.9391 28.008 44C28.008 45.0609 28.4294 46.0783 29.1796 46.8284C29.9297 47.5786 30.9471 48 32.008 48C33.0689 48 34.0863 47.5786 34.8364 46.8284C35.5866 46.0783 36.008 45.0609 36.008 44C36.008 42.9391 35.5866 41.9217 34.8364 41.1716C34.0863 40.4214 33.0689 40 32.008 40Z" fill="#212529"/>
</g>
<defs>
<clipPath id="clip0_348_6701">
<rect width="64" height="64" fill="white"/>
</clipPath>
</defs>
</svg>
