<svg width="64" height="64" viewBox="0 0 64 64" fill="none" xmlns="http://www.w3.org/2000/svg">
<path d="M29.8349 3V32.3948H34.1682V3H29.8349Z" fill="#212529"/>
<path d="M10.3349 35.8046C10.3338 32.0546 11.3695 28.3727 13.3341 25.1418C15.2987 21.9109 18.1205 19.249 21.5062 17.4329L19.4046 13.7627C14.3802 16.4589 10.4184 20.6914 8.13779 25.7994C5.85716 30.9074 5.386 36.6034 6.79787 41.9982C8.20975 47.3931 11.4252 52.183 15.9422 55.6204C20.4593 59.0578 26.0237 60.9491 31.7667 60.999C37.5098 61.0489 43.1083 59.2547 47.6883 55.8964C52.2682 52.5382 55.5718 47.8049 57.0834 42.4355C58.5949 37.0661 58.2293 31.3628 56.0436 26.2159C53.8579 21.0691 49.9752 16.7684 45.0015 13.9853L42.8306 17.6176C46.1249 19.4598 48.8607 22.1098 50.7632 25.3014C52.6656 28.493 53.6675 32.1137 53.6682 35.7995C53.6689 39.4852 52.6684 43.1063 50.7672 46.2985C48.8661 49.4908 46.1312 52.1419 42.8376 53.9852C39.544 55.8286 35.8077 56.7993 32.0042 56.7997C28.2008 56.8002 24.4642 55.8304 21.1701 53.9878C17.8761 52.1453 15.1405 49.4949 13.2386 46.303C11.3366 43.1112 10.3351 39.4904 10.3349 35.8046Z" fill="#212529"/>
<path d="M29.8349 3V32.3948H34.1682V3H29.8349Z" stroke="black" stroke-width="0.5"/>
<path d="M10.3349 35.8046C10.3338 32.0546 11.3695 28.3727 13.3341 25.1418C15.2987 21.9109 18.1205 19.249 21.5062 17.4329L19.4046 13.7627C14.3802 16.4589 10.4184 20.6914 8.13779 25.7994C5.85716 30.9074 5.386 36.6034 6.79787 41.9982C8.20975 47.3931 11.4252 52.183 15.9422 55.6204C20.4593 59.0578 26.0237 60.9491 31.7667 60.999C37.5098 61.0489 43.1083 59.2547 47.6883 55.8964C52.2682 52.5382 55.5718 47.8049 57.0834 42.4355C58.5949 37.0661 58.2293 31.3628 56.0436 26.2159C53.8579 21.0691 49.9752 16.7684 45.0015 13.9853L42.8306 17.6176C46.1249 19.4598 48.8607 22.1098 50.7632 25.3014C52.6656 28.493 53.6675 32.1137 53.6682 35.7995C53.6689 39.4852 52.6684 43.1063 50.7672 46.2985C48.8661 49.4908 46.1312 52.1419 42.8376 53.9852C39.544 55.8286 35.8077 56.7993 32.0042 56.7997C28.2008 56.8002 24.4642 55.8304 21.1701 53.9878C17.8761 52.1453 15.1405 49.4949 13.2386 46.303C11.3366 43.1112 10.3351 39.4904 10.3349 35.8046Z" stroke="black" stroke-width="0.5"/>
</svg>
