<svg width="64" height="64" viewBox="0 0 64 64" fill="none" xmlns="http://www.w3.org/2000/svg">
<path d="M32 0C14.339 0 0 14.339 0 32C0 49.661 14.339 64 32 64C49.661 64 64 49.661 64 32C64 14.339 49.661 0 32 0ZM32 4.46512C47.1963 4.46512 59.5349 16.8037 59.5349 32C59.5349 47.1963 47.1963 59.5349 32 59.5349C16.8037 59.5349 4.46512 47.1963 4.46512 32C4.46512 16.8037 16.8037 4.46512 32 4.46512Z" fill="white"/>
<path d="M32 0C14.339 0 0 14.339 0 32C0 49.661 14.339 64 32 64C49.661 64 64 49.661 64 32C64 14.339 49.661 0 32 0ZM32 4.46512C47.1963 4.46512 59.5349 16.8037 59.5349 32C59.5349 47.1963 47.1963 59.5349 32 59.5349C16.8037 59.5349 4.46512 47.1963 4.46512 32C4.46512 16.8037 16.8037 4.46512 32 4.46512Z" stroke="white"/>
<path d="M31.9998 8.92969C25.0164 8.92969 19.3486 14.5974 19.3486 21.5808C19.3486 28.5643 25.0164 34.232 31.9998 34.232C38.9832 34.232 44.651 28.5643 44.651 21.5808C44.651 14.5974 38.9832 8.92969 31.9998 8.92969ZM31.9998 13.3948C36.5185 13.3948 40.1858 17.0622 40.1858 21.5808C40.1858 26.0995 36.5185 29.7669 31.9998 29.7669C27.4811 29.7669 23.8137 26.0995 23.8137 21.5808C23.8137 17.0622 27.4811 13.3948 31.9998 13.3948Z" fill="white"/>
<path d="M31.9998 8.92969C25.0164 8.92969 19.3486 14.5974 19.3486 21.5808C19.3486 28.5643 25.0164 34.232 31.9998 34.232C38.9832 34.232 44.651 28.5643 44.651 21.5808C44.651 14.5974 38.9832 8.92969 31.9998 8.92969ZM31.9998 13.3948C36.5185 13.3948 40.1858 17.0622 40.1858 21.5808C40.1858 26.0995 36.5185 29.7669 31.9998 29.7669C27.4811 29.7669 23.8137 26.0995 23.8137 21.5808C23.8137 17.0622 27.4811 13.3948 31.9998 13.3948Z" stroke="white"/>
<path d="M9.99589 51.176C15.0236 44.5021 23.0102 40.1858 32 40.1858C40.9898 40.1858 48.9764 44.5021 54.0041 51.176C54.7453 52.1583 56.1473 52.3577 57.1326 51.6135C58.115 50.8723 58.3114 49.4733 57.5702 48.488C51.7298 40.7365 42.4454 35.7207 32 35.7207C21.5546 35.7207 12.2701 40.7365 6.42975 48.488C5.68855 49.4733 5.88501 50.8723 6.86734 51.6135C7.85264 52.3577 9.25468 52.1583 9.99589 51.176Z" fill="white"/>
<path d="M9.99589 51.176C15.0236 44.5021 23.0102 40.1858 32 40.1858C40.9898 40.1858 48.9764 44.5021 54.0041 51.176C54.7453 52.1583 56.1473 52.3577 57.1326 51.6135C58.115 50.8723 58.3114 49.4733 57.5702 48.488C51.7298 40.7365 42.4454 35.7207 32 35.7207C21.5546 35.7207 12.2701 40.7365 6.42975 48.488C5.68855 49.4733 5.88501 50.8723 6.86734 51.6135C7.85264 52.3577 9.25468 52.1583 9.99589 51.176Z" stroke="white"/>
</svg>
